<svg width="16794" height="14990" viewBox="0 0 16794 14990" fill="none" xmlns="http://www.w3.org/2000/svg">
<path d="M1 14987.4H16793" stroke="#263238" stroke-linecap="round" stroke-linejoin="round"/>
<path d="M10195.3 6305.16V0.569336H10585.6" stroke="#263238" stroke-linecap="round" stroke-linejoin="round"/>
<path d="M10195.3 7055.42V6888.32" stroke="#263238" stroke-linecap="round" stroke-linejoin="round"/>
<path d="M11589.6 0.569336H15617.7V7643.29H10195.3" stroke="#263238" stroke-linecap="round" stroke-linejoin="round"/>
<path d="M11096 0.569336H11449.9" stroke="#263238" stroke-linecap="round" stroke-linejoin="round"/>
<path d="M15413.7 204.095H10399.2V7439.76H15413.7V204.095Z" stroke="#263238" stroke-linecap="round" stroke-linejoin="round"/>
<path d="M10632.3 2940.77V417.476H15180.6" stroke="#263238" stroke-linecap="round" stroke-linejoin="round"/>
<path d="M10632.3 3249.7V3059.03" stroke="#263238" stroke-linecap="round" stroke-linejoin="round"/>
<path d="M14412.4 3821.71H15413.7" stroke="#263238" stroke-linecap="round" stroke-linejoin="round"/>
<path d="M14056.3 3821.71H14198.1" stroke="#263238" stroke-linecap="round" stroke-linejoin="round"/>
<path d="M10399.2 3821.71H13887.5" stroke="#263238" stroke-linecap="round" stroke-linejoin="round"/>
<path d="M12654.3 3596.34V3492.65H13073.8V3551.35H12906.7V3596.34" stroke="#263238" stroke-linecap="round" stroke-linejoin="round"/>
<path d="M10407.8 6527.97C10407.8 6527.97 10477.7 6580.67 10526.5 6899.46C10526.5 6899.46 10612.2 6390.43 10712.5 6382.72C10812.7 6375 10793.9 6713.5 10793.9 6713.5C10793.9 6713.5 10811 6546.82 10890.7 6554.53C10970.4 6562.25 10890.7 6897.31 10890.7 6897.31C10890.7 6897.31 10986.7 6634.23 11077.5 6640.23C11168.4 6646.23 11017.5 7116.69 11017.5 7116.69C11017.5 7116.69 11250.6 6947.87 11344.9 7031C11439.2 7114.12 11292.6 7321.51 11292.6 7321.51C11292.6 7321.51 11626.8 7249.09 11678.3 7445.34" stroke="#263238" stroke-linecap="round" stroke-linejoin="round"/>
<path d="M11678.7 7256.38C11678.7 7256.38 11824.4 7160.83 11939.2 7205.39C11939.2 7205.39 11866.4 7094.41 11939.2 7026.72C12012 6959.02 12105.4 7205.39 12105.4 7205.39C12105.4 7205.39 12116.2 6791.91 12261.8 6812.91C12407.5 6833.9 12261.8 7205.39 12261.8 7205.39C12261.8 7205.39 12521.9 6974.87 12584.5 7054.99C12647 7135.12 12541.6 7256.38 12541.6 7256.38C12588.7 7243.02 12638.3 7242.12 12685.8 7253.77C12733.3 7265.41 12776.9 7289.2 12812.4 7322.79C12812.4 7322.79 12986.8 7144.97 13180.5 7119.27C13180.5 7119.27 13051.9 6745.21 13114.1 6669.79C13176.2 6594.38 13290.2 6996.29 13290.2 6996.29C13290.2 6996.29 13339.9 6734.92 13504.4 6714.36C13504.4 6714.36 13368.6 6640.66 13408.9 6528.83C13449.1 6416.99 13636.4 6555.39 13636.4 6555.39C13636.4 6555.39 13559.3 6358.72 13681.4 6304.73C13803.5 6250.75 13852.8 6469.27 13852.8 6469.27C13852.8 6469.27 13887 6240.46 14030.2 6255.03C14173.3 6269.6 14127 6530.97 14127 6530.97C14127 6530.97 14262 6321.87 14334.4 6342.87C14478.8 6385.72 14435.1 6716.5 14435.1 6716.5C14435.1 6716.5 14636.4 6576.39 14688.7 6641.09C14741 6705.79 14478.8 6890.03 14478.8 6890.03C14478.8 6890.03 14678.9 6911.88 14803.6 7028.86" stroke="#263238" stroke-linecap="round" stroke-linejoin="round"/>
<path d="M15413.7 6605.09C15413.7 6605.09 15390.6 6395.14 15180.6 6384C14970.7 6372.86 15238.5 6844.61 15238.5 6844.61C15238.5 6844.61 15064.9 6701.07 15002.8 6745.21C14940.7 6789.34 15180.6 7032.71 15180.6 7032.71C15180.6 7032.71 15065.4 6926.02 14944.1 6959.02C14822.8 6992.01 15013.1 7330.08 15013.1 7330.08C14833.7 7294.14 14647.5 7316.05 14481.3 7392.63" stroke="#263238" stroke-linecap="round" stroke-linejoin="round"/>
<path d="M11769.5 5032.16L11598.1 5963.67L10200.4 6812.91L10393.7 7167.68C10393.7 7167.68 12009.5 6674.94 12048.9 6559.68C12088.3 6444.42 12460.6 5223.69 12460.6 5223.69L11769.5 5032.16Z" fill="#263238"/>
<path d="M12381.8 3457.08L12288.4 4586.55L12239.1 5179.13C11969.6 5310.24 11706.1 5113.14 11689.8 5100.29C11763.1 4885.19 11848.4 3671.32 12381.8 3457.08Z" fill="#999999" stroke="#263238" stroke-linecap="round" stroke-linejoin="round"/>
<path d="M12286.7 4586.55L12237.4 5179.13C11967.9 5310.24 11704.4 5113.14 11688.1 5100.29C11699.7 5105.43 11841.5 5165.42 11933.6 5100.29C11901.4 5065.5 11872.7 5027.61 11847.9 4987.17C11842.4 4964.89 11933.6 4958.89 11933.6 4958.89C11933.6 4958.89 11873.6 4478.57 12033.5 4273.33C12096 4195.35 12193.7 4358.17 12286.7 4586.55Z" fill="#263238"/>
<path d="M13349.7 13916.6L13392.6 14042.6C13327.6 14149.8 13254.9 14252 13174.9 14348.5C13174.9 14348.5 13132.1 14334.8 13061.8 14396.9C13018.5 14440.1 12991.8 14497.1 12986.4 14558C12986.4 14558 12659 14950.5 12243.8 14956.1C11828.6 14961.7 11953.8 14752.6 11953.8 14752.6L13349.7 13916.6Z" fill="#598800" stroke="#263238" stroke-linecap="round" stroke-linejoin="round"/>
<path d="M12959.4 12917.8C12959.4 12917.8 12402.4 12712.6 12293.5 13123.1C12293.5 13123.1 12392.9 13575.1 12333.4 13822.3C12273.8 14069.6 11973.9 14541.8 11955.5 14631.3C11919.1 14807 11946.5 14819 11946.5 14819C11946.5 14819 12164.6 14944.9 12457.6 14810C12750.7 14675 13258 14094 13337.3 13974.4C13416.6 13854.9 13088.8 13383.6 13088.8 13383.6L12959.4 12917.8Z" fill="white"/>
<mask id="mask0_0_1" style="mask-type:luminance" maskUnits="userSpaceOnUse" x="11936" y="12866" width="1414" height="2007">
<path d="M12959.4 12917.8C12959.4 12917.8 12402.4 12712.6 12293.5 13123.1C12293.5 13123.1 12392.9 13575.1 12333.4 13822.3C12273.8 14069.6 11973.9 14541.8 11955.5 14631.3C11919.1 14807 11946.5 14819 11946.5 14819C11946.5 14819 12164.6 14944.9 12457.6 14810C12750.7 14675 13258 14094 13337.3 13974.4C13416.6 13854.9 13088.8 13383.6 13088.8 13383.6L12959.4 12917.8Z" fill="white"/>
</mask>
<g mask="url(#mask0_0_1)">
<path opacity="0.4" d="M12959.4 12917.8C12959.4 12917.8 12402.4 12712.6 12293.5 13123.1C12293.5 13123.1 12392.9 13575.1 12333.4 13822.3C12273.8 14069.6 11973.9 14541.8 11955.5 14631.3C11919.1 14807 11946.5 14819 11946.5 14819C11946.5 14819 12164.6 14944.9 12457.6 14810C12750.7 14675 13258 14094 13337.3 13974.4C13416.6 13854.9 13088.8 13383.6 13088.8 13383.6L12959.4 12917.8Z" fill="#598800"/>
</g>
<path d="M12959.4 12917.8C12959.4 12917.8 12402.4 12712.6 12293.5 13123.1C12293.5 13123.1 12392.9 13575.1 12333.4 13822.3C12273.8 14069.6 11973.9 14541.8 11955.5 14631.3C11919.1 14807 11946.5 14819 11946.5 14819C11946.5 14819 12164.6 14944.9 12457.6 14810C12750.7 14675 13258 14094 13337.3 13974.4C13416.6 13854.9 13088.8 13383.6 13088.8 13383.6L12959.4 12917.8Z" stroke="#263238" stroke-linecap="round" stroke-linejoin="round"/>
<path d="M12674.5 13498.4C12722.9 13774.9 12673.7 14059.7 12535.2 14303.9" stroke="#263238" stroke-linecap="round" stroke-linejoin="round"/>
<path d="M12535.2 14411.9C12514.5 14464.1 12482.3 14511 12441.1 14549.1C12399.9 14587.2 12350.6 14615.6 12297 14632.2C12184.7 14662.2 12066.5 14662.2 11954.2 14632.2L12087.9 14361.4C12229.8 14417.9 12384.3 14435.4 12535.2 14411.9Z" fill="#598800" stroke="#263238" stroke-linecap="round" stroke-linejoin="round"/>
<path d="M12614 14247.8C12614 14247.8 12322.7 14265.4 12170.6 14205" stroke="#263238" stroke-linecap="round" stroke-linejoin="round"/>
<path d="M12668 14087.1C12668 14087.1 12395.5 14130 12243.4 14044.3" stroke="#263238" stroke-linecap="round" stroke-linejoin="round"/>
<path d="M12714.3 13908.5C12714.3 13908.5 12475.6 13943.2 12319.7 13869.5" stroke="#263238" stroke-linecap="round" stroke-linejoin="round"/>
<path d="M12740.9 13706.2C12740.9 13706.2 12475.2 13789.3 12349.7 13706.2" stroke="#263238" stroke-linecap="round" stroke-linejoin="round"/>
<path d="M12780.7 13206.6L12827 13498.4C12827 13498.4 12475.6 13729.8 12243.4 13440.6V13135.9C12243.4 13135.9 12330.8 13340.7 12780.7 13206.6Z" fill="#598800" stroke="#263238" stroke-linecap="round" stroke-linejoin="round"/>
<path d="M12475.6 6656.51C12119.6 7784.69 11014.5 9594.14 11126.4 10057.3C11187.6 10310.1 11552.3 11742.5 11837.6 12371.1C11946 12611.5 12180.4 12772.1 12180.4 12772.1L12349.7 13135.1C12762.3 13314.6 12910.1 12949.5 12910.1 12949.5L12827 12538.2C13048.1 12136.3 12955.5 12136.3 12668 10053C12634.2 9807.52 13203.6 9048.69 13203.6 9048.69L13495.8 10958L13543.4 12521.9L13695.1 13005.2C13695.1 13005.2 13732.8 13459 13729.4 13486.4H14407.6L14481.3 12987.7C14481.3 12987.7 14796.3 12690.7 14796.3 12348C14796.3 12005.2 14728.6 10259.1 14796.3 9750.53C14864 9241.93 14637.7 6870.75 14637.7 6870.75L12475.6 6656.51Z" fill="#263238"/>
<path d="M7864.64 5651.27L8807.29 5736.11C8828.65 5738.03 8848.38 5748.36 8862.13 5764.83C8875.87 5781.3 8882.52 5802.55 8880.59 5823.91L8820.05 6496.62L7716.3 6397.28L7776.84 5724.58C7778.76 5703.21 7789.09 5683.49 7805.56 5669.74C7822.03 5655.99 7843.28 5649.35 7864.64 5651.27Z" fill="#598800"/>
<mask id="mask1_0_1" style="mask-type:luminance" maskUnits="userSpaceOnUse" x="7716" y="5650" width="1165" height="847">
<path d="M7864.64 5651.27L8807.29 5736.11C8828.65 5738.03 8848.38 5748.36 8862.13 5764.83C8875.87 5781.3 8882.52 5802.55 8880.59 5823.91L8820.05 6496.62L7716.3 6397.28L7776.84 5724.58C7778.76 5703.21 7789.09 5683.49 7805.56 5669.74C7822.03 5655.99 7843.28 5649.35 7864.64 5651.27Z" fill="white"/>
</mask>
<g mask="url(#mask1_0_1)">
<path opacity="0.3" d="M7864.64 5651.27L8807.29 5736.11C8828.65 5738.03 8848.38 5748.36 8862.13 5764.83C8875.87 5781.3 8882.52 5802.55 8880.59 5823.91L8820.05 6496.62L7716.3 6397.28L7776.84 5724.58C7778.76 5703.21 7789.09 5683.49 7805.56 5669.74C7822.03 5655.99 7843.28 5649.35 7864.64 5651.27Z" fill="black" fill-opacity="0.7"/>
<path opacity="0.3" d="M8822.1 5724.44L8551.87 5701.22L8505.44 6241.68L8775.67 6264.9L8822.1 5724.44Z" fill="white" fill-opacity="0.7"/>
</g>
<path d="M7864.64 5651.27L8807.29 5736.11C8828.65 5738.03 8848.38 5748.36 8862.13 5764.83C8875.87 5781.3 8882.52 5802.55 8880.59 5823.91L8820.05 6496.62L7716.3 6397.28L7776.84 5724.58C7778.76 5703.21 7789.09 5683.49 7805.56 5669.74C7822.03 5655.99 7843.28 5649.35 7864.64 5651.27Z" stroke="#263238" stroke-width="1.00404" stroke-linecap="round" stroke-linejoin="round"/>
<path d="M9491.7 5710.82L10430.9 5791.51C10452.2 5793.33 10471.9 5803.54 10485.6 5819.89C10499.4 5836.23 10506.1 5857.37 10504.3 5878.66L10446.7 6548.9L9346.97 6454.43L9404.55 5784.19C9406.38 5762.9 9416.59 5743.21 9432.93 5729.46C9449.27 5715.7 9470.41 5709 9491.7 5710.82Z" fill="#598800"/>
<mask id="mask2_0_1" style="mask-type:luminance" maskUnits="userSpaceOnUse" x="9346" y="5710" width="1159" height="839">
<path d="M9491.7 5710.82L10430.9 5791.51C10452.2 5793.33 10471.9 5803.54 10485.6 5819.89C10499.4 5836.23 10506.1 5857.37 10504.3 5878.66L10446.7 6548.9L9346.97 6454.43L9404.55 5784.19C9406.38 5762.9 9416.59 5743.21 9432.93 5729.46C9449.27 5715.7 9470.41 5709 9491.7 5710.82Z" fill="white"/>
</mask>
<g mask="url(#mask2_0_1)">
<path opacity="0.3" d="M9491.7 5710.82L10430.9 5791.51C10452.2 5793.33 10471.9 5803.54 10485.6 5819.89C10499.4 5836.23 10506.1 5857.37 10504.3 5878.66L10446.7 6548.9L9346.97 6454.43L9404.55 5784.19C9406.38 5762.9 9416.59 5743.21 9432.93 5729.46C9449.27 5715.7 9470.41 5709 9491.7 5710.82Z" fill="black" fill-opacity="0.7"/>
<path opacity="0.3" d="M10425.8 5862.47L10262.7 5848.46L10216.3 6388.92L10379.4 6402.93L10425.8 5862.47Z" fill="white" fill-opacity="0.7"/>
</g>
<path d="M9491.7 5710.82L10430.9 5791.51C10452.2 5793.33 10471.9 5803.54 10485.6 5819.89C10499.4 5836.23 10506.1 5857.37 10504.3 5878.66L10446.7 6548.9L9346.97 6454.43L9404.55 5784.19C9406.38 5762.9 9416.59 5743.21 9432.93 5729.46C9449.27 5715.7 9470.41 5709 9491.7 5710.82Z" stroke="#263238" stroke-linecap="round" stroke-linejoin="round"/>
<path d="M9150.56 5681.28L10089.7 5761.96C10111 5763.79 10130.7 5774 10144.5 5790.34C10158.2 5806.69 10164.9 5827.83 10163.1 5849.11L10105.5 6519.35L9005.83 6424.88L9063.41 5754.64C9065.24 5733.36 9075.45 5713.67 9091.79 5699.91C9108.14 5686.15 9129.28 5679.45 9150.56 5681.28Z" fill="#598800" stroke="#263238" stroke-linecap="round" stroke-linejoin="round"/>
<path d="M10772.4 5820.89L11711.6 5901.58C11732.9 5903.41 11752.6 5913.61 11766.3 5929.96C11780.1 5946.3 11786.8 5967.44 11785 5988.73L11727.4 6658.54L10627.7 6564.07L10685.3 5893.83C10687.2 5872.63 10697.5 5853.06 10713.8 5839.39C10730.1 5825.72 10751.2 5819.07 10772.4 5820.89Z" fill="#598800" stroke="#263238" stroke-linecap="round" stroke-linejoin="round"/>
<path opacity="0.3" d="M10102.8 5834.51L9832.6 5811.29L9786.17 6351.75L10056.4 6374.97L10102.8 5834.51Z" fill="white" fill-opacity="0.7"/>
<path opacity="0.3" d="M11706.9 5972.17L11436.7 5948.95L11390.3 6489.41L11660.5 6512.63L11706.9 5972.17Z" fill="white" fill-opacity="0.7"/>
<path d="M12218.6 6544.68L11953.3 9626.7L6987.73 9198.23L7252.95 6116.63C7255.11 6091.13 7262.28 6066.3 7274.05 6043.57C7285.82 6020.85 7301.96 6000.66 7321.54 5984.18C7341.13 5967.71 7363.77 5955.25 7388.17 5947.54C7412.58 5939.83 7438.27 5937.01 7463.76 5939.24L12040.7 6332.58C12066.4 6334.68 12091.4 6341.85 12114.3 6353.68C12137.1 6365.51 12157.4 6381.76 12174 6401.49C12190.5 6421.21 12203 6444.03 12210.6 6468.61C12218.3 6493.19 12221 6519.05 12218.6 6544.68Z" fill="#598800"/>
<mask id="mask3_0_1" style="mask-type:luminance" maskUnits="userSpaceOnUse" x="6987" y="5938" width="5233" height="3689">
<path d="M12218.6 6544.68L11953.3 9626.7L6987.73 9198.23L7252.95 6116.63C7255.11 6091.13 7262.28 6066.3 7274.05 6043.57C7285.82 6020.85 7301.96 6000.66 7321.54 5984.18C7341.13 5967.71 7363.77 5955.25 7388.17 5947.54C7412.58 5939.83 7438.27 5937.01 7463.76 5939.24L12040.7 6332.58C12066.4 6334.68 12091.4 6341.85 12114.3 6353.68C12137.1 6365.51 12157.4 6381.76 12174 6401.49C12190.5 6421.21 12203 6444.03 12210.6 6468.61C12218.3 6493.19 12221 6519.05 12218.6 6544.68Z" fill="white"/>
</mask>
<g mask="url(#mask3_0_1)">
<path opacity="0.3" d="M12218.6 6544.68L11953.3 9626.7L6987.73 9198.23L7252.95 6116.63C7255.11 6091.13 7262.28 6066.3 7274.05 6043.57C7285.82 6020.85 7301.96 6000.66 7321.54 5984.18C7341.13 5967.71 7363.77 5955.25 7388.17 5947.54C7412.58 5939.83 7438.27 5937.01 7463.76 5939.24L12040.7 6332.58C12066.4 6334.68 12091.4 6341.85 12114.3 6353.68C12137.1 6365.51 12157.4 6381.76 12174 6401.49C12190.5 6421.21 12203 6444.03 12210.6 6468.61C12218.3 6493.19 12221 6519.05 12218.6 6544.68Z" fill="black" fill-opacity="0.7"/>
</g>
<path d="M12218.6 6544.68L11953.3 9626.7L6987.73 9198.23L7252.95 6116.63C7255.11 6091.13 7262.28 6066.3 7274.05 6043.57C7285.82 6020.85 7301.96 6000.66 7321.54 5984.18C7341.13 5967.71 7363.77 5955.25 7388.17 5947.54C7412.58 5939.83 7438.27 5937.01 7463.76 5939.24L12040.7 6332.58C12066.4 6334.68 12091.4 6341.85 12114.3 6353.68C12137.1 6365.51 12157.4 6381.76 12174 6401.49C12190.5 6421.21 12203 6444.03 12210.6 6468.61C12218.3 6493.19 12221 6519.05 12218.6 6544.68Z" stroke="#263238" stroke-linecap="round" stroke-linejoin="round"/>
<path d="M12218.6 6544.68L11953.3 9626.71L8268.44 9309.63L8534.1 6228.04C8536.25 6202.53 8543.42 6177.7 8555.19 6154.98C8566.96 6132.25 8583.1 6112.07 8602.69 6095.59C8622.27 6079.11 8644.91 6066.66 8669.32 6058.95C8693.72 6051.23 8719.41 6048.41 8744.91 6050.65L12041.2 6333.87C12066.7 6336.03 12091.5 6343.2 12114.2 6354.97C12137 6366.73 12157.1 6382.87 12173.6 6402.46C12190.1 6422.04 12202.5 6444.69 12210.3 6469.09C12218 6493.5 12220.8 6519.18 12218.6 6544.68Z" fill="#598800" stroke="#263238" stroke-linecap="round" stroke-linejoin="round"/>
<path opacity="0.3" d="M11959.8 6632.95L8810.03 6362.15C8789.04 6360.29 8769.6 6350.28 8755.91 6334.26C8742.21 6318.24 8735.34 6297.48 8736.76 6276.45C8738.62 6255.46 8748.63 6236.03 8764.66 6222.33C8780.68 6208.63 8801.43 6201.76 8822.46 6203.19L11972.2 6473.98C11993.2 6475.84 12012.6 6485.85 12026.3 6501.87C12040 6517.89 12046.9 6538.65 12045.5 6559.68C12043.6 6580.67 12033.6 6600.11 12017.6 6613.8C12001.5 6627.5 11980.8 6634.37 11959.8 6632.95Z" fill="white" fill-opacity="0.7"/>
<path d="M14429.9 13504C14429.9 13504 14192.5 13334.7 13701.5 13368.6C13701.5 13368.6 13665.5 13957.7 13598.7 14129.1C13531.8 14300.5 13179.6 14597.5 13114.1 14648.4C13048.5 14699.4 13048.5 14877.2 13048.5 14877.2H14540.5C14521.3 14622.2 14481.6 14369.2 14421.8 14120.6L14429.9 13504Z" fill="white"/>
<mask id="mask4_0_1" style="mask-type:luminance" maskUnits="userSpaceOnUse" x="13048" y="13364" width="1493" height="1514">
<path d="M14429.9 13504C14429.9 13504 14192.5 13334.7 13701.5 13368.6C13701.5 13368.6 13665.5 13957.7 13598.7 14129.1C13531.8 14300.5 13179.6 14597.5 13114.1 14648.4C13048.5 14699.4 13048.5 14877.2 13048.5 14877.2H14540.5C14521.3 14622.2 14481.6 14369.2 14421.8 14120.6L14429.9 13504Z" fill="white"/>
</mask>
<g mask="url(#mask4_0_1)">
<path opacity="0.4" d="M14429.9 13504C14429.9 13504 14192.5 13334.7 13701.5 13368.6C13701.5 13368.6 13665.5 13957.7 13598.7 14129.1C13531.8 14300.5 13179.6 14597.5 13114.1 14648.4C13048.5 14699.4 13048.5 14877.2 13048.5 14877.2H14540.5C14521.3 14622.2 14481.6 14369.2 14421.8 14120.6L14429.9 13504Z" fill="#598800"/>
</g>
<path d="M14429.9 13504C14429.9 13504 14192.5 13334.7 13701.5 13368.6C13701.5 13368.6 13665.5 13957.7 13598.7 14129.1C13531.8 14300.5 13179.6 14597.5 13114.1 14648.4C13048.5 14699.4 13048.5 14877.2 13048.5 14877.2H14540.5C14521.3 14622.2 14481.6 14369.2 14421.8 14120.6L14429.9 13504Z" stroke="#263238" stroke-linecap="round" stroke-linejoin="round"/>
<path d="M14121.8 13580.2C14121.8 13580.2 14086.7 14122.7 14002.3 14265.8C13957.2 14344.5 13901.6 14416.5 13836.9 14480" stroke="#263238" stroke-linecap="round" stroke-linejoin="round"/>
<path d="M13795.8 14555C13795.8 14555 13720.8 14648.4 13637.7 14660.9C13554.5 14673.3 13115.4 14648.4 13115.4 14648.4L13294.5 14493.3C13294.5 14493.3 13658.7 14432.1 13795.8 14555Z" fill="#598800" stroke="#263238" stroke-linecap="round" stroke-linejoin="round"/>
<path d="M13950.9 14427.8C13950.9 14427.8 13633 14245.2 13406.3 14384.9" stroke="#263238" stroke-linecap="round" stroke-linejoin="round"/>
<path d="M14027.6 14303.9C14027.6 14303.9 13805.6 14130.4 13543.8 14225.5" stroke="#263238" stroke-linecap="round" stroke-linejoin="round"/>
<path d="M14121.8 14115C14121.8 14115 13882.8 13929 13630.8 14047.3" stroke="#263238" stroke-linecap="round" stroke-linejoin="round"/>
<path d="M14154.4 13878.9C14154.4 13878.9 13864.3 13722.9 13653.5 13841.2" stroke="#263238" stroke-linecap="round" stroke-linejoin="round"/>
<path d="M14540 14877.2V14987.4H14368.7C14368.7 14987.4 14221.7 14901.7 14082 14987.4H13277.3C13192.3 14987.1 13108.4 14968.2 13031.4 14932.1L13048.1 14877.2H14540Z" fill="#598800" stroke="#263238" stroke-linecap="round" stroke-linejoin="round"/>
<path d="M14326.2 13469.3L14288.1 13709.6C14288.1 13709.6 13840.3 13564.4 13593.1 13658.7V13363C13593.1 13363 14052.9 13201.9 14326.2 13469.3Z" fill="#598800" stroke="#263238" stroke-linecap="round" stroke-linejoin="round"/>
<path d="M14810.4 7480.47C14810.4 7480.47 13858.8 7666.86 12925.1 7364.35C12712.5 7296.61 12509.2 7202.77 12319.7 7084.99C12319.7 7084.99 12322.2 7025 12324 6926.88C12331.7 6543.82 12329.5 5580.18 12127.7 5341.52C11999.2 5191.12 11898.5 4261.33 12146.6 3791.29L12905.4 3181.14C13956 3386.38 14178 3664.47 14351.5 4264.33C14383.6 4374.02 14413.6 4494.42 14447.1 4627.25C14483.5 4772.08 14517.8 4949.04 14550.3 5141.42C14708 6099.49 14810.4 7480.47 14810.4 7480.47Z" fill="#999999"/>
<mask id="mask5_0_1" style="mask-type:luminance" maskUnits="userSpaceOnUse" x="11994" y="3181" width="2817" height="4357">
<path d="M14810.4 7480.47C14810.4 7480.47 13858.8 7666.86 12925.1 7364.35C12712.5 7296.61 12509.2 7202.77 12319.7 7084.99C12319.7 7084.99 12322.2 7025 12324 6926.88C12331.7 6543.82 12329.5 5580.18 12127.7 5341.52C11999.2 5191.12 11898.5 4261.33 12146.6 3791.29L12905.4 3181.14C13956 3386.38 14178 3664.47 14351.5 4264.33C14383.6 4374.02 14413.6 4494.42 14447.1 4627.25C14483.5 4772.08 14517.8 4949.04 14550.3 5141.42C14708 6099.49 14810.4 7480.47 14810.4 7480.47Z" fill="white"/>
</mask>
<g mask="url(#mask5_0_1)">
<path opacity="0.2" d="M14550.3 5141.42L14121.8 7055.42C14121.8 7055.42 13502.7 7226.81 12925.5 7364.35C12712.8 7296.64 12509.3 7202.81 12319.7 7084.99C12319.7 7084.99 12322.3 7025 12324 6926.88C12842.4 6661.65 13599.1 6271.74 13593.1 6253.32C13583.3 6224.61 13593.1 5224.97 13593.1 5224.97C13593.1 5224.97 14278.7 5066.01 14351.5 4263.05C14383.6 4372.74 14413.6 4493.14 14447.1 4625.97C14483.5 4771.22 14517.8 4946.89 14550.3 5141.42Z" fill="black"/>
</g>
<path d="M14810.4 7480.47C14810.4 7480.47 13858.8 7666.86 12925.1 7364.35C12712.5 7296.61 12509.2 7202.77 12319.7 7084.99C12319.7 7084.99 12322.2 7025 12324 6926.88C12331.7 6543.82 12329.5 5580.18 12127.7 5341.52C11999.2 5191.12 11898.5 4261.33 12146.6 3791.29L12905.4 3181.14C13956 3386.38 14178 3664.47 14351.5 4264.33C14383.6 4374.02 14413.6 4494.42 14447.1 4627.25C14483.5 4772.08 14517.8 4949.04 14550.3 5141.42C14708 6099.49 14810.4 7480.47 14810.4 7480.47Z" stroke="#263238" stroke-linecap="round" stroke-linejoin="round"/>
<path d="M12938.8 2380.32C12938.8 2380.32 12603.8 2860.22 13049.4 3234.7C13049.4 3234.7 12508.6 3841.43 12330.8 3757.87C12255.8 3722.74 12330.8 3503.79 12330.8 3503.79L12017.2 2923.63L12938.8 2380.32Z" fill="white" stroke="#263238" stroke-linecap="round" stroke-linejoin="round"/>
<path d="M12829.6 2628.84C12934.1 2171.66 12884 1490.81 12243.4 1551.22C11794.4 1594.07 11474.3 1842.59 11600.7 2445.02C11653.4 2699.11 11696.7 3059.03 11929.8 3383.81C11994.5 3473.79 12671.5 3155.44 12630.3 2897.92" fill="white"/>
<path d="M12829.6 2628.84C12934.1 2171.66 12884 1490.81 12243.4 1551.22C11794.4 1594.07 11474.3 1842.59 11600.7 2445.02C11653.4 2699.11 11696.7 3059.03 11929.8 3383.81C11994.5 3473.79 12671.5 3155.44 12630.3 2897.92" stroke="#263238" stroke-linecap="round" stroke-linejoin="round"/>
<path d="M11913.1 2343.05C11958.2 2325.55 12006.9 2318.89 12055.1 2323.57C12103.3 2328.26 12149.7 2344.17 12190.7 2370.04" stroke="#263238" stroke-linecap="round" stroke-linejoin="round"/>
<path d="M11590.8 2399.18C11599.1 2381.63 11613.3 2367.64 11631.1 2359.77C11648.8 2351.91 11668.7 2350.68 11687.3 2356.33" stroke="#263238" stroke-linecap="round" stroke-linejoin="round"/>
<path d="M11751.1 2494.3C11751.1 2494.3 11619.1 2734.67 11618.7 2768.95C11618.3 2803.23 11781.1 2814.8 11781.1 2814.8" fill="white"/>
<path d="M11751.1 2494.3C11751.1 2494.3 11619.1 2734.67 11618.7 2768.95C11618.3 2803.23 11781.1 2814.8 11781.1 2814.8" stroke="#263238" stroke-linecap="round" stroke-linejoin="round"/>
<path d="M12034.7 2543.15C12034.7 2569.28 12023.2 2590.71 12006.9 2591.56C11990.6 2592.42 11976.9 2571 11976 2544.86C11975.2 2518.72 11987.6 2497.3 12003.9 2496.87C12020.2 2496.44 12033.9 2517.86 12034.7 2543.15Z" fill="#263238"/>
<path d="M11848.4 2989.62C11848.4 2989.62 12101.6 2942.05 12148.3 2852.93" stroke="#263238" stroke-linecap="round" stroke-linejoin="round"/>
<path d="M11589.1 2028.97L11786.2 1971.56C11786.2 1971.56 12062.6 1843.02 12121.3 1861.01C12180 1879.01 12299.1 2061.97 12295.3 2166.51C12295.3 2166.51 12481.2 2330.19 12504.8 2567.57L12561.3 2541.86C12561.3 2541.86 12558.3 2327.62 12680 2333.19C12801.7 2338.76 12856.6 2484.44 12848.4 2530.29C12840.3 2576.14 12707 2766.38 12707 2766.38C12707 2766.38 13012.1 2720.96 13022 2123.67C13031.8 1526.37 12377.1 1429.11 12058.7 1453.53C11897.5 1468.97 11735.6 1474.98 11573.7 1471.53L11591.7 1642.92L11463.2 1676.77L11560 1795.45L11453.7 1843.87L11589.1 2028.97Z" fill="#263238"/>
<path d="M12692.9 8541.8C12692.9 8541.8 13468.4 8747.04 13678.4 9324.63" stroke="white" stroke-linecap="round" stroke-linejoin="round"/>
<path d="M13048.1 8852.45C13048.1 8852.45 12629 9550.44 11987.6 9912.93" stroke="white" stroke-linecap="round" stroke-linejoin="round"/>
<path d="M12458.9 12777.7C12458.9 12777.7 12697.2 12724.2 12762.3 12631.6" stroke="white" stroke-linecap="round" stroke-linejoin="round"/>
<path d="M13785.5 12866.4C13785.5 12866.4 14018.6 12745.6 14250.8 12866.4" stroke="white" stroke-linecap="round" stroke-linejoin="round"/>
<path d="M14540 9616.85C14540 9616.85 14148.8 10630.2 13950.9 10724" stroke="white" stroke-linecap="round" stroke-linejoin="round"/>
<path d="M12827 8029.78C12837.7 8139.89 13298.3 8650.21 13678.4 8852.45" stroke="white" stroke-linecap="round" stroke-linejoin="round"/>
<path d="M13219.9 7599.16C13275.4 7735.79 13286.9 7886.29 13252.9 8029.78C13215.9 8153.62 13215.9 8285.56 13252.9 8409.41" stroke="white" stroke-linecap="round" stroke-linejoin="round"/>
<path d="M12381.8 5491.91C12381.8 5491.91 13102.9 6425.13 13878 6731.49" stroke="#263238" stroke-linecap="round" stroke-linejoin="round"/>
<path d="M13128.2 3983.25C13128.2 3983.25 13125.6 4617.82 13583.3 4904.05" stroke="#263238" stroke-linecap="round" stroke-linejoin="round"/>
<path d="M13385.7 4909.19C13288.9 5004.31 13394.3 6198.04 13394.3 6198.04C13394.3 6198.04 12831.7 6418.28 12655.6 6560.11C12479.5 6701.93 11645.3 7027.57 11645.3 7027.57C11645.3 7027.57 11516.7 7465.48 11677 7480.47C11837.2 7495.47 13496.7 6929.88 13876.3 6731.5C13876.3 6731.5 14123.6 5274.68 14121.8 4904.05" fill="white"/>
<path d="M13385.7 4909.19C13288.9 5004.31 13394.3 6198.04 13394.3 6198.04C13394.3 6198.04 12831.7 6418.28 12655.6 6560.11C12479.5 6701.93 11645.3 7027.57 11645.3 7027.57C11645.3 7027.57 11516.7 7465.48 11677 7480.47C11837.2 7495.47 13496.7 6929.88 13876.3 6731.5C13876.3 6731.5 14123.6 5274.68 14121.8 4904.05" stroke="#263238" stroke-linecap="round" stroke-linejoin="round"/>
<path d="M11711.2 7001.43C11634.1 6986.87 11497 6936.31 11425 6953.02C11353 6969.73 11221.5 7049 11086.1 7081.56C10950.7 7114.12 11006.8 7167.25 11086.1 7183.11C11144.1 7192.77 11203.3 7192.77 11261.3 7183.11L11151.2 7290.65C11088.2 7324.79 11023.1 7354.98 10956.3 7381.06C10916.4 7381.06 10775.5 7419.2 10784.9 7479.19C10794.3 7539.17 10875.3 7532.32 10965.7 7535.74C10965.7 7535.74 10821.7 7564.45 10837.2 7646.29C10846.6 7702.42 11008.5 7651.86 11091.2 7651.86C11091.2 7651.86 11023.5 7725.56 11074.1 7748.27C11124.7 7770.98 11236.9 7714.42 11236.9 7714.42C11236.9 7714.42 11232.6 7775.26 11283.2 7781.26C11333.8 7787.26 11461 7738.41 11547.6 7686.14C11632.8 7631.21 11714.4 7570.81 11791.8 7505.32C11824.6 7475.37 11862.1 7451.05 11902.8 7433.34" fill="white"/>
<path d="M11711.2 7001.43C11634.1 6986.87 11497 6936.31 11425 6953.02C11353 6969.73 11221.5 7049 11086.1 7081.56C10950.7 7114.12 11006.8 7167.25 11086.1 7183.11C11144.1 7192.77 11203.3 7192.77 11261.3 7183.11L11151.2 7290.65C11088.2 7324.79 11023.1 7354.98 10956.3 7381.06C10916.4 7381.06 10775.5 7419.2 10784.9 7479.19C10794.3 7539.17 10875.3 7532.32 10965.7 7535.74C10965.7 7535.74 10821.7 7564.45 10837.2 7646.29C10846.6 7702.42 11008.5 7651.86 11091.2 7651.86C11091.2 7651.86 11023.5 7725.56 11074.1 7748.27C11124.7 7770.98 11236.9 7714.42 11236.9 7714.42C11236.9 7714.42 11232.6 7775.26 11283.2 7781.26C11333.8 7787.26 11461 7738.41 11547.6 7686.14C11632.8 7631.21 11714.4 7570.81 11791.8 7505.32C11824.6 7475.37 11862.1 7451.05 11902.8 7433.34" stroke="#263238" stroke-linecap="round" stroke-linejoin="round"/>
<path d="M10967.8 7537.46C11007.6 7535.31 11047.3 7530.73 11086.5 7523.75C11120.4 7515.18 11154.2 7504.04 11154.2 7504.04" stroke="#263238" stroke-linecap="round" stroke-linejoin="round"/>
<path d="M11091.7 7653.57C11143.4 7646.3 11193.3 7629.13 11238.6 7603.01" stroke="#263238" stroke-linecap="round" stroke-linejoin="round"/>
<path d="M11237.4 7716.13C11275.7 7711.31 11312.3 7697.67 11344.5 7676.28" stroke="#263238" stroke-linecap="round" stroke-linejoin="round"/>
<path d="M11164.9 7323.22C11164.9 7323.22 11134.1 7393.92 11164.9 7433.34C11195.8 7472.76 11233.1 7476.18 11238.6 7519.03C11244.2 7561.88 11317.9 7561.88 11344.5 7589.73C11371 7617.58 11391.2 7671.14 11476 7675.43" stroke="#263238" stroke-linecap="round" stroke-linejoin="round"/>
<path d="M13349.7 3671.32C13057.9 4331.6 13349.7 5247.68 13349.7 5247.68C13349.7 5247.68 14055.9 5487.63 14121 5384.37C14186.1 5281.1 14305.2 4774.65 14325.4 4540.7" fill="#999999"/>
<path d="M13349.7 3671.32C13057.9 4331.6 13349.7 5247.68 13349.7 5247.68C13349.7 5247.68 14055.9 5487.63 14121 5384.37C14186.1 5281.1 14305.2 4774.65 14325.4 4540.7" stroke="#263238" stroke-linecap="round" stroke-linejoin="round"/>
<path d="M14121.8 4613.97C14121.8 4613.97 13821.9 5026.59 13583.3 5032.16" stroke="#263238" stroke-linecap="round" stroke-linejoin="round"/>
<path d="M3401.38 14987.4C3401.38 14987.4 3328.11 14707.6 3413.81 14603.9C3567.2 14417.9 3394.96 14261.1 3549.21 14197.3L3613.91 14272.2C3626.33 14196.4 3590.34 13964.6 3876.56 13934.6C4222.77 13898.2 4229.2 14148.8 4248.05 14234.5L4242.05 14118.4C4389.88 14118.4 4313.18 14265.8 4536.84 14506.6C4595.48 14571.6 4640.12 14648 4667.98 14731C4695.84 14814 4706.34 14901.9 4698.81 14989.1L3401.38 14987.4Z" fill="#263238"/>
<path d="M6040.37 14987.4C5901.11 14925.2 6028.8 14399.9 6028.8 14399.9C6028.8 14399.9 5841.55 14274.4 6028.8 14142.8C6101.22 14204.2 6189.02 14244.6 6282.74 14259.7C6376.45 14274.8 6472.51 14264 6560.54 14228.5C6560.54 14228.5 6596.96 13877.2 6817.62 13922.2C6817.62 13922.2 6874.18 14145 7003.15 14272.2C7352.36 14615 7803.54 14657.9 7878.96 14822.4C7901.67 14872.1 7874.24 14985.7 7874.24 14985.7L6040.37 14987.4Z" fill="#263238"/>
<path d="M5445.21 6609.81L5616.6 6973.16C5616.6 6973.16 6325.3 8437.69 6759.35 10114.7C6769.63 10154.6 6994.15 10949 6814.19 12927.3L6917.03 13274.3L6804.77 13847.6C6804.77 13847.6 6973.59 14091.4 6967.59 14171.1C6967.59 14171.1 6551.11 14248.7 6410.57 14323.2C6302.59 14381.5 5978.24 14701.6 5978.24 14701.6C5886.12 14682.7 5877.97 14310.8 5877.97 14310.8C5877.97 14310.8 5685.59 11008.5 5630.32 10866.3C5575.04 10724 5237.4 10110.5 4710.38 8706.34C4710.38 8706.34 4698.38 10667.5 4557.84 11163.6C4432.3 11605 4580.98 12840.3 4580.98 12840.3L4495.28 14215.3C4495.28 14215.3 4791.79 14523.3 4551.41 14606C4551.41 14606 4390.74 14297.1 3933.12 14226.8C3700.46 14190.8 3410.81 14603.9 3410.81 14603.9C3308.83 14571.3 3453.66 14052.4 3453.66 14052.4C3129.3 11605 3367.96 12048 3303.69 10851.7C3260.84 10083.9 3044.46 6799.19 3299.84 6532.25L5445.21 6609.81Z" fill="#BFBFBF"/>
<mask id="mask6_0_1" style="mask-type:luminance" maskUnits="userSpaceOnUse" x="3177" y="6532" width="3791" height="8170">
<path d="M5445.21 6609.81L5616.6 6973.16C5616.6 6973.16 6325.3 8437.69 6759.35 10114.7C6769.63 10154.6 6994.15 10949 6814.19 12927.3L6917.03 13274.3L6804.77 13847.6C6804.77 13847.6 6973.59 14091.4 6967.59 14171.1C6967.59 14171.1 6551.11 14248.7 6410.57 14323.2C6302.59 14381.5 5978.24 14701.6 5978.24 14701.6C5886.12 14682.7 5877.97 14310.8 5877.97 14310.8C5877.97 14310.8 5685.59 11008.5 5630.32 10866.3C5575.04 10724 5237.4 10110.5 4710.38 8706.34C4710.38 8706.34 4698.38 10667.5 4557.84 11163.6C4432.3 11605 4580.98 12840.3 4580.98 12840.3L4495.28 14215.3C4495.28 14215.3 4791.79 14523.3 4551.41 14606C4551.41 14606 4390.74 14297.1 3933.12 14226.8C3700.46 14190.8 3410.81 14603.9 3410.81 14603.9C3308.83 14571.3 3453.66 14052.4 3453.66 14052.4C3129.3 11605 3367.96 12048 3303.69 10851.7C3260.84 10083.9 3044.46 6799.19 3299.84 6532.25L5445.21 6609.81Z" fill="white"/>
</mask>
<g mask="url(#mask6_0_1)">
<path opacity="0.2" d="M3180.72 7740.98C4326.46 7830.96 5318.38 7456.05 5749 7260.23C5667.16 7076.85 5617.03 6973.16 5617.03 6973.16L5445.64 6610.24L3303.26 6532.25C3212.43 6628.66 3180.29 7118.41 3180.72 7740.98Z" fill="black"/>
<path opacity="0.2" d="M4721.95 8731.62C5243.4 10117.7 5578.9 10724.5 5632.89 10865.9C5664.16 10948.1 5740.86 12069.4 5800.85 13010.4C5869.4 12153.4 5940.1 11250.6 5946.1 11073.7C5958.96 10720.6 5704.01 10236.9 5665.88 10111.7C5627.74 9986.63 5713.87 9851.23 5713.87 9851.23L5255.4 9272.78C5270.82 9076.54 5027.88 8220.02 5027.88 8220.02C4883.48 8356.7 4754.94 8647.64 4721.95 8731.62Z" fill="black"/>
</g>
<path d="M5445.21 6609.81L5616.6 6973.16C5616.6 6973.16 6325.3 8437.69 6759.35 10114.7C6769.63 10154.6 6994.15 10949 6814.19 12927.3L6917.03 13274.3L6804.77 13847.6C6804.77 13847.6 6973.59 14091.4 6967.59 14171.1C6967.59 14171.1 6551.11 14248.7 6410.57 14323.2C6302.59 14381.5 5978.24 14701.6 5978.24 14701.6C5886.12 14682.7 5877.97 14310.8 5877.97 14310.8C5877.97 14310.8 5685.59 11008.5 5630.32 10866.3C5575.04 10724 5237.4 10110.5 4710.38 8706.34C4710.38 8706.34 4698.38 10667.5 4557.84 11163.6C4432.3 11605 4580.98 12840.3 4580.98 12840.3L4495.28 14215.3C4495.28 14215.3 4791.79 14523.3 4551.41 14606C4551.41 14606 4390.74 14297.1 3933.12 14226.8C3700.46 14190.8 3410.81 14603.9 3410.81 14603.9C3308.83 14571.3 3453.66 14052.4 3453.66 14052.4C3129.3 11605 3367.96 12048 3303.69 10851.7C3260.84 10083.9 3044.46 6799.19 3299.84 6532.25L5445.21 6609.81Z" stroke="#263238" stroke-linecap="round" stroke-linejoin="round"/>
<path d="M4712.09 8706.34C4712.09 8706.34 4973.89 8201.17 5197.12 8060.2" stroke="#263238" stroke-linecap="round" stroke-linejoin="round"/>
<path d="M5295.67 7896.52C5295.67 7896.52 4500.42 8138.61 4224.48 8185.31" stroke="#263238" stroke-linecap="round" stroke-linejoin="round"/>
<path d="M4888.62 7084.99C4922.9 7746.98 5156.42 7859.67 4931.47 8004.07C4931.47 8004.07 4937.9 8313.86 4825.64 8510.1" stroke="#263238" stroke-linecap="round" stroke-linejoin="round"/>
<path d="M3495.22 6831.76C3495.22 6831.76 3589.06 7849.39 3275.84 8040.92" stroke="#263238" stroke-linecap="round" stroke-linejoin="round"/>
<path d="M3275.84 7159.97C3275.84 7159.97 3252.27 7837.39 3275.84 8383.27C3275.84 8383.27 3354.25 10690.6 3432.66 10980.3C3511.07 11269.9 3311.83 11708.7 3328.97 12960.7" stroke="#263238" stroke-linecap="round" stroke-linejoin="round"/>
<path d="M4026.53 13940.6C3952.38 13924.5 3874.93 13934.8 3807.58 13969.7" stroke="#263238" stroke-linecap="round" stroke-linejoin="round"/>
<path d="M4497.85 14215.3C4399.59 14119.6 4285.68 14041.5 4161.07 13984.3" stroke="#263238" stroke-linecap="round" stroke-linejoin="round"/>
<path d="M4369.31 8866.16C4193.64 9063.26 3915.13 9434.75 3629.76 9466.03" stroke="#263238" stroke-linecap="round" stroke-linejoin="round"/>
<path d="M4637.97 8545.66C4583.98 8613.79 4528.28 8680.63 4471.72 8747.04" stroke="#263238" stroke-linecap="round" stroke-linejoin="round"/>
<path d="M4387.74 10851.7C4387.74 10851.7 3988.4 11395.5 3769.45 11426.7" stroke="#263238" stroke-linecap="round" stroke-linejoin="round"/>
<path d="M4857.34 8608.22C4857.34 8608.22 5568.61 10589.1 5815.84 10784.4C5815.84 10784.4 5843.7 12241.3 5851.84 12749.9C5859.98 13258.5 5976.95 13934.6 5976.95 13934.6" stroke="#263238" stroke-linecap="round" stroke-linejoin="round"/>
<path d="M6736.21 13920C6736.21 13920 6462.42 14014.7 6329.16 14075.1C6247.34 14115.1 6183.22 14183.9 6149.2 14268.4" stroke="#263238" stroke-linecap="round" stroke-linejoin="round"/>
<path d="M6043.37 10070.2C5661.6 9830.66 5158.14 9531.15 4955.04 9109.11" stroke="#263238" stroke-linecap="round" stroke-linejoin="round"/>
<path d="M6376.29 10267.7C6303.88 10227.9 6232.75 10186.3 6162.05 10143.4" stroke="#263238" stroke-linecap="round" stroke-linejoin="round"/>
<path d="M5173.13 7352.78C4967.89 7349.78 4744.66 7322.79 4567.7 7206.67" stroke="#263238" stroke-linecap="round" stroke-linejoin="round"/>
<path d="M5499.2 7333.5C5440.5 7341.64 5381.37 7346.78 5322.24 7349.78" stroke="#263238" stroke-linecap="round" stroke-linejoin="round"/>
<path d="M5880.12 2784.8C5723.29 2547.43 4924.19 2487.01 4411.3 2487.01C3898.42 2487.01 3275.84 2401.32 2994.76 2979.76C2780.52 3421.52 3274.13 5757.57 3274.13 5757.57L3153.3 6766.2C4082.23 7057.57 5673.59 6993.29 5673.59 6993.29L5459.35 6081.5C5459.35 6081.5 6036.94 3021.75 5880.12 2784.8Z" fill="#263238"/>
<path d="M4106.65 1900.43C4106.65 1900.43 4175.64 2450.16 3966.54 2568.85C3966.54 2568.85 4071.09 2972.05 4437.87 2997.33C4804.64 3022.61 4966.61 2628.84 4966.61 2628.84L4106.65 1900.43Z" fill="white" stroke="#263238" stroke-linecap="round" stroke-linejoin="round"/>
<path d="M6050.39 488.943L6989.05 402.362C7010.32 400.4 7031.5 406.969 7047.93 420.624C7064.36 434.279 7074.7 453.902 7076.66 475.176L7138.45 1145.04L6041.07 1246.26L5979.28 576.397C5977.34 555.416 5983.7 534.511 5996.99 518.162C6010.28 501.814 6029.45 491.325 6050.39 488.943Z" fill="#598800"/>
<mask id="mask7_0_1" style="mask-type:luminance" maskUnits="userSpaceOnUse" x="5978" y="402" width="1161" height="845">
<path d="M6050.39 488.942L6989.05 402.361C7010.32 400.399 7031.5 406.968 7047.93 420.623C7064.36 434.278 7074.7 453.901 7076.66 475.175L7138.45 1145.04L6041.07 1246.26L5979.28 576.396C5977.34 555.415 5983.7 534.51 5996.99 518.161C6010.28 501.813 6029.45 491.324 6050.39 488.942Z" fill="white"/>
</mask>
<g mask="url(#mask7_0_1)">
<path opacity="0.3" d="M6050.39 488.942L6989.05 402.361C7010.32 400.399 7031.5 406.968 7047.93 420.623C7064.36 434.278 7074.7 453.901 7076.66 475.175L7138.45 1145.04L6041.07 1246.26L5979.28 576.396C5977.34 555.415 5983.7 534.51 5996.99 518.161C6010.28 501.813 6029.45 491.324 6050.39 488.942Z" fill="black" fill-opacity="0.7"/>
<path opacity="0.3" d="M7016.4 470.12L6746.32 495.032L6796.14 1035.19L7066.22 1010.28L7016.4 470.12Z" fill="white" fill-opacity="0.7"/>
</g>
<path d="M6050.39 488.943L6989.05 402.362C7010.32 400.4 7031.5 406.969 7047.93 420.624C7064.36 434.279 7074.7 453.902 7076.66 475.176L7138.45 1145.04L6041.07 1246.26L5979.28 576.397C5977.34 555.416 5983.7 534.511 5996.99 518.162C6010.28 501.814 6029.45 491.325 6050.39 488.943Z" stroke="#263238" stroke-linecap="round" stroke-linejoin="round"/>
<path d="M7673.34 338.359L8612 251.778C8633.28 249.815 8654.46 256.385 8670.89 270.04C8687.32 283.695 8697.65 303.318 8699.62 324.592L8761.4 994.455L7662.32 1095.83L7600.53 425.971C7598.57 404.697 7605.13 383.515 7618.79 367.085C7632.45 350.654 7652.07 340.321 7673.34 338.359Z" fill="#598800"/>
<mask id="mask8_0_1" style="mask-type:luminance" maskUnits="userSpaceOnUse" x="7600" y="251" width="1162" height="845">
<path d="M7673.34 338.359L8612 251.778C8633.28 249.815 8654.46 256.385 8670.89 270.04C8687.32 283.695 8697.65 303.318 8699.62 324.592L8761.4 994.455L7662.32 1095.83L7600.53 425.971C7598.57 404.697 7605.13 383.515 7618.79 367.085C7632.45 350.654 7652.07 340.321 7673.34 338.359Z" fill="white"/>
</mask>
<g mask="url(#mask8_0_1)">
<path opacity="0.3" d="M7673.34 338.359L8612 251.778C8633.28 249.815 8654.46 256.385 8670.89 270.04C8687.32 283.695 8697.65 303.318 8699.62 324.592L8761.4 994.455L7662.32 1095.83L7600.53 425.971C7598.57 404.697 7605.13 383.515 7618.79 367.085C7632.45 350.654 7652.07 340.321 7673.34 338.359Z" fill="black" fill-opacity="0.7"/>
<path opacity="0.3" d="M8619.96 322.642L8456.97 337.676L8506.8 877.833L8669.78 862.8L8619.96 322.642Z" fill="white" fill-opacity="0.7"/>
</g>
<path d="M7673.34 338.359L8612 251.778C8633.28 249.815 8654.46 256.385 8670.89 270.04C8687.32 283.695 8697.65 303.318 8699.62 324.592L8761.4 994.455L7662.32 1095.83L7600.53 425.971C7598.57 404.697 7605.13 383.515 7618.79 367.085C7632.45 350.654 7652.07 340.321 7673.34 338.359Z" stroke="#263238" stroke-linecap="round" stroke-linejoin="round"/>
<path d="M7332.31 369.553L8270.97 282.971C8292.24 281.009 8313.43 287.578 8329.86 301.233C8346.29 314.889 8356.62 334.512 8358.58 355.785L8420.37 1025.65L7319.57 1127.19L7257.79 457.322C7256.8 446.643 7257.95 435.875 7261.18 425.648C7264.41 415.422 7269.65 405.943 7276.59 397.768C7283.53 389.593 7292.04 382.887 7301.6 378.042C7311.17 373.196 7321.61 370.31 7332.31 369.553Z" fill="#598800" stroke="#263238" stroke-linecap="round" stroke-linejoin="round"/>
<path d="M8953.64 219.98L9892.3 133.399C9913.57 131.436 9934.76 138.005 9951.19 151.661C9967.62 165.316 9977.95 184.939 9979.91 206.213L10041.7 876.076L8942.61 977.455L8880.82 307.592C8878.86 286.318 8885.43 265.136 8899.09 248.706C8912.74 232.275 8932.37 221.942 8953.64 219.98Z" fill="#598800" stroke="#263238" stroke-linecap="round" stroke-linejoin="round"/>
<path opacity="0.3" d="M8296.73 352.169L8026.65 377.081L8076.48 917.238L8346.55 892.326L8296.73 352.169Z" fill="white" fill-opacity="0.7"/>
<path opacity="0.3" d="M9900.26 203.815L9630.18 228.727L9680 768.884L9950.08 743.972L9900.26 203.815Z" fill="white" fill-opacity="0.7"/>
<path d="M10505.5 675.846L10790 3755.73L5826.13 4214.2L5543.33 1133.46C5538.57 1081.98 5554.44 1030.72 5587.47 990.945C5620.49 951.171 5667.96 926.142 5719.44 921.363L10293.8 499.314C10319.3 496.958 10345.1 499.66 10369.5 507.264C10394 514.868 10416.7 527.225 10436.3 543.626C10456 560.027 10472.2 580.15 10484.1 602.839C10496 625.529 10503.3 650.339 10505.5 675.846Z" fill="#598800"/>
<mask id="mask9_0_1" style="mask-type:luminance" maskUnits="userSpaceOnUse" x="5542" y="498" width="5249" height="3717">
<path d="M10505.5 675.846L10790 3755.73L5826.13 4214.2L5543.33 1133.46C5538.57 1081.98 5554.44 1030.72 5587.47 990.945C5620.49 951.171 5667.96 926.142 5719.44 921.363L10293.8 499.314C10319.3 496.958 10345.1 499.66 10369.5 507.264C10394 514.868 10416.7 527.225 10436.3 543.626C10456 560.027 10472.2 580.15 10484.1 602.839C10496 625.529 10503.3 650.339 10505.5 675.846Z" fill="white"/>
</mask>
<g mask="url(#mask9_0_1)">
<path opacity="0.3" d="M10505.5 675.846L10790 3755.73L5826.13 4214.2L5543.33 1133.46C5538.57 1081.98 5554.44 1030.72 5587.47 990.945C5620.49 951.171 5667.96 926.142 5719.44 921.363L10293.8 499.314C10319.3 496.958 10345.1 499.66 10369.5 507.264C10394 514.868 10416.7 527.225 10436.3 543.626C10456 560.027 10472.2 580.15 10484.1 602.839C10496 625.529 10503.3 650.339 10505.5 675.846Z" fill="black" fill-opacity="0.7"/>
</g>
<path d="M10505.5 675.846L10790 3755.73L5826.13 4214.2L5543.33 1133.46C5538.57 1081.98 5554.44 1030.72 5587.47 990.945C5620.49 951.171 5667.96 926.142 5719.44 921.363L10293.8 499.314C10319.3 496.958 10345.1 499.66 10369.5 507.264C10394 514.868 10416.7 527.225 10436.3 543.626C10456 560.027 10472.2 580.15 10484.1 602.839C10496 625.529 10503.3 650.339 10505.5 675.846Z" stroke="#263238" stroke-linecap="round" stroke-linejoin="round"/>
<path d="M10505.5 675.846L10790 3755.73L7105.13 4095.51L6821.05 1015.63C6816.28 964.151 6832.16 912.888 6865.18 873.114C6898.21 833.34 6945.68 808.311 6997.15 803.532L10291.7 499.314C10317.4 496.658 10343.3 499.135 10368 506.602C10392.7 514.068 10415.7 526.374 10435.6 542.803C10455.5 559.233 10471.9 579.457 10483.9 602.298C10495.9 625.139 10503.3 650.14 10505.5 675.846Z" fill="#598800" stroke="#263238" stroke-linecap="round" stroke-linejoin="round"/>
<path opacity="0.3" d="M10266.9 808.246L7118.84 1098.75C7097.88 1100.19 7077.19 1093.37 7061.18 1079.76C7045.17 1066.16 7035.11 1046.83 7033.15 1025.91C7031.59 1004.99 7038.31 984.298 7051.85 968.276C7065.39 952.253 7084.67 942.179 7105.56 940.217L10253.6 649.71C10274.5 648.277 10295.2 655.091 10311.2 668.699C10327.2 682.307 10337.3 701.632 10339.3 722.551C10340.6 743.421 10333.8 763.997 10320.3 779.97C10306.8 795.943 10287.7 806.076 10266.9 808.246Z" fill="white" fill-opacity="0.7"/>
<path d="M4735.23 810.388C4735.23 810.388 4008.96 664.706 3927.55 1132.17C3846.14 1599.64 4112.23 1798.45 4112.23 1798.45L4735.23 810.388Z" fill="#263238"/>
<path d="M4112.22 2055.11C4029.23 1822.73 4016.27 1571.1 4074.95 1331.41C4146.07 1031.48 4503.42 618.859 5045.44 993.776C5324.38 1187.02 5341.52 1606.5 5254.54 1990.41C5233.97 2082.1 5249.4 2171.66 5218.98 2256.07C5111.86 2551.71 4916.04 2779.23 4808.93 2784.38C4630.25 2793.37 4272.9 2576.99 4287.47 2388.46" fill="white"/>
<path d="M4112.22 2055.11C4029.23 1822.73 4016.27 1571.1 4074.95 1331.41C4146.07 1031.48 4503.42 618.859 5045.44 993.776C5324.38 1187.02 5341.52 1606.5 5254.54 1990.41C5233.97 2082.1 5249.4 2171.66 5218.98 2256.07C5111.86 2551.71 4916.04 2779.23 4808.93 2784.38C4630.25 2793.37 4272.9 2576.99 4287.47 2388.46" stroke="#263238" stroke-linecap="round" stroke-linejoin="round"/>
<path d="M4835.92 1919.28C4835.92 1919.28 4691.53 1814.73 4552.7 1900.43" stroke="#263238" stroke-linecap="round" stroke-linejoin="round"/>
<path d="M5108.43 1900.43C5108.43 1900.43 5217.69 1800.17 5288.82 1814.73" stroke="#263238" stroke-linecap="round" stroke-linejoin="round"/>
<path d="M4631.96 2079.53C4631.96 2106.1 4645.25 2127.95 4661.96 2127.95C4678.67 2127.95 4692.38 2106.1 4692.38 2079.53C4692.38 2052.97 4678.67 2031.54 4661.96 2031.54C4645.25 2031.54 4631.96 2052.97 4631.96 2079.53Z" fill="#263238"/>
<path d="M5108.43 2100.96C5125.23 2100.96 5138.85 2079.47 5138.85 2052.97C5138.85 2026.46 5125.23 2004.98 5108.43 2004.98C5091.63 2004.98 5078.01 2026.46 5078.01 2052.97C5078.01 2079.47 5091.63 2100.96 5108.43 2100.96Z" fill="#263238"/>
<path d="M5047.16 2001.55C4994.03 2070.96 5068.58 2335.33 5047.16 2354.19C5025.73 2373.04 4889.48 2319.48 4889.48 2319.48C4889.48 2319.48 4857.77 2279.2 4924.19 2257.78" stroke="#263238" stroke-linecap="round" stroke-linejoin="round"/>
<path d="M4926.33 2487.01C4926.33 2487.01 4743.37 2487.01 4694.52 2420.17" stroke="#263238" stroke-linecap="round" stroke-linejoin="round"/>
<path d="M4488.43 1496.81L4474.29 1717.9C4474.29 1717.9 4317.47 1798.88 4278.05 1881.15C4254.59 1935.03 4246.01 1994.22 4253.2 2052.54C4253.2 2052.54 4158.07 1886.29 4106.66 1900C4088.23 1904.72 4088.23 1974.56 4088.23 1974.56C4088.23 1974.56 3874 1496.38 4067.67 1243.58C4261.34 990.777 4488.43 1496.81 4488.43 1496.81Z" fill="#757575" stroke="#263238" stroke-linecap="round" stroke-linejoin="round"/>
<path d="M4186.35 2004.98C4186.35 2004.98 4143.51 1844.3 3999.11 1801.88C3854.71 1759.46 3953.69 2144.66 4076.66 2194.79C4199.64 2244.92 4230.49 2280.49 4237.77 2234.64" fill="white"/>
<path d="M4186.35 2004.98C4186.35 2004.98 4143.51 1844.3 3999.11 1801.88C3854.71 1759.46 3953.69 2144.66 4076.66 2194.79C4199.64 2244.92 4230.49 2280.49 4237.77 2234.64" stroke="#263238" stroke-linecap="round" stroke-linejoin="round"/>
<path d="M3989.68 1468.96C3977.69 1452.67 3924.55 1040.48 4196.64 855.378C4468.72 670.277 4928.47 689.987 5221.12 946.215C5513.77 1202.44 5430.65 1646.77 5221.12 1798.45V1612.92C5221.12 1612.92 5124.72 1798.88 4835.49 1814.31L4923.76 1678.05C4923.76 1678.05 4781.51 1763.75 4530.85 1756.46C4530.85 1756.46 4648.68 1662.63 4631.54 1579.07C4631.97 1579.07 4233.91 1803.17 3989.68 1468.96Z" fill="#263238"/>
<path d="M4040.67 2954.91C3840.14 2978.9 3554.78 3240.7 3740.74 3705.6C3859.42 4000.39 4834.64 3825.14 4834.64 3825.14C5196.27 3676.03 5724.58 3139.58 6112.35 2890.64C6112.35 2890.64 6030.51 2376.47 5936.25 2449.31C5497.92 2784.8 5137.57 2807.94 4526.13 3101.87C4527.42 3100.16 4166.64 2939.91 4040.67 2954.91Z" fill="white" stroke="#263238" stroke-linecap="round" stroke-linejoin="round"/>
<path d="M4488.43 3525.64C4482.43 3717.6 4561.27 3751.45 4694.1 3796.86Z" fill="white"/>
<path d="M4488.43 3525.64C4482.43 3717.6 4561.27 3751.45 4694.1 3796.86" stroke="#263238" stroke-linecap="round" stroke-linejoin="round"/>
<path d="M5907.11 2487.01C5916.11 2459.16 6078.5 2173.8 6124.35 2101.39C6170.19 2028.97 6375.01 1963.42 6454.27 1919.71C6533.54 1876.01 6539.97 1809.59 6582.82 1857.15C6625.66 1904.72 6582.82 2013.12 6345.44 2128.38C6429.79 2133.04 6514.32 2133.04 6598.67 2128.38C6662.08 2118.95 6718.64 2061.54 6746.92 2101.39C6775.2 2141.23 6780.77 2212.79 6639.37 2256.49C6572.13 2280.87 6501.69 2295.3 6430.28 2299.34C6499.46 2314.12 6567.48 2333.88 6633.8 2358.47C6656.51 2375.18 6690.36 2414.17 6724.21 2420.17C6758.06 2426.17 6794.91 2463.02 6732.78 2505.87C6710.75 2518.05 6686.07 2524.65 6660.9 2525.09C6635.73 2525.54 6610.84 2519.82 6588.39 2508.44C6588.39 2508.44 6752.49 2587.71 6701.5 2636.98C6650.51 2686.25 6487.27 2676.4 6487.27 2676.4C6487.27 2676.4 6245.18 2971.62 6040.37 2909.92" fill="white"/>
<path d="M5907.11 2487.01C5916.11 2459.16 6078.5 2173.8 6124.35 2101.39C6170.19 2028.97 6375.01 1963.42 6454.27 1919.71C6533.54 1876.01 6539.97 1809.59 6582.82 1857.15C6625.66 1904.72 6582.82 2013.12 6345.44 2128.38C6429.79 2133.04 6514.32 2133.04 6598.67 2128.38C6662.08 2118.95 6718.64 2061.54 6746.92 2101.39C6775.2 2141.23 6780.77 2212.79 6639.37 2256.49C6572.13 2280.87 6501.69 2295.3 6430.28 2299.34C6499.46 2314.12 6567.48 2333.88 6633.8 2358.47C6656.51 2375.18 6690.36 2414.17 6724.21 2420.17C6758.06 2426.17 6794.91 2463.02 6732.78 2505.87C6710.75 2518.05 6686.07 2524.65 6660.9 2525.09C6635.73 2525.54 6610.84 2519.82 6588.39 2508.44C6588.39 2508.44 6752.49 2587.71 6701.5 2636.98C6650.51 2686.25 6487.27 2676.4 6487.27 2676.4C6487.27 2676.4 6245.18 2971.62 6040.37 2909.92" stroke="#263238" stroke-linecap="round" stroke-linejoin="round"/>
<path d="M6197.19 2100.96C6211.04 2104.17 6223.74 2111.16 6233.87 2121.14C6244 2131.12 6251.18 2143.71 6254.6 2157.52C6268.74 2208.08 6310.3 2211.08 6335.59 2267.63C6360.87 2324.19 6353.58 2411.6 6378.43 2441.6C6403.28 2471.59 6378.43 2597.99 6378.43 2597.99" stroke="#263238" stroke-linecap="round" stroke-linejoin="round"/>
<path d="M4082.66 2918.49C3977.68 2784.8 3742.02 2845.22 3742.02 2845.22" stroke="white" stroke-linecap="round" stroke-linejoin="round"/>
<path d="M3613.48 2598.85C3613.48 2598.85 3856 2634.41 3927.55 2836.22" stroke="white" stroke-linecap="round" stroke-linejoin="round"/>
<path d="M4040.67 3876.56C4040.67 3876.56 3804.15 4059.52 3444.23 3796.86" stroke="white" stroke-linecap="round" stroke-linejoin="round"/>
<path d="M3742.02 3931.83C3742.02 3931.83 3622.05 4097.65 3329.83 4095.51" stroke="white" stroke-linecap="round" stroke-linejoin="round"/>
<path d="M5245.12 6018.08C5245.12 6018.08 4626.4 6511.26 3997.82 6446.56" stroke="white" stroke-linecap="round" stroke-linejoin="round"/>
<path d="M3572.77 4934.47C3572.77 4934.47 4532.99 5638.88 5243.83 5683.87" stroke="white" stroke-linecap="round" stroke-linejoin="round"/>
<path d="M3598.05 10149C3763.23 10057.4 3957.43 10033.1 4140.08 10081.3C4453.29 10160.2 5266.97 11323.9 5380.09 11437.4C5493.2 11551 5704.87 11608.8 5899.83 11814.1C6208.33 12135.9 6656.94 12420.4 6702.36 12420.4C6747.78 12420.4 6784.2 12392.1 6840.76 12380.9C6897.32 12369.8 7335.22 12330 7335.22 12330C7335.22 12330 7482.19 12362.5 7335.22 12425.5C7188.25 12488.5 7199.39 12544.6 7199.39 12544.6C7199.39 12544.6 7169.83 12592.2 7228.96 12637.6C7288.09 12683 7322.79 12658.2 7407.2 12777.7C7491.61 12897.3 7288.09 12829.6 7288.09 12829.6C7288.09 12829.6 7333.08 12958.1 7242.67 12945.3C7152.26 12932.4 7231.53 13070.8 7084.56 13051.9C6937.59 13033.1 6623.09 12834.7 6544.25 12626.9C6544.25 12626.9 5261.4 12013.7 5069.44 11855.6C4877.48 11697.5 4069.38 10849.6 4014.1 10838.4" fill="#263238"/>
<path d="M6954.31 11297.3H7896.95C7918.32 11297.3 7938.81 11305.8 7953.91 11320.9C7969.02 11336 7977.51 11356.5 7977.51 11377.9V12050.6H6873.75V11377.9C6873.75 11356.5 6882.24 11336 6897.35 11320.9C6912.45 11305.8 6932.94 11297.3 6954.31 11297.3Z" fill="#598800"/>
<mask id="mask10_0_1" style="mask-type:luminance" maskUnits="userSpaceOnUse" x="6873" y="11297" width="1105" height="754">
<path d="M6954.31 11297.3H7896.95C7918.32 11297.3 7938.81 11305.8 7953.91 11320.9C7969.02 11336 7977.51 11356.5 7977.51 11377.9V12050.6H6873.75V11377.9C6873.75 11356.5 6882.24 11336 6897.35 11320.9C6912.45 11305.8 6932.94 11297.3 6954.31 11297.3Z" fill="white"/>
</mask>
<g mask="url(#mask10_0_1)">
<path opacity="0.3" d="M6954.31 11297.3H7896.95C7918.32 11297.3 7938.81 11305.8 7953.91 11320.9C7969.02 11336 7977.51 11356.5 7977.51 11377.9V12050.6H6873.75V11377.9C6873.75 11356.5 6882.24 11336 6897.35 11320.9C6912.45 11305.8 6932.94 11297.3 6954.31 11297.3Z" fill="black" fill-opacity="0.7"/>
<path opacity="0.3" d="M7916.24 11368.5H7645.01V11910.9H7916.24V11368.5Z" fill="white" fill-opacity="0.7"/>
</g>
<path d="M6954.31 11297.3H7896.95C7918.32 11297.3 7938.81 11305.8 7953.91 11320.9C7969.02 11336 7977.51 11356.5 7977.51 11377.9V12050.6H6873.75V11377.9C6873.75 11356.5 6882.24 11336 6897.35 11320.9C6912.45 11305.8 6932.94 11297.3 6954.31 11297.3Z" stroke="#263238" stroke-linecap="round" stroke-linejoin="round"/>
<path d="M8582.51 11297.3H9525.16C9546.52 11297.3 9567.01 11305.8 9582.12 11320.9C9597.23 11336 9605.71 11356.5 9605.71 11377.9V12050.6H8501.96V11377.9C8501.96 11367.3 8504.04 11356.8 8508.09 11347.1C8512.14 11337.3 8518.07 11328.4 8525.55 11320.9C8533.03 11313.4 8541.91 11307.5 8551.69 11303.5C8561.46 11299.4 8571.94 11297.3 8582.51 11297.3Z" fill="#598800"/>
<mask id="mask11_0_1" style="mask-type:luminance" maskUnits="userSpaceOnUse" x="8501" y="11297" width="1105" height="754">
<path d="M8582.51 11297.3H9525.16C9546.52 11297.3 9567.01 11305.8 9582.12 11320.9C9597.23 11336 9605.71 11356.5 9605.71 11377.9V12050.6H8501.96V11377.9C8501.96 11367.3 8504.04 11356.8 8508.09 11347.1C8512.14 11337.3 8518.07 11328.4 8525.55 11320.9C8533.03 11313.4 8541.91 11307.5 8551.69 11303.5C8561.46 11299.4 8571.94 11297.3 8582.51 11297.3Z" fill="white"/>
</mask>
<g mask="url(#mask11_0_1)">
<path opacity="0.3" d="M8582.51 11297.3H9525.16C9546.52 11297.3 9567.01 11305.8 9582.12 11320.9C9597.23 11336 9605.71 11356.5 9605.71 11377.9V12050.6H8501.96V11377.9C8501.96 11367.3 8504.04 11356.8 8508.09 11347.1C8512.14 11337.3 8518.07 11328.4 8525.55 11320.9C8533.03 11313.4 8541.91 11307.5 8551.69 11303.5C8561.46 11299.4 8571.94 11297.3 8582.51 11297.3Z" fill="black" fill-opacity="0.7"/>
<path opacity="0.3" d="M9526.45 11368.5H9362.77V11910.9H9526.45V11368.5Z" fill="white" fill-opacity="0.7"/>
</g>
<path d="M8582.51 11297.3H9525.16C9546.52 11297.3 9567.01 11305.8 9582.12 11320.9C9597.23 11336 9605.71 11356.5 9605.71 11377.9V12050.6H8501.96V11377.9C8501.96 11367.3 8504.04 11356.8 8508.09 11347.1C8512.14 11337.3 8518.07 11328.4 8525.55 11320.9C8533.03 11313.4 8541.91 11307.5 8551.69 11303.5C8561.46 11299.4 8571.94 11297.3 8582.51 11297.3Z" stroke="#263238" stroke-linecap="round" stroke-linejoin="round"/>
<path d="M8239.73 11297.3H9182.38C9203.74 11297.3 9224.23 11305.8 9239.34 11320.9C9254.45 11336 9262.93 11356.5 9262.93 11377.9V12050.6H8159.18V11377.9C8159.18 11367.3 8161.26 11356.8 8165.31 11347.1C8169.36 11337.3 8175.29 11328.4 8182.77 11320.9C8190.25 11313.4 8199.13 11307.5 8208.91 11303.5C8218.68 11299.4 8229.15 11297.3 8239.73 11297.3Z" fill="#598800" stroke="#263238" stroke-linecap="round" stroke-linejoin="round"/>
<path d="M9867.94 11297.3H10810.6C10832 11297.3 10852.4 11305.8 10867.6 11320.9C10882.7 11336 10891.1 11356.5 10891.1 11377.9V12050.6H9787.39V11377.9C9787.39 11356.5 9795.88 11336 9810.98 11320.9C9826.09 11305.8 9846.58 11297.3 9867.94 11297.3Z" fill="#598800" stroke="#263238" stroke-linecap="round" stroke-linejoin="round"/>
<path opacity="0.3" d="M9201.66 11368.5H8930.44V11910.9H9201.66V11368.5Z" fill="white" fill-opacity="0.7"/>
<path opacity="0.3" d="M10811.9 11368.5H10540.6V11910.9H10811.9V11368.5Z" fill="white" fill-opacity="0.7"/>
<path d="M11371.5 11893.8V14986.9H6387.86V11893.8C6387.86 11842.1 6408.4 11792.5 6444.96 11755.9C6481.52 11719.4 6531.11 11698.8 6582.82 11698.8H11176.5C11228.2 11698.8 11277.8 11719.4 11314.4 11755.9C11350.9 11792.5 11371.5 11842.1 11371.5 11893.8Z" fill="#598800"/>
<mask id="mask12_0_1" style="mask-type:luminance" maskUnits="userSpaceOnUse" x="6387" y="11698" width="4985" height="3289">
<path d="M11371.5 11893.8V14986.9H6387.86V11893.8C6387.86 11842.1 6408.4 11792.5 6444.96 11755.9C6481.52 11719.4 6531.11 11698.8 6582.82 11698.8H11176.5C11228.2 11698.8 11277.8 11719.4 11314.4 11755.9C11350.9 11792.5 11371.5 11842.1 11371.5 11893.8Z" fill="white"/>
</mask>
<g mask="url(#mask12_0_1)">
<path opacity="0.3" d="M11371.5 11893.8V14986.9H6387.86V11893.8C6387.86 11842.1 6408.4 11792.5 6444.96 11755.9C6481.52 11719.4 6531.11 11698.8 6582.82 11698.8H11176.5C11228.2 11698.8 11277.8 11719.4 11314.4 11755.9C11350.9 11792.5 11371.5 11842.1 11371.5 11893.8Z" fill="black" fill-opacity="0.7"/>
</g>
<path d="M11371.5 11893.8V14986.9H6387.86V11893.8C6387.86 11842.1 6408.4 11792.5 6444.96 11755.9C6481.52 11719.4 6531.11 11698.8 6582.82 11698.8H11176.5C11228.2 11698.8 11277.8 11719.4 11314.4 11755.9C11350.9 11792.5 11371.5 11842.1 11371.5 11893.8Z" stroke="#263238" stroke-linecap="round" stroke-linejoin="round"/>
<path d="M11371.5 11893.8V14986.9H7673.29V11893.8C7673.29 11842.1 7693.83 11792.5 7730.39 11755.9C7766.95 11719.4 7816.54 11698.8 7868.25 11698.8H11176.5C11228.2 11698.8 11277.8 11719.4 11314.4 11755.9C11350.9 11792.5 11371.5 11842.1 11371.5 11893.8Z" fill="#598800" stroke="#263238" stroke-linecap="round" stroke-linejoin="round"/>
<path opacity="0.3" d="M11121.2 12003.9H7959.94C7938.57 12003.9 7918.09 11995.4 7902.98 11980.3C7887.87 11965.2 7879.39 11944.7 7879.39 11923.3C7879.16 11912.6 7881.07 11902 7885.02 11892C7888.96 11882 7894.86 11872.9 7902.36 11865.3C7909.87 11857.6 7918.82 11851.5 7928.71 11847.4C7938.6 11843.2 7949.21 11841.1 7959.94 11841.1H11121.2C11142.6 11841.1 11163.1 11849.6 11178.2 11864.7C11193.3 11879.8 11201.8 11900.3 11201.8 11921.6C11202 11932.3 11200.1 11943 11196.2 11953C11192.2 11962.9 11186.3 11972 11178.8 11979.7C11171.3 11987.4 11162.3 11993.4 11152.5 11997.6C11142.6 12001.8 11132 12003.9 11121.2 12003.9Z" fill="white" fill-opacity="0.7"/>
<path d="M5269.11 14986.9C5012.03 14986.9 4650.82 14821.5 4234.77 14646.7C3803.3 14465.1 3311.83 14273.1 2813.09 14244.4C2627.13 14233.7 2739.82 14986.9 2739.82 14986.9H2332.77C2332.77 14986.9 1930.86 14450.5 1884.15 13970.2C1884.15 13970.2 2212.36 13767.5 2291.2 13755.9C2318.39 13753.1 2345.71 13751.8 2373.04 13752.1C2461.31 13752.1 2579.14 13755.9 2579.14 13755.9C2560.29 13744.8 2259.93 13564 2094.11 13380.2C1957.42 13228.5 1894.86 12989 1890.15 12845.8C1895.45 12751.1 1905.89 12656.7 1921.43 12563.1L4060.38 12598.6C4060.38 12598.6 4083.52 12614.9 4124.65 12645.3C4372.74 12826.1 5279.39 13499.7 5732.72 14007.4C5879.26 14171.5 5978.24 14318.1 5992.81 14425.2C6060.93 14919.2 5656.88 14986.9 5269.11 14986.9Z" fill="#757575" stroke="#263238" stroke-linecap="round" stroke-linejoin="round"/>
<path d="M5733.15 14006.6L4692.81 14244.4C4514.45 14346.4 4358.4 14483.2 4233.91 14646.7C3802.44 14465.1 3310.98 14273.1 2812.23 14244.4C2626.27 14233.7 2738.96 14986.9 2738.96 14986.9H2331.91C2331.91 14986.9 1930.86 14450.5 1884.15 13970.2C1884.15 13970.2 2262.92 14510 2355.48 14784.3C2355.48 14784.3 2502.44 14277 2741.1 14073.4C2633.31 13952 2510.83 13844.5 2376.47 13753.4C2464.74 13753.4 2582.57 13757.2 2582.57 13757.2C2563.72 13746.1 2263.35 13565.3 2097.53 13381.4C1960.85 13229.8 1905.58 12989.8 1893.58 12847.1C1887.58 12776.9 1896.15 12564.3 1896.15 12564.3C1896.15 12564.3 3491.36 12791.9 4128.08 12646.6C4373.17 12826.6 5279.82 13498.8 5733.15 14006.6Z" fill="#263238"/>
<path d="M4060.81 13970.2C4060.81 13970.2 4908.33 14394.8 5134.57 14561C5360.8 14727.3 5428.07 14682.3 5428.07 14682.3" stroke="#263238" stroke-linecap="round" stroke-linejoin="round"/>
<path d="M2094.54 13925.2C2094.54 13925.2 2298.06 14235.8 2308.77 14328.8" stroke="#263238" stroke-linecap="round" stroke-linejoin="round"/>
<path d="M5503.49 7962.51C5503.49 7962.51 5954.67 7766.27 5911.83 8600.94C5868.98 9435.61 6021.95 9478.45 6021.95 9478.45C6021.95 9478.45 4886.48 9944.64 4598.12 9546.15C4309.76 9147.67 4583.55 8057.2 5503.49 7962.51Z" fill="#263238"/>
<path d="M5440.5 9478.45C5440.5 9478.45 4973.46 9698.69 4931.04 9902.22C4888.62 10105.7 4303.75 9799.38 4303.75 9799.38L4727.52 9190.09L5440.5 9478.45Z" fill="white" stroke="#263238" stroke-linecap="round" stroke-linejoin="round"/>
<path d="M2378.19 11712.5C1307 13076.8 2176.37 13734.9 3390.67 13626.1L3147.3 14011.7L3758.31 14117.6C3758.31 14117.6 4226.63 13811.6 4865.06 13484.7C5951.67 12927.7 6390.86 12961.1 6279.03 12403.7C6167.2 11846.2 4835.49 11484.6 3500.36 12072C3499.08 12071.6 2774.1 11210.4 2378.19 11712.5Z" fill="#757575" stroke="#263238" stroke-linecap="round" stroke-linejoin="round"/>
<path d="M2751.81 14682.3C2751.81 14682.3 3030.75 13911 3147.3 13868.2C3263.84 13825.3 3704.32 13992.4 3758.3 14116.7C3758.3 14116.7 3906.99 13888.8 3967.83 13985.6C4028.67 14082.4 3940.84 14242.7 3967.83 14365.2C3994.82 14487.8 4296.04 14659.2 4416.44 14681.9C4536.85 14704.6 4605.4 14772.3 4605.4 14840V14986.9H2751.81C2731.25 14938.8 2720.64 14887 2720.64 14834.6C2720.64 14782.3 2731.25 14730.4 2751.81 14682.3Z" fill="white" stroke="#263238" stroke-linecap="round" stroke-linejoin="round"/>
<path d="M3967.83 14244.4C3967.83 14244.4 3722.31 14365.6 3632.76 14330.1C3543.21 14294.5 3678.61 14533.6 3712.46 14556.3C3746.31 14579 3969.54 14477.1 3969.54 14477.1" stroke="#263238" stroke-linecap="round" stroke-linejoin="round"/>
<path d="M2983.62 14117.1C2983.62 14117.1 3316.97 14123.6 3418.52 14245.7" stroke="#263238" stroke-linecap="round" stroke-linejoin="round"/>
<path d="M2751.82 14682.3C2751.82 14682.3 3283.13 14806.5 3328.12 14806.5C3401.19 14792.1 3472.87 14771.3 3542.35 14744.4C3542.35 14744.4 3688.04 14817.7 3784.87 14863.1C3881.71 14908.5 4513.28 14863.1 4513.28 14863.1" stroke="#263238" stroke-linecap="round" stroke-linejoin="round"/>
<path d="M3390.67 13627C3897.99 13572.1 4883.48 12947 5226.26 12729.7C5569.04 12512.5 5654.74 12569.5 5654.74 12569.5" stroke="#263238" stroke-linecap="round" stroke-linejoin="round"/>
<path d="M1893.15 12562.2L1974.13 11947.3L2169.52 11799.9C2486.16 11031.7 3920.7 9596.71 4311.89 9601.43C4899.33 9608.28 5003.03 10224.9 5075.44 10899.7C5147.85 11574.6 4232.63 11473 4232.63 11473V11642.3L3712.03 11911.8L4027.39 11901.9C4027.39 11901.9 3120.3 12783.7 1893.15 12562.2Z" fill="#598800" stroke="#263238" stroke-linecap="round" stroke-linejoin="round"/>
<path d="M4435.73 8413.26C4558.7 8027.64 5121.29 7924.8 5323.53 7987.79C5489.54 8052.61 5625.58 8176.74 5705.3 8336.14C5756.72 8447.11 5649.17 8643.36 5725.87 8757.76C5835.56 8921.86 5826.13 9268.07 5786.71 9486.17C5765.29 9601.86 5284.11 9670.41 4890.77 9400.47C4468.29 9108.25 4316.61 8784.32 4435.73 8413.26Z" fill="white" stroke="#263238" stroke-linecap="round" stroke-linejoin="round"/>
<path d="M5004.31 7872.53C5004.31 7872.53 5499.63 7791.97 5503.06 7919.23C5524.91 8764.61 5018.03 8942 5018.03 8942C5018.03 8942 4811.07 8777.04 4764.8 8890.16C4718.52 9003.27 4837.64 9316.06 4984.18 9322.49C4950.41 9374.95 4931.95 9435.79 4930.89 9498.17C4929.83 9560.54 4946.21 9621.98 4978.18 9675.55C4978.18 9675.55 4139.22 9815.66 4069.81 9427.04C4102.24 9291.94 4125.43 9154.8 4139.22 9016.56C4193.64 8471.96 4066.38 8105.62 5004.31 7872.53Z" fill="#263238"/>
<path d="M5665.88 8734.19C5769.14 8827.17 5843.27 8827.17 5841.98 8860.59C5838.13 8964.71 5713.44 9016.56 5713.44 9016.56" fill="white"/>
<path d="M5665.88 8734.19C5769.14 8827.17 5843.27 8827.17 5841.98 8860.59C5838.13 8964.71 5713.44 9016.56 5713.44 9016.56" stroke="#263238" stroke-linecap="round" stroke-linejoin="round"/>
<path d="M5710.87 9190.09C5637.9 9214.79 5559.16 9216.73 5485.06 9195.66" stroke="#263238" stroke-linecap="round" stroke-linejoin="round"/>
<path d="M5436.22 8215.31C5436.22 8215.31 5765.71 8119.76 5705.3 8654.5C5705.3 8654.5 5842.41 8468.11 5841.98 8258.58C5841.98 7895.67 5356.52 7968.51 5356.52 7968.51L5419.93 8225.59" fill="#263238"/>
<path d="M5735.72 8477.11C5723.25 8468.82 5709.22 8463.14 5694.5 8460.42C5679.77 8457.69 5664.64 8457.98 5650.03 8461.25" stroke="#263238" stroke-linecap="round" stroke-linejoin="round"/>
<path d="M5513.77 8471.11C5513.77 8471.11 5336.81 8481.39 5260.11 8599.65" stroke="#263238" stroke-linecap="round" stroke-linejoin="round"/>
<path d="M5471.35 8752.62C5473.92 8780.9 5461.93 8805.32 5444.36 8807.03C5426.79 8808.75 5410.51 8786.89 5407.51 8758.61C5404.51 8730.33 5416.94 8705.91 5434.5 8704.2C5452.07 8702.48 5468.78 8724.34 5471.35 8752.62Z" fill="#263238"/>
<path d="M3418.52 13755.5C3418.52 13755.5 3812.72 13798.3 3898.42 13969.7" stroke="#263238" stroke-linecap="round" stroke-linejoin="round"/>
<path d="M4416.45 9890.65C4581.62 9799.02 4775.82 9774.76 4958.47 9822.95C5272.11 9902.22 6085.36 11065.5 6198.48 11179.1C6311.59 11292.6 6523.26 11350.5 6718.22 11555.7C7026.72 11877.5 7475.33 12162 7520.75 12162C7566.17 12162 7602.59 12133.7 7659.15 12122.6C7715.71 12111.4 8153.61 12071.6 8153.61 12071.6C8153.61 12071.6 8300.58 12104.6 8153.61 12167.1C8006.64 12229.7 8017.78 12286.7 8017.78 12286.7C8017.78 12286.7 7988.65 12333.8 8047.35 12379.2C8106.05 12424.7 8141.18 12399.8 8225.59 12519.3C8310 12638.9 8106.48 12571.2 8106.48 12571.2C8106.48 12571.2 8151.47 12699.7 8061.06 12686.9C7970.65 12674 8049.92 12812.4 7902.95 12793.6C7755.99 12774.7 7441.48 12576.3 7362.64 12368.5C7362.64 12368.5 6079.79 11755.4 5887.83 11597.3C5695.87 11439.2 4888.63 10591.2 4831.64 10580.1" fill="white"/>
<path d="M4416.45 9890.65C4581.62 9799.02 4775.82 9774.76 4958.47 9822.95C5272.11 9902.22 6085.36 11065.5 6198.48 11179.1C6311.59 11292.6 6523.26 11350.5 6718.22 11555.7C7026.72 11877.5 7475.33 12162 7520.75 12162C7566.17 12162 7602.59 12133.7 7659.15 12122.6C7715.71 12111.4 8153.61 12071.6 8153.61 12071.6C8153.61 12071.6 8300.58 12104.6 8153.61 12167.1C8006.64 12229.7 8017.78 12286.7 8017.78 12286.7C8017.78 12286.7 7988.65 12333.8 8047.35 12379.2C8106.05 12424.7 8141.18 12399.8 8225.59 12519.3C8310 12638.9 8106.48 12571.2 8106.48 12571.2C8106.48 12571.2 8151.47 12699.7 8061.06 12686.9C7970.65 12674 8049.92 12812.4 7902.95 12793.6C7755.99 12774.7 7441.48 12576.3 7362.64 12368.5C7362.64 12368.5 6079.79 11755.4 5887.83 11597.3C5695.87 11439.2 4888.63 10591.2 4831.64 10580.1" stroke="#263238" stroke-linecap="round" stroke-linejoin="round"/>
<path d="M4232.2 9766.39C4232.2 9766.39 4864.63 9597.14 5085.29 9721.4C5305.96 9845.66 5724.15 10422 5724.15 10422C5724.15 10422 5214.27 10878.3 5056.59 10836.7C4898.91 10795.2 4416.44 10727 4416.44 10727" fill="#598800"/>
<path d="M4232.2 9766.39C4232.2 9766.39 4864.63 9597.14 5085.29 9721.4C5305.96 9845.66 5724.15 10422 5724.15 10422C5724.15 10422 5214.27 10878.3 5056.59 10836.7C4898.91 10795.2 4416.44 10727 4416.44 10727" stroke="#263238" stroke-linecap="round" stroke-linejoin="round"/>
<path d="M4780.65 10782.7C4780.65 10782.7 4551.41 10908.7 4467 10908.7" stroke="#263238" stroke-linecap="round" stroke-linejoin="round"/>
<path d="M4416.45 10150.7C4435.73 10184.6 4429.3 10555.2 4831.64 10670.5" stroke="#263238" stroke-linecap="round" stroke-linejoin="round"/>
<path d="M2265.93 11811.9C2265.93 11811.9 3122.88 11958.9 3418.53 11698.8" stroke="#263238" stroke-linecap="round" stroke-linejoin="round"/>
<path d="M3711.6 11911.8C3711.6 11911.8 3497.36 11874.1 3418.52 11984.2C3339.68 12094.3 2910.35 12198.4 2910.35 12198.4" stroke="#263238" stroke-linecap="round" stroke-linejoin="round"/>
<path d="M1989.13 12729.7C1989.13 12729.7 1865.3 13263.6 2393.61 13501" stroke="#263238" stroke-linecap="round" stroke-linejoin="round"/>
<path d="M2265.93 12766.6C2265.93 12766.6 2268.93 13029.7 2351.62 13173.6L2614.28 13259.3L2908.21 13095.6C2908.21 13095.6 2845.65 12759.3 2840.08 12691.2" stroke="#263238" stroke-linecap="round" stroke-linejoin="round"/>
</svg>
