<svg width="461" height="471" viewBox="0 0 461 471" fill="none" xmlns="http://www.w3.org/2000/svg">
<path d="M460.125 453.594C460.125 453.745 357.135 453.875 230.123 453.875C103.11 453.875 0.0983887 453.745 0.0983887 453.594C0.0983887 453.442 103.067 453.301 230.123 453.301C357.178 453.301 460.125 453.431 460.125 453.594Z" fill="#263238"/>
<path d="M124.068 418.848L124.945 445.795L131.79 466.915C131.907 467.275 131.948 467.655 131.912 468.031C131.877 468.408 131.764 468.773 131.581 469.104C131.398 469.435 131.149 469.725 130.85 469.956C130.551 470.187 130.207 470.354 129.84 470.446C129.413 470.556 128.965 470.561 128.536 470.461C128.106 470.361 127.706 470.159 127.371 469.872C123.039 466.157 107.193 452.424 107.236 450.453C107.236 448.156 104.41 422.076 104.41 422.076L124.068 418.848Z" fill="#90D904"/>
<path d="M129.84 470.414L107.096 448.601L107.161 449.684C107.213 450.672 107.617 451.609 108.298 452.326C110.117 454.233 115.262 459.41 127.263 469.786C127.606 470.084 128.019 470.293 128.463 470.394C128.907 470.494 129.369 470.482 129.808 470.36L129.84 470.414Z" fill="#E0E0E0"/>
<path d="M112.175 439.6C112.523 439.826 112.774 440.172 112.88 440.573C112.986 440.973 112.94 441.398 112.749 441.766C112.54 442.132 112.195 442.4 111.789 442.511C111.383 442.623 110.95 442.569 110.583 442.362C110.215 442.125 109.949 441.76 109.837 441.337C109.725 440.914 109.775 440.465 109.977 440.077C110.236 439.732 110.619 439.5 111.045 439.432C111.471 439.363 111.907 439.462 112.262 439.708" fill="white"/>
<path d="M123.028 458.998C123.179 459.063 123.71 457.612 125.27 456.767C126.234 456.321 127.274 456.061 128.335 455.998C128.335 455.933 128.01 455.749 127.371 455.695C126.536 455.64 125.704 455.832 124.977 456.247C124.25 456.655 123.656 457.264 123.266 458.002C122.974 458.576 122.963 458.976 123.028 458.998Z" fill="#263238"/>
<path d="M125.151 462.496C125.894 462.013 126.668 461.579 127.468 461.197C128.328 460.984 129.2 460.825 130.079 460.72C129.651 460.48 129.171 460.347 128.68 460.334C128.189 460.321 127.703 460.427 127.263 460.644C125.703 461.197 125.053 462.431 125.151 462.496Z" fill="#263238"/>
<path d="M119.194 454.59C120.291 453.766 121.446 453.02 122.649 452.359C123.932 451.876 125.25 451.488 126.591 451.2C125.163 451.003 123.709 451.218 122.399 451.818C121.089 452.419 119.977 453.38 119.194 454.59Z" fill="#263238"/>
<path d="M118.241 446.402C118.327 446.554 119.779 445.85 121.706 445.676C123.634 445.503 125.205 445.871 125.248 445.676C124.161 445.05 122.887 444.828 121.652 445.048C120.392 445.088 119.186 445.567 118.241 446.402Z" fill="#263238"/>
<path d="M117.786 438.495C118.936 438.048 120.142 437.76 121.371 437.64C122.604 437.704 123.821 437.941 124.988 438.344C124.988 438.279 124.717 437.965 124.078 437.64C123.232 437.231 122.3 437.03 121.36 437.055C120.419 437.071 119.495 437.308 118.663 437.748C118.046 438.106 117.742 438.441 117.786 438.495Z" fill="#263238"/>
<path d="M121.241 436.178C121.324 435.821 121.324 435.451 121.241 435.095C121.097 434.167 120.773 433.277 120.288 432.473C119.973 431.861 119.473 431.364 118.858 431.055C118.645 430.97 118.411 430.955 118.19 431.011C117.968 431.067 117.769 431.193 117.623 431.369C117.35 431.723 117.222 432.169 117.266 432.614C117.377 433.515 117.8 434.349 118.46 434.972C119.12 435.594 119.977 435.967 120.883 436.026C121.783 436.071 122.676 435.847 123.448 435.382C124.22 434.917 124.835 434.233 125.216 433.416C125.309 433.21 125.358 432.987 125.358 432.761C125.358 432.534 125.309 432.311 125.216 432.105C125.1 431.908 124.924 431.752 124.714 431.66C124.503 431.569 124.27 431.546 124.046 431.596C123.392 431.777 122.797 432.128 122.324 432.614C121.626 433.229 121.043 433.962 120.602 434.78C120.415 435.069 120.293 435.394 120.244 435.734C120.886 434.682 121.678 433.73 122.595 432.907C123.028 432.503 123.551 432.21 124.122 432.051C124.244 432.023 124.373 432.035 124.488 432.086C124.603 432.137 124.699 432.223 124.761 432.333C124.81 432.472 124.831 432.619 124.822 432.766C124.813 432.913 124.773 433.057 124.707 433.188C124.357 433.882 123.817 434.46 123.149 434.856C122.481 435.251 121.713 435.447 120.937 435.419C120.173 435.363 119.45 435.05 118.886 434.531C118.321 434.012 117.949 433.317 117.829 432.56C117.791 432.251 117.868 431.939 118.046 431.683C118.123 431.584 118.23 431.513 118.351 431.48C118.472 431.447 118.6 431.453 118.717 431.499C119.241 431.756 119.672 432.168 119.952 432.679C120.586 433.759 121.023 434.944 121.241 436.178Z" fill="#263238"/>
<path d="M176.532 422.812L175.135 442.969C175.135 442.969 195.161 451.157 195.258 454.882L156.083 453.583L156.971 422.087L176.532 422.812Z" fill="#90D904"/>
<path d="M163.08 440.867C162.69 440.965 162.351 441.205 162.129 441.539C161.907 441.874 161.817 442.279 161.878 442.676C161.966 443.061 162.198 443.397 162.526 443.617C162.854 443.836 163.254 443.922 163.643 443.857C164.047 443.747 164.396 443.491 164.622 443.139C164.848 442.787 164.935 442.363 164.867 441.95C164.735 441.56 164.458 441.236 164.092 441.046C163.727 440.856 163.302 440.815 162.907 440.932" fill="#E0E0E0"/>
<path d="M156.083 453.604L156.3 450.431L193.785 452.868C193.785 452.868 195.497 453.691 195.258 454.904L156.083 453.604Z" fill="#E0E0E0"/>
<path d="M175.785 442.795C175.785 442.979 174.81 443.034 173.846 443.618C172.882 444.203 172.362 444.994 172.189 444.907C172.015 444.821 172.33 443.738 173.51 443.044C174.691 442.351 175.828 442.676 175.785 442.795Z" fill="#263238"/>
<path d="M179.835 444.626C179.835 444.81 179.034 445.113 178.351 445.904C177.669 446.694 177.463 447.539 177.268 447.517C177.073 447.496 176.998 446.434 177.853 445.46C178.709 444.485 179.835 444.442 179.835 444.626Z" fill="#263238"/>
<path d="M182.001 449.619C181.828 449.619 181.59 448.698 182.121 447.658C182.651 446.619 183.55 446.239 183.626 446.402C183.702 446.564 183.139 447.106 182.716 447.962C182.294 448.817 182.196 449.608 182.001 449.619Z" fill="#263238"/>
<path d="M175.59 438.16C175.503 438.333 174.636 438.041 173.553 438.084C172.47 438.127 171.615 438.431 171.517 438.257C171.42 438.084 172.254 437.434 173.532 437.412C174.81 437.391 175.687 438.019 175.59 438.16Z" fill="#263238"/>
<path d="M175.795 434.087C175.134 434.254 174.439 434.228 173.792 434.011C173.086 433.867 172.402 433.634 171.755 433.318C171.38 433.131 171.018 432.917 170.672 432.679C170.455 432.555 170.261 432.394 170.098 432.203C169.976 432.064 169.905 431.888 169.895 431.703C169.885 431.518 169.938 431.336 170.044 431.185C170.146 431.056 170.276 430.951 170.425 430.88C170.573 430.809 170.735 430.772 170.9 430.773C171.146 430.78 171.39 430.82 171.626 430.892C172.042 431.012 172.448 431.168 172.839 431.358C173.489 431.677 174.085 432.097 174.604 432.603C175.481 433.481 175.774 434.196 175.687 434.239C175.6 434.282 175.167 433.687 174.268 432.961C173.75 432.524 173.174 432.16 172.557 431.878C172.207 431.722 171.845 431.596 171.474 431.499C171.062 431.369 170.705 431.358 170.597 431.499C170.488 431.64 170.542 431.596 170.597 431.715C170.722 431.852 170.863 431.972 171.019 432.073C171.348 432.296 171.687 432.502 172.037 432.69C172.634 433.015 173.262 433.28 173.911 433.481C174.551 433.643 175.181 433.846 175.795 434.087Z" fill="#263238"/>
<path d="M175.535 434.358C175.189 433.782 175.03 433.112 175.081 432.441C175.077 431.279 175.38 430.136 175.958 429.127C176.072 428.871 176.252 428.65 176.478 428.485C176.704 428.32 176.969 428.216 177.247 428.185C177.421 428.194 177.589 428.254 177.731 428.355C177.873 428.457 177.983 428.597 178.048 428.759C178.142 428.99 178.2 429.235 178.221 429.484C178.292 429.922 178.292 430.368 178.221 430.806C178.093 431.535 177.784 432.22 177.322 432.798C176.521 433.795 175.72 434.001 175.698 433.882C175.676 433.762 176.315 433.438 176.943 432.484C177.297 431.933 177.53 431.313 177.626 430.665C177.674 430.287 177.674 429.905 177.626 429.528C177.572 429.105 177.431 428.769 177.268 428.802C177.106 428.834 176.738 429.094 176.564 429.43C176.356 429.773 176.182 430.136 176.044 430.513C175.803 431.138 175.653 431.795 175.6 432.463C175.46 433.611 175.644 434.336 175.535 434.358Z" fill="#263238"/>
<path d="M95.9941 223.916L101.778 440.575L132.689 439.654L140.054 216.529L95.9941 223.916Z" fill="#263238"/>
<path d="M160.232 216.161C160.232 216.161 183.171 308.006 183.875 323.667C184.579 339.329 178.969 437.261 178.969 437.261H148.708L151.242 325.704L128.302 231.411L133.859 216.649L160.232 216.161Z" fill="#263238"/>
<path d="M141.559 227.436C141.571 227.537 141.571 227.638 141.559 227.739V228.595C141.559 229.396 141.494 230.49 141.44 231.898C141.31 234.801 141.115 238.938 140.888 244.029C140.357 254.307 139.631 268.441 138.83 284.103C138.028 299.764 137.184 313.833 136.664 324.112C136.36 329.202 136.101 333.329 135.927 336.242C135.83 337.639 135.754 338.744 135.7 339.491C135.7 339.838 135.646 340.13 135.624 340.347C135.636 340.444 135.636 340.542 135.624 340.639C135.612 340.542 135.612 340.444 135.624 340.347C135.624 340.119 135.624 339.838 135.624 339.491C135.624 338.69 135.7 337.585 135.754 336.188C135.884 333.285 136.079 329.148 136.306 324.057C136.837 313.779 137.563 299.645 138.353 283.984C139.144 268.322 140 254.253 140.574 243.975C140.877 238.884 141.126 234.758 141.31 231.855C141.408 230.458 141.483 229.353 141.538 228.552C141.538 228.205 141.592 227.923 141.613 227.696C141.581 227.613 141.562 227.525 141.559 227.436Z" fill="#455A64"/>
<path d="M138.158 98.3872C138.158 98.3872 149.39 154.101 149.552 169.795C149.715 185.488 155.228 216.161 155.228 216.161H106.641L105.558 131.28L102.092 105.969L109.392 95.5496L138.158 98.3872Z" fill="#F5F5F5"/>
<path d="M138.754 100.023C138.754 100.023 150.354 103.434 153.419 107.723C155.834 111.113 159.105 175.188 159.105 175.188L164.044 231.638L159.181 231.183L152.314 210.053L138.754 100.023Z" fill="#90D904"/>
<path d="M153.419 107.723L186.171 137.779L226.473 124.717L234.509 141.645L191.5 161.141C185.359 163.762 181.503 162.321 177.236 158.899L154.675 140.833L153.419 107.723Z" fill="#90D904"/>
<path d="M218.978 130.111C219.086 130.319 219.108 130.562 219.039 130.787C218.97 131.011 218.816 131.2 218.609 131.313C218.507 131.367 218.395 131.401 218.28 131.412C218.164 131.423 218.048 131.411 217.937 131.377C217.826 131.343 217.723 131.287 217.634 131.213C217.545 131.139 217.472 131.047 217.418 130.945C217.362 130.843 217.326 130.732 217.313 130.616C217.301 130.501 217.311 130.384 217.345 130.273C217.378 130.162 217.433 130.059 217.507 129.969C217.581 129.88 217.673 129.807 217.775 129.753C217.983 129.644 218.225 129.621 218.449 129.688C218.674 129.754 218.863 129.906 218.978 130.111Z" fill="#263238"/>
<path d="M218.198 131.443C218.108 131.459 218.017 131.459 217.927 131.443C217.812 131.408 217.705 131.351 217.612 131.275C217.519 131.199 217.442 131.105 217.386 130.999C217.277 130.784 217.254 130.537 217.321 130.306C217.395 130.077 217.555 129.887 217.767 129.774C217.979 129.661 218.227 129.634 218.458 129.699C218.69 129.77 218.884 129.93 218.999 130.143C219.112 130.356 219.135 130.606 219.064 130.836C219.031 130.952 218.974 131.06 218.898 131.153C218.822 131.246 218.727 131.322 218.62 131.378C218.487 131.435 218.342 131.458 218.198 131.443ZM218.198 129.677C218.059 129.679 217.921 129.712 217.797 129.775C217.599 129.885 217.452 130.067 217.386 130.284C217.32 130.501 217.344 130.734 217.451 130.934C217.558 131.133 217.741 131.282 217.958 131.347C218.176 131.412 218.41 131.388 218.609 131.28C218.708 131.229 218.795 131.159 218.866 131.073C218.937 130.988 218.99 130.889 219.021 130.782C219.087 130.562 219.063 130.325 218.956 130.121C218.883 129.984 218.774 129.869 218.64 129.788C218.507 129.708 218.354 129.666 218.198 129.667V129.677Z" fill="#263238"/>
<path d="M222.357 129.309C222.465 129.518 222.487 129.761 222.418 129.985C222.349 130.21 222.195 130.399 221.989 130.511C221.886 130.566 221.774 130.6 221.659 130.611C221.543 130.622 221.427 130.61 221.316 130.576C221.205 130.542 221.102 130.486 221.013 130.411C220.924 130.337 220.851 130.246 220.797 130.143C220.741 130.042 220.705 129.93 220.692 129.815C220.68 129.7 220.691 129.583 220.724 129.472C220.757 129.361 220.813 129.257 220.887 129.168C220.961 129.079 221.052 129.005 221.155 128.952C221.257 128.895 221.369 128.859 221.485 128.846C221.601 128.834 221.719 128.844 221.831 128.878C221.943 128.911 222.047 128.966 222.137 129.04C222.228 129.114 222.302 129.206 222.357 129.309Z" fill="#263238"/>
<path d="M221.577 130.641C221.488 130.658 221.396 130.658 221.306 130.641C221.191 130.607 221.084 130.55 220.991 130.473C220.898 130.397 220.821 130.303 220.765 130.197C220.653 129.983 220.631 129.733 220.701 129.502C220.772 129.271 220.931 129.077 221.144 128.963C221.358 128.851 221.608 128.828 221.839 128.899C222.07 128.97 222.264 129.129 222.379 129.342C222.491 129.555 222.515 129.804 222.444 130.035C222.373 130.267 222.213 130.461 221.999 130.576C221.865 130.629 221.721 130.651 221.577 130.641ZM221.577 128.865C221.437 128.871 221.3 128.908 221.176 128.973C220.977 129.081 220.828 129.264 220.763 129.481C220.698 129.698 220.722 129.933 220.83 130.132C220.881 130.232 220.953 130.321 221.041 130.392C221.129 130.462 221.23 130.514 221.339 130.544C221.449 130.586 221.566 130.604 221.684 130.599C221.801 130.593 221.917 130.564 222.022 130.511C222.128 130.459 222.221 130.386 222.297 130.296C222.373 130.206 222.43 130.101 222.463 129.989C222.497 129.876 222.507 129.757 222.493 129.64C222.478 129.524 222.44 129.411 222.38 129.31C222.321 129.208 222.241 129.12 222.145 129.051C222.05 128.982 221.941 128.933 221.826 128.908C221.742 128.882 221.655 128.867 221.566 128.865H221.577Z" fill="#263238"/>
<path d="M225.563 128.659C225.62 128.761 225.655 128.874 225.668 128.99C225.681 129.106 225.67 129.224 225.637 129.335C225.604 129.447 225.548 129.552 225.474 129.642C225.4 129.732 225.309 129.807 225.205 129.861C224.997 129.969 224.754 129.991 224.529 129.922C224.304 129.854 224.116 129.7 224.003 129.493C223.949 129.391 223.915 129.279 223.904 129.163C223.893 129.048 223.905 128.931 223.939 128.821C223.973 128.71 224.029 128.607 224.103 128.518C224.177 128.429 224.269 128.355 224.371 128.302C224.473 128.245 224.584 128.21 224.7 128.197C224.815 128.184 224.932 128.195 225.043 128.228C225.154 128.262 225.257 128.317 225.346 128.391C225.436 128.465 225.509 128.556 225.563 128.659Z" fill="#263238"/>
<path d="M224.794 129.991C224.704 130.008 224.613 130.008 224.523 129.991C224.304 129.921 224.119 129.77 224.006 129.569C223.894 129.368 223.862 129.132 223.917 128.908C223.95 128.794 224.007 128.688 224.083 128.597C224.16 128.505 224.254 128.431 224.361 128.378C224.466 128.321 224.581 128.285 224.7 128.272C224.819 128.26 224.94 128.271 225.054 128.306C225.169 128.34 225.276 128.396 225.369 128.472C225.462 128.547 225.539 128.641 225.595 128.746C225.707 128.96 225.73 129.21 225.659 129.441C225.588 129.672 225.429 129.866 225.216 129.981C225.078 130.015 224.934 130.019 224.794 129.991ZM224.794 128.226C224.655 128.227 224.517 128.261 224.393 128.324C224.194 128.431 224.045 128.614 223.98 128.831C223.915 129.049 223.939 129.283 224.046 129.482C224.097 129.581 224.167 129.669 224.253 129.74C224.339 129.811 224.438 129.863 224.545 129.894C224.765 129.96 225.002 129.936 225.205 129.829C225.405 129.721 225.554 129.539 225.619 129.321C225.684 129.104 225.66 128.87 225.552 128.67C225.477 128.533 225.365 128.419 225.23 128.34C225.094 128.262 224.94 128.223 224.783 128.226H224.794Z" fill="#263238"/>
<path d="M226.873 125.562L229.993 124.424L237.152 139.501L234.108 140.801L226.873 125.562Z" fill="#E0E0E0"/>
<path d="M154.47 119.605C154.579 120.158 154.641 120.72 154.654 121.283C154.773 122.475 154.935 124.013 155.13 125.876C155.574 129.851 156.213 135.147 156.841 141.039C157.47 146.931 158.022 152.314 158.26 156.202C158.39 158.151 158.444 159.733 158.455 160.827C158.495 161.39 158.477 161.956 158.401 162.516C158.3 161.962 158.245 161.401 158.239 160.838C158.163 159.754 158.044 158.173 157.86 156.234C157.513 152.357 156.939 146.996 156.278 141.071C155.618 135.147 155.054 129.807 154.729 125.908C154.567 123.959 154.48 122.377 154.437 121.283C154.392 120.724 154.403 120.162 154.47 119.605Z" fill="#263238"/>
<path d="M161.629 127.121C161.122 129.857 160.434 132.556 159.571 135.201C158.882 137.894 158.017 140.539 156.982 143.118C157.482 140.382 158.166 137.683 159.029 135.039C159.716 132.344 160.585 129.699 161.629 127.121Z" fill="#263238"/>
<path d="M185.825 147.927C185.473 147.515 185.224 147.025 185.099 146.498C184.293 144.001 184.463 141.292 185.576 138.916C185.771 138.41 186.078 137.955 186.475 137.584C185.819 139.231 185.382 140.957 185.175 142.718C185.164 144.475 185.382 146.226 185.825 147.927Z" fill="#263238"/>
<path d="M182.077 182.748L186.269 183.073L184.612 200.554L180.561 200.099L182.077 182.748Z" fill="#E0E0E0"/>
<path d="M109.392 96.7626L86.788 111.178C84.2155 113.002 82.2994 115.606 81.3239 118.605C80.3484 121.604 80.3655 124.837 81.3726 127.825L98.7018 182.293L92.4525 231.79L141.992 229.689L140.779 208.027L136.577 169.21C135.799 162.012 134.009 154.96 131.259 148.263L109.392 96.7626Z" fill="#90D904"/>
<path d="M85.7807 130.804L108.385 178.113C109.286 179.998 110.598 181.658 112.225 182.97C113.852 184.282 115.752 185.213 117.786 185.694L180.518 200.554L182.121 182.293L134.238 164.325L110.15 118.099C109.281 116.434 108.081 114.965 106.622 113.781C105.164 112.598 103.479 111.725 101.671 111.218C99.8625 110.711 97.9695 110.579 96.1084 110.831C94.2474 111.083 92.4576 111.714 90.8495 112.684C87.8589 114.493 85.6701 117.374 84.7285 120.74C83.7868 124.107 84.1631 127.705 85.7807 130.804Z" fill="#90D904"/>
<path d="M182.121 182.293C182.031 182.286 181.943 182.264 181.861 182.228L181.124 181.979L178.286 180.961L167.781 177.095L132.375 163.859H132.277V163.751L128.107 155.498C124.187 147.851 120.277 140.649 116.616 134.15C114.786 130.901 113.02 127.836 111.352 124.977L108.926 120.839C108.536 120.168 108.146 119.529 107.735 118.933C107.347 118.335 106.92 117.763 106.457 117.222C104.842 115.298 102.772 113.809 100.435 112.89C98.6728 112.172 96.78 111.833 94.8786 111.893C93.2469 111.916 91.6465 112.344 90.2213 113.139C90.3 113.067 90.3874 113.005 90.4813 112.955C90.7429 112.772 91.0223 112.616 91.3152 112.489C92.4391 112.001 93.6436 111.726 94.8677 111.677C96.8025 111.577 98.7365 111.887 100.543 112.586C102.952 113.512 105.09 115.028 106.76 116.995C107.239 117.542 107.68 118.121 108.081 118.727C108.515 119.345 108.915 119.984 109.294 120.655L111.753 124.771C113.443 127.659 115.215 130.713 117.071 133.934C120.753 140.432 124.652 147.613 128.616 155.27C130.057 158.097 131.465 160.881 132.775 163.545L132.624 163.404L167.965 176.813L178.406 180.831L181.211 181.914L181.936 182.207L182.121 182.293Z" fill="#263238"/>
<path d="M171.463 193.676C171.463 193.912 171.369 194.138 171.203 194.304C171.036 194.471 170.81 194.565 170.575 194.565C170.339 194.565 170.113 194.471 169.947 194.304C169.78 194.138 169.687 193.912 169.687 193.676C169.687 193.441 169.78 193.215 169.947 193.048C170.113 192.882 170.339 192.788 170.575 192.788C170.81 192.788 171.036 192.882 171.203 193.048C171.369 193.215 171.463 193.441 171.463 193.676Z" fill="#263238"/>
<path d="M170.542 194.586C170.362 194.586 170.187 194.533 170.037 194.433C169.887 194.333 169.771 194.191 169.702 194.025C169.633 193.858 169.615 193.675 169.65 193.499C169.685 193.322 169.772 193.16 169.899 193.033C170.026 192.906 170.188 192.819 170.365 192.784C170.541 192.749 170.724 192.767 170.891 192.836C171.057 192.905 171.199 193.021 171.299 193.171C171.399 193.321 171.452 193.496 171.452 193.676C171.452 193.918 171.356 194.149 171.186 194.32C171.015 194.49 170.784 194.586 170.542 194.586ZM170.542 192.821C170.373 192.821 170.208 192.871 170.067 192.965C169.926 193.059 169.817 193.193 169.752 193.349C169.687 193.505 169.67 193.677 169.703 193.843C169.736 194.009 169.818 194.162 169.937 194.281C170.057 194.401 170.21 194.483 170.376 194.516C170.541 194.549 170.714 194.532 170.87 194.467C171.026 194.402 171.16 194.292 171.254 194.152C171.348 194.011 171.398 193.846 171.398 193.676C171.398 193.449 171.308 193.232 171.147 193.071C170.987 192.911 170.769 192.821 170.542 192.821Z" fill="#263238"/>
<path d="M174.875 194.565C174.875 194.74 174.823 194.912 174.725 195.058C174.627 195.204 174.489 195.318 174.326 195.385C174.164 195.452 173.986 195.47 173.813 195.436C173.641 195.401 173.483 195.317 173.359 195.193C173.234 195.068 173.15 194.91 173.116 194.738C173.081 194.566 173.099 194.387 173.166 194.225C173.233 194.062 173.347 193.924 173.493 193.826C173.639 193.729 173.811 193.676 173.987 193.676C174.222 193.676 174.448 193.77 174.615 193.937C174.781 194.103 174.875 194.329 174.875 194.565Z" fill="#263238"/>
<path d="M173.932 195.474C173.753 195.474 173.577 195.421 173.427 195.321C173.277 195.221 173.161 195.079 173.092 194.913C173.023 194.746 173.005 194.564 173.04 194.387C173.075 194.211 173.162 194.048 173.289 193.921C173.416 193.794 173.578 193.707 173.755 193.672C173.931 193.637 174.114 193.655 174.281 193.724C174.447 193.793 174.589 193.91 174.689 194.059C174.789 194.209 174.842 194.385 174.842 194.565C174.839 194.805 174.743 195.035 174.573 195.205C174.403 195.375 174.173 195.472 173.932 195.474ZM173.932 193.709C173.763 193.709 173.598 193.759 173.457 193.853C173.316 193.947 173.207 194.081 173.142 194.237C173.077 194.393 173.06 194.566 173.093 194.732C173.126 194.897 173.208 195.05 173.327 195.17C173.447 195.289 173.6 195.371 173.766 195.404C173.932 195.437 174.104 195.42 174.26 195.355C174.416 195.29 174.55 195.181 174.644 195.04C174.738 194.899 174.788 194.734 174.788 194.565C174.788 194.338 174.698 194.12 174.537 193.96C174.377 193.799 174.159 193.709 173.932 193.709Z" fill="#263238"/>
<path d="M177.073 196.395C177.564 196.395 177.962 195.997 177.962 195.507C177.962 195.016 177.564 194.619 177.073 194.619C176.583 194.619 176.185 195.016 176.185 195.507C176.185 195.997 176.583 196.395 177.073 196.395Z" fill="#263238"/>
<path d="M177.041 196.417C176.861 196.417 176.685 196.363 176.535 196.263C176.386 196.163 176.269 196.021 176.2 195.855C176.132 195.689 176.113 195.506 176.149 195.329C176.184 195.153 176.27 194.991 176.398 194.864C176.525 194.736 176.687 194.65 176.863 194.615C177.04 194.579 177.223 194.597 177.389 194.666C177.555 194.735 177.697 194.852 177.797 195.001C177.897 195.151 177.951 195.327 177.951 195.507C177.948 195.747 177.851 195.977 177.681 196.147C177.511 196.317 177.281 196.414 177.041 196.417ZM177.041 194.651C176.872 194.651 176.706 194.701 176.566 194.795C176.425 194.889 176.315 195.023 176.25 195.179C176.186 195.336 176.169 195.508 176.202 195.674C176.235 195.84 176.316 195.992 176.436 196.112C176.556 196.232 176.708 196.313 176.874 196.346C177.04 196.379 177.212 196.362 177.368 196.297C177.525 196.233 177.658 196.123 177.752 195.982C177.846 195.841 177.897 195.676 177.897 195.507C177.897 195.28 177.806 195.062 177.646 194.902C177.485 194.741 177.268 194.651 177.041 194.651Z" fill="#263238"/>
<path d="M180.518 200.554C180.417 200.57 180.315 200.57 180.214 200.554L179.337 200.359L175.958 199.547L163.546 196.492C153.072 193.926 138.635 190.286 122.584 186.571C120.58 186.095 118.598 185.716 116.638 185.185C114.67 184.715 112.836 183.799 111.276 182.51C109.909 181.135 108.807 179.52 108.027 177.744L105.666 172.806L97.5105 155.66L92.0951 144.093C91.4885 142.75 91.012 141.7 90.6546 140.941L90.2863 140.107C90.2411 140.017 90.2048 139.923 90.178 139.826C90.178 139.826 90.243 139.912 90.3405 140.086C90.4379 140.259 90.5788 140.562 90.752 140.887L92.3008 144.006C93.633 146.758 95.5501 150.667 97.8895 155.487C100.229 160.307 103.012 166.145 106.11 172.567C106.879 174.17 107.681 175.816 108.482 177.495C109.254 179.205 110.33 180.761 111.655 182.088C113.152 183.32 114.913 184.19 116.8 184.633C118.717 185.153 120.721 185.532 122.725 186.008C138.765 189.734 153.202 193.427 163.654 196.092C168.842 197.456 173.055 198.55 176.023 199.341L179.37 200.262L180.236 200.511L180.518 200.554Z" fill="#263238"/>
<path d="M129.851 197.597C129.851 197.597 129.613 197.846 129.104 198.225C128.595 198.604 127.869 199.124 126.938 199.752C124.518 201.423 121.898 202.784 119.14 203.803C116.347 204.813 113.348 205.115 110.41 204.68C109.525 204.53 108.66 204.279 107.832 203.933C107.52 203.833 107.23 203.675 106.977 203.467C108.121 203.812 109.286 204.083 110.464 204.28C113.334 204.596 116.239 204.251 118.955 203.273C121.669 202.256 124.271 200.964 126.721 199.417C127.721 198.739 128.767 198.131 129.851 197.597Z" fill="#263238"/>
<path d="M132.635 203.879C132.703 204.005 132.754 204.14 132.786 204.28C132.909 204.678 133.006 205.083 133.079 205.493C133.34 207.016 133.34 208.573 133.079 210.096C132.657 212.359 131.69 214.485 130.263 216.291C128.463 218.491 126.031 220.085 123.297 220.86C120.562 221.634 117.656 221.552 114.97 220.623C112.81 219.821 110.879 218.501 109.349 216.778C108.323 215.623 107.503 214.3 106.922 212.869C106.774 212.479 106.648 212.081 106.543 211.677C106.478 211.406 106.446 211.255 106.468 211.255C107.187 213.189 108.263 214.971 109.641 216.508C111.161 218.135 113.047 219.375 115.143 220.125C117.723 221 120.507 221.077 123.131 220.344C125.755 219.612 128.097 218.105 129.851 216.02C131.254 214.292 132.223 212.253 132.678 210.074C133.055 208.025 133.041 205.923 132.635 203.879Z" fill="#263238"/>
<path d="M111.829 53.6452L111.97 94.0007C111.979 95.6246 112.318 97.2297 112.966 98.7187C113.614 100.208 114.557 101.55 115.739 102.664C116.92 103.778 118.316 104.64 119.84 105.199C121.365 105.758 122.987 106.001 124.609 105.915C127.678 105.748 130.567 104.413 132.682 102.183C134.797 99.9535 135.978 96.9983 135.981 93.9249C135.981 90.8815 135.981 88.3471 135.981 88.033C135.981 88.033 146.249 87.0365 146.953 76.8664C147.3 71.9492 147.17 61.7683 146.953 52.5513C146.846 47.7781 144.944 43.2205 141.625 39.7877C138.307 36.355 133.817 34.2993 129.05 34.0307H128.064C117.472 33.9873 111.515 43.0202 111.829 53.6452Z" fill="#B78876"/>
<path d="M136.003 87.8705C131.3 87.6891 126.757 86.1132 122.952 83.3433C122.952 83.3433 125.67 90.849 135.873 90.5024L136.003 87.8705Z" fill="#AA6550"/>
<path d="M144.44 58.5191C144.421 58.8993 144.253 59.2568 143.974 59.5157C143.695 59.7746 143.326 59.9144 142.946 59.9054C142.76 59.9098 142.575 59.8768 142.403 59.8084C142.23 59.74 142.073 59.6376 141.94 59.5073C141.808 59.3769 141.703 59.2213 141.632 59.0497C141.561 58.8781 141.525 58.694 141.527 58.5082C141.546 58.13 141.712 57.7741 141.989 57.5155C142.266 57.2569 142.632 57.1158 143.011 57.1219C143.197 57.1176 143.382 57.1505 143.555 57.2188C143.729 57.2871 143.886 57.3893 144.02 57.5195C144.153 57.6496 144.259 57.8051 144.331 57.9768C144.403 58.1485 144.44 58.3328 144.44 58.5191Z" fill="#263238"/>
<path d="M144.722 56.797C144.538 56.9811 143.476 56.1038 141.917 56.0172C140.357 55.9305 139.155 56.6453 139.003 56.4504C138.852 56.2554 139.122 56.028 139.642 55.6922C140.348 55.2622 141.168 55.0581 141.992 55.1074C142.806 55.15 143.585 55.4538 144.213 55.9738C144.679 56.3637 144.819 56.7212 144.722 56.797Z" fill="#263238"/>
<path d="M129.234 58.3999C129.217 58.7792 129.052 59.1367 128.775 59.3958C128.497 59.655 128.13 59.7952 127.75 59.7863C127.564 59.7906 127.38 59.7576 127.207 59.6892C127.034 59.6208 126.877 59.5184 126.745 59.3881C126.612 59.2578 126.508 59.1022 126.437 58.9306C126.366 58.759 126.33 58.5748 126.331 58.3891C126.348 58.0099 126.513 57.6524 126.79 57.3932C127.068 57.1341 127.435 56.9939 127.815 57.0028C128.001 56.9984 128.185 57.0314 128.358 57.0998C128.531 57.1682 128.688 57.2706 128.82 57.4009C128.953 57.5313 129.057 57.6868 129.128 57.8585C129.199 58.0301 129.235 58.2142 129.234 58.3999Z" fill="#263238"/>
<path d="M129.158 56.4504C128.963 56.6237 127.912 55.7464 126.342 55.6597C124.772 55.5731 123.591 56.2988 123.429 56.093C123.266 55.8872 123.558 55.6706 124.078 55.3348C124.779 54.9027 125.597 54.7019 126.418 54.7608C127.233 54.8025 128.015 55.1021 128.649 55.6164C129.104 56.0172 129.245 56.3637 129.158 56.4504Z" fill="#263238"/>
<path d="M134.108 68.7433C134.947 68.5322 135.809 68.4267 136.675 68.4293C137.075 68.4293 137.465 68.3534 137.541 68.0827C137.597 67.675 137.529 67.2598 137.346 66.8913C137.021 65.8949 136.685 64.8659 136.339 63.772C134.942 59.3531 133.956 55.7247 134.173 55.6706C134.389 55.6164 135.624 59.1581 137.021 63.5771C137.346 64.6601 137.671 65.7432 137.974 66.7072C138.201 67.2031 138.244 67.764 138.093 68.2885C138.026 68.4253 137.929 68.5451 137.809 68.6389C137.689 68.7327 137.549 68.798 137.4 68.83C137.174 68.8599 136.944 68.8599 136.718 68.83C135.848 68.9137 134.97 68.8845 134.108 68.7433Z" fill="#263238"/>
<path d="M129.786 53.2012C129.602 53.6236 128.053 53.3312 126.212 53.4503C124.371 53.5694 122.844 53.981 122.627 53.5803C122.53 53.3961 122.811 53.0062 123.429 52.6272C124.253 52.1579 125.178 51.8941 126.125 51.8582C127.072 51.7998 128.018 51.9668 128.887 52.3456C129.548 52.6488 129.862 53.0062 129.786 53.2012Z" fill="#263238"/>
<path d="M144.549 53.0712C144.256 53.4069 143.195 52.9737 141.906 52.8871C140.617 52.8004 139.501 52.9845 139.263 52.6055C139.166 52.4213 139.361 52.0748 139.859 51.7607C140.527 51.3971 141.287 51.2391 142.044 51.3066C142.802 51.374 143.522 51.6639 144.115 52.1397C144.549 52.5296 144.722 52.8979 144.549 53.0712Z" fill="#263238"/>
<path d="M112.229 61.2268C112.056 61.1401 105.352 58.7574 105.179 65.7324C105.005 72.7074 112.035 71.4402 112.056 71.2453C112.078 71.0503 112.229 61.2268 112.229 61.2268Z" fill="#B78876"/>
<path d="M109.988 68.5484C109.988 68.5484 109.868 68.6242 109.663 68.7217C109.371 68.842 109.044 68.842 108.753 68.7217C108.31 68.4251 107.954 68.0159 107.722 67.5362C107.49 67.0565 107.389 66.5236 107.431 65.9923C107.427 65.3937 107.557 64.8017 107.811 64.2594C107.884 64.0436 108.007 63.8485 108.171 63.6903C108.335 63.532 108.535 63.4152 108.753 63.3496C108.893 63.3153 109.042 63.3325 109.171 63.3981C109.3 63.4636 109.401 63.5732 109.457 63.707C109.543 63.902 109.457 64.0428 109.533 64.0536C109.608 64.0644 109.684 63.9345 109.641 63.6529C109.601 63.4795 109.506 63.3237 109.37 63.2088C109.278 63.1345 109.173 63.079 109.059 63.0455C108.946 63.0121 108.827 63.0013 108.709 63.0139C108.418 63.0663 108.144 63.1937 107.916 63.3835C107.689 63.5734 107.514 63.8193 107.41 64.0969C107.099 64.6917 106.939 65.3537 106.944 66.0248C106.893 66.6451 107.027 67.2666 107.33 67.8104C107.633 68.3542 108.09 68.7958 108.645 69.0791C108.825 69.1319 109.016 69.1457 109.202 69.1195C109.389 69.0934 109.568 69.0279 109.728 68.9275C109.977 68.7108 110.02 68.5592 109.988 68.5484Z" fill="#AA6550"/>
<path d="M108.374 60.7719C109.037 60.7665 109.689 60.9409 110.261 61.2765C110.834 61.6122 111.304 62.0965 111.623 62.6781C112.013 63.6962 112.056 64.8443 112.446 65.8515C112.597 66.3772 112.918 66.8379 113.359 67.1614C113.8 67.4848 114.336 67.6527 114.883 67.6386C115.25 67.5451 115.587 67.3569 115.858 67.0927C116.13 66.8285 116.328 66.4976 116.432 66.1331C116.619 65.4013 116.667 64.6407 116.573 63.8912C116.356 60.6419 115.847 57.3927 115.912 54.0676C115.852 50.763 116.772 47.5145 118.555 44.7315C119.456 43.3535 120.713 42.244 122.192 41.5198C123.671 40.7955 125.318 40.4832 126.959 40.6158C129.126 40.9191 131.032 42.1538 133.155 42.5762C134.424 42.8178 135.732 42.7679 136.98 42.4302C138.228 42.0925 139.383 41.4758 140.357 40.6266C140.465 40.5337 140.581 40.4504 140.704 40.3775C141.058 40.1563 141.328 39.823 141.472 39.4305C141.615 39.038 141.623 38.6089 141.494 38.2114C141.423 37.9565 141.297 37.7201 141.126 37.5182C137.086 33.3375 129.461 31.7995 123.797 32.8935C120.894 33.4363 118.144 34.6038 115.737 36.315C113.33 38.0262 111.324 40.2402 109.858 42.8036C107.139 47.9482 107.431 55.324 108.471 60.7394" fill="#263238"/>
<path d="M130.469 69.9672C130.728 69.9672 130.728 71.646 132.18 72.8482C133.631 74.0505 135.429 73.8663 135.429 74.1046C135.429 74.3429 135.028 74.4404 134.259 74.4512C133.266 74.4722 132.298 74.138 131.53 73.5089C130.794 72.9049 130.32 72.0393 130.209 71.0936C130.111 70.3788 130.306 69.9564 130.469 69.9672Z" fill="#263238"/>
<path d="M227.74 127.284C227.74 127.284 235.376 120.579 236.816 120.081C238.256 119.583 249.759 119.377 250.528 119.951C251.297 120.525 262.94 126.905 261.012 127.89C259.084 128.876 251.015 124.251 251.015 124.251L249.661 124.435C249.661 124.435 256.701 128.194 257.947 129.634C259.192 131.075 258.001 132.569 256.69 131.952C255.38 131.334 249.336 127.858 248.86 127.988C248.383 128.118 255.293 132.158 255.932 132.916C256.788 133.912 256.236 135.862 254.903 135.299C254.124 134.974 247.755 130.75 247.755 130.75C249.558 132.225 251.279 133.797 252.911 135.461C253.474 136.544 252.391 137.53 251.275 136.847C250.517 136.382 247.235 133.154 246.217 132.515C246.217 132.515 245.134 132.428 243.434 134.205C241.733 135.981 235.224 138.396 235.224 138.396L227.74 127.284Z" fill="#B78876"/>
<path d="M260.979 127.912C260.155 128.03 259.314 127.978 258.51 127.76C257.625 127.582 256.758 127.321 255.921 126.98C255.023 126.547 254.037 126.049 252.997 125.518L250.831 124.435H250.983C249.01 124.538 247.033 124.484 245.069 124.273C247.021 123.962 248.996 123.821 250.972 123.85H251.037H251.113L253.279 124.933L256.106 126.417C256.902 126.769 257.724 127.058 258.564 127.284C260.048 127.717 260.99 127.814 260.979 127.912Z" fill="#AA6550"/>
<path d="M230.577 129.222C230.891 129.668 231.338 130.003 231.853 130.18C232.368 130.357 232.926 130.367 233.448 130.208C234.531 129.981 235.473 129.407 236.513 129.125C239.643 128.226 243.12 129.894 246.195 128.843C246.629 128.692 247.105 128.378 247.062 127.934C247.019 127.49 246.542 127.305 246.141 127.175L235.874 123.926" fill="#B78876"/>
<path d="M235.874 123.883C236.266 123.906 236.653 123.986 237.022 124.121C237.747 124.316 238.787 124.619 240.076 124.998L244.582 126.363L245.881 126.764C246.293 126.926 246.889 126.959 247.279 127.598C247.354 127.761 247.379 127.943 247.35 128.121C247.321 128.299 247.24 128.464 247.116 128.594C246.913 128.813 246.661 128.981 246.38 129.082C245.875 129.257 245.351 129.373 244.82 129.428C242.883 129.458 240.947 129.353 239.025 129.114C238.214 129.071 237.4 129.147 236.61 129.342C235.885 129.537 235.213 129.861 234.574 130.089C234.066 130.33 233.511 130.455 232.949 130.455C232.387 130.455 231.832 130.33 231.325 130.089C230.632 129.688 230.523 129.19 230.545 129.201C230.799 129.478 231.1 129.709 231.433 129.883C231.922 130.061 232.443 130.134 232.962 130.096C233.481 130.059 233.986 129.913 234.444 129.667C235.115 129.354 235.802 129.075 236.502 128.833C237.34 128.597 238.21 128.494 239.08 128.529C240.975 128.732 242.881 128.822 244.787 128.8C245.263 128.743 245.731 128.637 246.185 128.486C246.607 128.334 246.899 128.031 246.769 127.836C246.639 127.641 246.185 127.435 245.686 127.305L244.387 126.883L239.924 125.388C238.657 124.955 237.628 124.598 236.924 124.305C236.556 124.214 236.203 124.071 235.874 123.883Z" fill="#AA6550"/>
<path d="M184.384 183.171L197.045 181.914C197.045 181.914 213.79 193.384 212.208 195.908C210.627 198.431 207.876 195.908 207.876 195.908C207.876 195.908 210.855 199.579 206.035 200.727C206.035 200.727 204.887 203.251 203.056 203.023H201.908C201.908 203.023 200.825 206.218 199.32 205.525C197.814 204.832 193.103 200.716 193.103 200.716L180.106 199.568L184.384 183.171Z" fill="#B78876"/>
<path d="M192.258 196.222C192.258 196.222 189.009 197.467 188.348 198.778C187.688 200.088 187.265 203.11 189.366 203.706C190.598 203.785 191.835 203.745 193.06 203.587L192.258 200.175C192.862 199.474 193.506 198.809 194.186 198.182C194.879 197.608 194.121 195.366 192.258 196.222Z" fill="#FFBE9D"/>
<path d="M195.908 197.955C195.908 197.955 192.659 199.2 191.998 200.5C191.807 200.883 191.704 201.303 191.697 201.731C191.691 202.159 191.78 202.583 191.959 202.972C192.137 203.36 192.401 203.704 192.73 203.977C193.06 204.251 193.446 204.446 193.861 204.551C194.977 204.639 196.1 204.603 197.208 204.442L196.861 203.782C196.211 202.503 195.93 201.464 197.078 200.608C197.143 200.608 197.793 199.958 197.836 199.915C197.999 199.645 198.068 199.329 198.031 199.016C197.994 198.703 197.855 198.411 197.633 198.186C197.412 197.961 197.123 197.816 196.81 197.775C196.498 197.733 196.181 197.796 195.908 197.955Z" fill="#FFBE9D"/>
<path d="M196.688 204.323C196.414 204.027 196.241 203.651 196.194 203.25C196.148 202.849 196.229 202.443 196.428 202.092C196.855 201.396 197.54 200.897 198.334 200.706C198.579 200.602 198.848 200.57 199.11 200.612C199.373 200.654 199.618 200.769 199.818 200.944C199.916 201.084 199.984 201.243 200.02 201.41C200.055 201.578 200.057 201.751 200.024 201.919C199.804 202.813 199.347 203.633 198.702 204.291C198.399 204.67 198.031 205.081 197.544 205.07C197.056 205.06 196.699 204.605 196.46 204.193" fill="#FFBE9D"/>
<path d="M128.259 102.232L131.108 101.16L133.566 105.568L132.191 110.279L129.288 110.994L126.396 107.344L128.259 102.232Z" fill="#90D904"/>
<path d="M129.288 110.994C129.288 110.994 132.981 131.259 136.046 145.512C136.046 145.512 138.57 157.426 139.588 160.112C140.725 163.177 144.234 167.693 144.234 167.693L147.798 169.08L145.632 149.054L132.201 110.279L129.288 110.994Z" fill="#90D904"/>
<g opacity="0.4">
<path d="M128.259 102.232L131.108 101.16L133.566 105.568L132.191 110.279L129.288 110.994L126.396 107.344L128.259 102.232Z" fill="black"/>
</g>
<g opacity="0.4">
<path d="M129.288 110.994C129.288 110.994 132.981 131.259 136.046 145.512C136.046 145.512 138.938 157.274 139.588 160.112C139.967 161.791 144.234 167.693 144.234 167.693L147.798 169.08L145.632 149.054L132.201 110.279L129.288 110.994Z" fill="black"/>
</g>
<path d="M111.168 89.9175L128.259 102.232L124.566 112.391L109.013 96.3835L111.168 89.9175Z" fill="#F5F5F5"/>
<path d="M131.108 101.16L135.873 90.5024L138.581 99.297L134.823 108.525L131.108 101.16Z" fill="#F5F5F5"/>
<path d="M128.302 102.232C128.27 102.499 128.204 102.761 128.107 103.012L127.414 105.178C126.808 106.987 125.92 109.51 124.847 112.521L124.707 112.933L124.403 112.608L120.428 108.211C117.331 104.777 114.547 101.647 112.565 99.362L110.226 96.6326C109.92 96.3019 109.651 95.9387 109.424 95.5496C109.776 95.8192 110.099 96.124 110.388 96.4593L112.858 99.0587C114.926 101.225 117.753 104.366 120.84 107.799C122.237 109.359 123.569 110.853 124.804 112.218L124.36 112.305C125.443 109.337 126.418 106.814 127.111 105.026L127.945 102.958C128.029 102.7 128.149 102.456 128.302 102.232Z" fill="#263238"/>
<path d="M138.581 99.3403C138.399 100.196 138.131 101.031 137.779 101.831C137.227 103.337 136.415 105.416 135.483 107.691L135.082 108.676L134.801 109.359L134.563 108.666C133.62 106.243 132.479 103.903 131.151 101.669C131.72 102.18 132.203 102.78 132.581 103.445C133.617 105.017 134.46 106.708 135.093 108.482H134.563C134.693 108.157 134.833 107.832 134.963 107.496C135.895 105.211 136.761 103.164 137.411 101.691C137.708 100.864 138.101 100.076 138.581 99.3403Z" fill="#263238"/>
<path d="M355.749 420.007L362.334 446.153L373.511 465.334C373.702 465.661 373.824 466.024 373.868 466.4C373.913 466.775 373.88 467.157 373.772 467.519C373.663 467.882 373.481 468.218 373.237 468.507C372.993 468.797 372.692 469.033 372.352 469.201C371.963 469.404 371.53 469.51 371.091 469.51C370.651 469.51 370.218 469.404 369.829 469.201C364.803 466.493 346.391 456.431 346.001 454.493C345.568 452.251 337.217 427.416 337.217 427.416L355.749 420.007Z" fill="#90D904"/>
<g opacity="0.6">
<path d="M372.396 469.201L345.579 452.705L345.882 453.789C346.142 454.742 346.734 455.571 347.55 456.128C349.716 457.612 355.868 461.543 369.786 469.125C370.187 469.338 370.636 469.45 371.091 469.45C371.546 469.45 371.994 469.338 372.396 469.125V469.201Z" fill="white"/>
</g>
<g opacity="0.6">
<path d="M348.59 442.849C348.976 442.994 349.295 443.277 349.485 443.643C349.675 444.009 349.722 444.432 349.619 444.831C349.487 445.222 349.21 445.547 348.845 445.739C348.479 445.93 348.055 445.974 347.658 445.86C347.248 445.708 346.91 445.408 346.71 445.02C346.509 444.631 346.461 444.181 346.575 443.759C346.753 443.362 347.08 443.051 347.485 442.893C347.89 442.735 348.342 442.743 348.741 442.914" fill="white"/>
</g>
<path d="M363.33 459.485C363.727 458.5 364.308 457.6 365.042 456.832C365.894 456.196 366.856 455.722 367.879 455.435C367.879 455.37 367.5 455.262 366.872 455.337C366.049 455.475 365.281 455.841 364.656 456.395C364.032 456.948 363.576 457.667 363.341 458.467C363.179 459.096 363.244 459.485 363.33 459.485Z" fill="#263238"/>
<path d="M366.125 462.453C366.287 462.54 366.883 461.457 368.118 460.699C368.915 460.312 369.732 459.969 370.565 459.67C370.096 459.531 369.6 459.507 369.12 459.6C368.639 459.692 368.188 459.898 367.804 460.2C366.406 461.088 365.973 462.421 366.125 462.453Z" fill="#263238"/>
<path d="M358.641 455.976C360.284 453.751 362.543 452.057 365.139 451.102C363.705 451.215 362.333 451.733 361.182 452.596C360.031 453.459 359.15 454.631 358.641 455.976Z" fill="#263238"/>
<path d="M355.965 448.2C356.085 448.33 357.352 447.333 359.215 446.759C361.078 446.185 362.67 446.207 362.681 446.034C361.484 445.65 360.191 445.703 359.031 446.185C357.806 446.48 356.722 447.192 355.965 448.2Z" fill="#263238"/>
<path d="M353.843 440.575C354.87 439.889 355.989 439.353 357.168 438.983C358.385 438.782 359.624 438.749 360.85 438.885C360.85 438.82 360.504 438.582 359.767 438.398C358.852 438.179 357.898 438.179 356.984 438.398C356.069 438.613 355.218 439.044 354.503 439.654C354.005 440.131 353.788 440.51 353.843 440.575Z" fill="#263238"/>
<path d="M356.713 437.542C356.712 437.197 356.635 436.857 356.485 436.546C356.148 435.668 355.64 434.866 354.991 434.185C354.556 433.649 353.959 433.269 353.29 433.102C353.064 433.065 352.833 433.101 352.628 433.204C352.424 433.307 352.258 433.472 352.153 433.676C351.963 434.075 351.932 434.532 352.066 434.954C352.364 435.812 352.953 436.539 353.73 437.01C354.507 437.481 355.424 437.665 356.323 437.532C357.208 437.378 358.028 436.966 358.68 436.348C359.331 435.729 359.785 434.931 359.984 434.055C360.03 433.834 360.029 433.606 359.98 433.386C359.932 433.165 359.837 432.958 359.702 432.777C359.547 432.609 359.343 432.495 359.12 432.45C358.896 432.406 358.664 432.433 358.457 432.528C357.854 432.845 357.345 433.315 356.984 433.892C356.432 434.651 356.022 435.502 355.77 436.405C355.65 436.726 355.598 437.07 355.619 437.412C356.023 436.252 356.596 435.157 357.319 434.163C357.655 433.676 358.105 433.278 358.63 433.004C358.744 432.951 358.871 432.937 358.994 432.962C359.117 432.987 359.229 433.052 359.312 433.145C359.39 433.27 359.442 433.409 359.464 433.554C359.486 433.699 359.479 433.848 359.442 433.99C359.246 434.747 358.835 435.431 358.258 435.96C357.682 436.488 356.964 436.839 356.193 436.968C355.429 437.077 354.651 436.921 353.987 436.527C353.323 436.133 352.814 435.525 352.543 434.802C352.439 434.512 352.439 434.194 352.543 433.903C352.599 433.789 352.691 433.696 352.804 433.637C352.917 433.579 353.045 433.558 353.171 433.578C353.734 433.721 354.24 434.03 354.622 434.466C355.498 435.358 356.206 436.4 356.713 437.542Z" fill="#263238"/>
<path d="M274.117 424.881L275.514 445.037C275.514 445.037 255.499 453.225 255.391 456.951L294.566 455.673L293.688 424.177L274.117 424.881Z" fill="#90D904"/>
<path d="M287.569 442.936C287.952 443.038 288.283 443.279 288.499 443.611C288.715 443.943 288.8 444.343 288.739 444.734C288.653 445.121 288.422 445.46 288.093 445.681C287.765 445.903 287.364 445.99 286.973 445.925C286.57 445.816 286.221 445.56 285.995 445.208C285.769 444.856 285.681 444.432 285.749 444.019C285.883 443.628 286.163 443.304 286.53 443.114C286.898 442.924 287.324 442.884 287.721 443.001" fill="#E0E0E0"/>
<path d="M294.566 455.673L294.36 452.5L256.875 454.937C256.875 454.937 255.152 455.76 255.391 456.984L294.566 455.673Z" fill="#E0E0E0"/>
<path d="M274.875 444.842C274.875 445.026 275.85 445.091 276.803 445.665C277.756 446.24 278.298 447.041 278.471 446.965C278.644 446.889 278.32 445.785 277.15 445.091C275.98 444.398 274.832 444.691 274.875 444.842Z" fill="#263238"/>
<path d="M270.825 446.694C270.825 446.889 271.626 447.182 272.298 447.972C272.969 448.763 273.197 449.608 273.381 449.597C273.565 449.586 273.662 448.514 272.796 447.528C271.929 446.543 270.825 446.521 270.825 446.694Z" fill="#263238"/>
<path d="M268.648 451.698C268.832 451.698 269.059 450.767 268.539 449.738C268.019 448.709 267.099 448.319 267.023 448.481C266.947 448.644 267.521 449.185 267.944 450.03C268.366 450.875 268.464 451.677 268.648 451.698Z" fill="#263238"/>
<path d="M275.07 440.239C275.157 440.402 276.023 440.109 277.107 440.153C278.19 440.196 279.045 440.499 279.132 440.337C279.219 440.174 278.395 439.514 277.117 439.481C275.839 439.449 274.962 440.088 275.07 440.239Z" fill="#263238"/>
<path d="M274.865 436.178C275.514 436.322 276.189 436.296 276.825 436.102C277.526 435.95 278.206 435.713 278.85 435.398C279.227 435.213 279.589 434.999 279.933 434.759C280.155 434.635 280.353 434.474 280.518 434.282C280.639 434.142 280.709 433.967 280.719 433.782C280.729 433.598 280.677 433.416 280.572 433.264C280.47 433.135 280.34 433.031 280.192 432.96C280.044 432.888 279.881 432.852 279.717 432.853C279.466 432.858 279.218 432.901 278.98 432.983C278.566 433.095 278.163 433.247 277.778 433.437C277.127 433.756 276.531 434.177 276.013 434.683C275.124 435.56 274.843 436.286 274.93 436.318C275.016 436.351 275.439 435.766 276.338 435.04C276.863 434.607 277.442 434.243 278.06 433.957C278.409 433.8 278.772 433.674 279.143 433.578C279.554 433.459 279.901 433.437 280.02 433.578C280.139 433.719 280.02 433.676 280.02 433.795C279.894 433.935 279.748 434.055 279.587 434.152C279.26 434.381 278.92 434.591 278.569 434.78C277.971 435.096 277.348 435.36 276.706 435.571C276.076 435.722 275.461 435.925 274.865 436.178Z" fill="#263238"/>
<path d="M275.114 436.427C275.189 436.427 275.547 435.755 275.569 434.521C275.58 433.785 275.467 433.052 275.233 432.354C275.095 431.946 274.913 431.554 274.691 431.185C274.577 430.93 274.4 430.709 274.176 430.542C273.953 430.375 273.69 430.268 273.413 430.232C273.239 430.241 273.071 430.301 272.929 430.402C272.787 430.504 272.677 430.644 272.612 430.806C272.515 431.037 272.453 431.282 272.428 431.531C272.362 431.969 272.362 432.415 272.428 432.853C272.561 433.585 272.874 434.273 273.337 434.856C274.139 435.842 274.94 436.048 274.951 435.939C274.962 435.831 274.334 435.495 273.716 434.531C273.358 433.982 273.125 433.361 273.034 432.712C272.98 432.335 272.98 431.952 273.034 431.575C273.034 431.163 273.229 430.816 273.381 430.86C273.532 430.903 273.922 431.152 274.096 431.477C274.297 431.824 274.47 432.186 274.615 432.56C274.857 433.185 275.007 433.842 275.059 434.51C275.189 435.679 275.016 436.405 275.114 436.427Z" fill="#263238"/>
<path d="M263.427 205.634L269.731 440.185L300.642 439.254L298.259 237.953L337.64 444.853L365.551 437.564L329.517 206.088L263.427 205.634Z" fill="#263238"/>
<path d="M280.367 440.51C280.204 440.51 280.085 391.891 280.085 331.921C280.085 271.95 280.204 223.331 280.367 223.331C280.529 223.331 280.648 271.94 280.648 331.921C280.648 391.901 280.518 440.51 280.367 440.51Z" fill="#455A64"/>
<path d="M346.456 444.777C346.304 444.777 339.091 398.205 330.34 340.683C321.589 283.16 314.592 236.501 314.776 236.48C314.96 236.458 322.141 283.052 330.892 340.596C339.643 398.14 346.619 444.756 346.456 444.777Z" fill="#455A64"/>
<path d="M307.714 58.9631C308.791 56.553 309.664 54.0568 310.325 51.5007C310.693 49.5512 311.278 46.6377 310.498 44.8181C309.718 42.9986 307.823 41.244 305.44 41.7422C305.193 39.8282 304.461 38.009 303.314 36.4568C302.168 34.9045 300.644 33.6706 298.887 32.8718C295.497 31.2316 291.816 30.2747 288.056 30.0558C286.681 29.9166 285.293 30.0907 283.995 30.5648C282.893 31.124 282.025 32.0568 281.547 33.1967C280.411 32.3797 279.099 31.8396 277.717 31.6196C276.335 31.3995 274.92 31.5057 273.587 31.9295C270.597 32.731 267.196 34.3448 265.886 37.1391C264.947 39.2303 264.866 41.606 265.658 43.7567C266.232 45.5763 268.16 48.4356 269.991 47.7641" fill="#263238"/>
<path d="M292.649 109.554C290.856 109.517 289.089 109.12 287.453 108.387C285.816 107.654 284.344 106.599 283.124 105.286C281.903 103.972 280.959 102.427 280.348 100.741C279.737 99.0556 279.47 97.2643 279.565 95.4737C279.749 91.7371 279.922 88.7153 279.922 88.7153C279.922 88.7153 269.72 87.394 269.341 77.2347C268.962 67.0754 270.142 43.7242 270.142 43.7242C275.859 41.1065 282.17 40.0626 288.425 40.7005C294.68 41.3384 300.651 43.6348 305.721 47.3526L307.249 48.4356L306.306 96.4268C306.273 98.1859 305.892 99.921 305.187 101.533C304.483 103.145 303.467 104.602 302.198 105.821C300.93 107.04 299.434 107.998 297.795 108.638C296.156 109.278 294.408 109.59 292.649 109.554Z" fill="#FFBE9D"/>
<path d="M279.933 88.607C284.625 88.5752 289.202 87.1503 293.082 84.5129C293.082 84.5129 289.952 92.3869 279.793 91.7262L279.933 88.607Z" fill="#EB996E"/>
<path d="M306.263 58.9956C306.436 58.9198 313.195 56.7536 313.141 63.707C313.086 70.6604 306.133 69.1765 306.122 68.9708C306.111 68.765 306.263 58.9956 306.263 58.9956Z" fill="#FFBE9D"/>
<path d="M308.256 66.3498C308.256 66.3498 308.386 66.4364 308.581 66.5339C308.725 66.5947 308.879 66.626 309.036 66.626C309.192 66.626 309.347 66.5947 309.491 66.5339C309.943 66.2542 310.312 65.8586 310.559 65.3882C310.807 64.9178 310.924 64.3897 310.899 63.8587C310.921 63.263 310.806 62.6701 310.563 62.1258C310.501 61.9087 310.387 61.7101 310.23 61.5477C310.073 61.3852 309.879 61.2639 309.664 61.1943C309.526 61.1549 309.378 61.166 309.247 61.2255C309.116 61.285 309.01 61.3891 308.949 61.5192C308.852 61.7142 308.895 61.8442 308.862 61.855C308.83 61.8658 308.711 61.7467 308.765 61.4542C308.808 61.2824 308.907 61.1298 309.046 61.021C309.241 60.8819 309.48 60.8202 309.718 60.8477C310.001 60.9088 310.265 61.04 310.484 61.2292C310.704 61.4184 310.872 61.6596 310.974 61.9308C311.269 62.5331 311.407 63.1999 311.375 63.8695C311.404 64.4883 311.25 65.1018 310.932 65.6334C310.614 66.1651 310.147 66.5913 309.588 66.8588C309.404 66.9053 309.212 66.912 309.025 66.8784C308.839 66.8448 308.661 66.7716 308.505 66.6639C308.267 66.5231 308.234 66.3714 308.256 66.3498Z" fill="#EB996E"/>
<path d="M272.774 59.613C272.783 59.9914 272.937 60.3518 273.206 60.6185C273.475 60.8851 273.836 61.0372 274.215 61.0427C274.399 61.0529 274.584 61.026 274.759 60.9636C274.933 60.9012 275.093 60.8046 275.229 60.6794C275.365 60.5543 275.475 60.4031 275.552 60.2348C275.629 60.0666 275.671 59.8846 275.677 59.6997C275.671 59.3204 275.517 58.9584 275.248 58.6912C274.979 58.424 274.616 58.2728 274.236 58.27C274.052 58.2613 273.868 58.2892 273.694 58.3521C273.521 58.415 273.361 58.5117 273.225 58.6366C273.089 58.7615 272.979 58.9121 272.902 59.0797C272.825 59.2473 272.781 59.4285 272.774 59.613Z" fill="#263238"/>
<path d="M272.417 57.9884C272.601 58.1725 273.684 57.3385 275.244 57.306C276.803 57.2735 277.973 58.0209 278.135 57.8259C278.298 57.6309 278.027 57.4035 277.518 57.0461C276.83 56.5971 276.021 56.3702 275.2 56.3962C274.388 56.4141 273.602 56.6911 272.958 57.1869C272.482 57.566 272.352 57.9126 272.417 57.9884Z" fill="#263238"/>
<path d="M288.067 59.6022C288.078 59.9787 288.234 60.3364 288.503 60.6007C288.771 60.865 289.131 61.0156 289.508 61.021C289.693 61.0327 289.878 61.0069 290.053 60.9451C290.228 60.8833 290.389 60.7867 290.525 60.6613C290.662 60.5358 290.772 60.384 290.848 60.2151C290.924 60.0461 290.966 59.8634 290.97 59.678C290.964 59.3005 290.812 58.9402 290.545 58.6732C290.278 58.4063 289.918 58.2539 289.54 58.2483C289.354 58.2396 289.169 58.2678 288.994 58.3313C288.819 58.3947 288.658 58.4922 288.521 58.6181C288.385 58.744 288.274 58.8958 288.196 59.0647C288.118 59.2336 288.074 59.4163 288.067 59.6022Z" fill="#263238"/>
<path d="M287.764 57.9017C287.959 58.0859 289.031 57.2411 290.591 57.2086C292.15 57.1761 293.32 57.9234 293.483 57.7285C293.645 57.5335 293.374 57.3061 292.865 56.9595C292.18 56.5034 291.37 56.2724 290.547 56.2988C289.735 56.3166 288.95 56.5937 288.306 57.0894C287.829 57.4685 287.677 57.8151 287.764 57.9017Z" fill="#263238"/>
<path d="M282.392 69.6098C281.563 69.3761 280.708 69.2451 279.847 69.2199C279.446 69.2199 279.067 69.1224 278.991 68.8517C278.955 68.4399 279.038 68.0266 279.229 67.6603C279.587 66.6855 279.955 65.6674 280.312 64.5952C281.84 60.2629 282.933 56.6562 282.76 56.5912C282.587 56.5262 281.201 60.0246 279.673 64.3786L278.59 67.4653C278.35 67.9521 278.288 68.5082 278.417 69.0358C278.484 69.1713 278.578 69.2914 278.693 69.3884C278.809 69.4853 278.944 69.5571 279.089 69.599C279.312 69.6529 279.541 69.6784 279.771 69.6748C280.643 69.7728 281.525 69.7509 282.392 69.6098Z" fill="#263238"/>
<path d="M287.017 70.5846C286.757 70.5846 286.8 72.2634 285.381 73.5089C283.962 74.7545 282.132 74.592 282.132 74.8411C282.132 75.0902 282.544 75.1552 283.313 75.1552C284.304 75.1463 285.26 74.7855 286.009 74.1371C286.734 73.5167 287.188 72.6389 287.277 71.6893C287.331 70.9853 287.136 70.5629 287.017 70.5846Z" fill="#263238"/>
<path d="M287.212 51.7932C287.374 52.2156 288.934 51.9773 290.764 52.1506C292.595 52.3239 294.1 52.7788 294.327 52.3997C294.436 52.2156 294.165 51.8149 293.558 51.4249C292.755 50.9316 291.845 50.6381 290.905 50.5693C289.963 50.4788 289.013 50.6124 288.132 50.9592C287.515 51.2517 287.147 51.5874 287.212 51.7932Z" fill="#263238"/>
<path d="M272.882 53.4611C273.164 53.8077 274.226 53.4611 275.525 53.3636C276.825 53.2662 277.919 53.5369 278.157 53.1687C278.265 52.9846 278.081 52.6271 277.594 52.3022C276.941 51.9187 276.189 51.7376 275.433 51.782C274.677 51.8263 273.952 52.0941 273.348 52.5513C272.893 52.9196 272.753 53.2878 272.882 53.4611Z" fill="#263238"/>
<path d="M307.79 49.2371C307.725 52.2047 308.472 55.4865 308.018 58.3999C307.953 58.844 306.848 60.0462 306.75 60.4795C306.22 63.068 305.18 64.1944 303.588 61.5625C302.97 60.5553 302.505 57.7284 302.266 56.5804L300.187 47.2551C297.833 48.5521 295.195 49.2478 292.508 49.2804C291.167 49.2774 289.848 48.9327 288.677 48.2789C287.506 47.6252 286.521 46.6839 285.814 45.5438C285.206 46.6157 284.363 47.5366 283.349 48.2379C282.335 48.9392 281.177 49.4028 279.959 49.5943C278.741 49.7859 277.496 49.7003 276.316 49.344C275.135 48.9878 274.051 48.37 273.142 47.5367C272.666 48.2485 271.939 48.755 271.106 48.9557C270.274 49.1563 269.396 49.0364 268.648 48.6197C267.922 48.1612 267.36 47.4844 267.043 46.6865C266.726 45.8887 266.669 45.0109 266.882 44.1791C267.521 41.688 270.131 40.28 272.59 39.4894C282.175 36.4026 292.919 38.4063 301.725 43.2368C303.037 43.9054 304.242 44.767 305.299 45.7929C306.317 46.876 307.725 48.089 307.801 49.562" fill="#263238"/>
<path d="M300.512 48.4356C301.045 48.4337 301.576 48.5178 302.082 48.6848C302.613 48.9144 303.104 49.229 303.534 49.6162C304.032 50.0494 304.519 50.6126 305.115 51.165C305.669 51.7241 306.343 52.15 307.086 52.4105C307.716 52.5894 308.384 52.5894 309.014 52.4105C310.097 52.1073 310.509 51.5224 310.465 51.4791C309.966 51.6904 309.452 51.8642 308.927 51.999C308.368 52.0941 307.794 52.0456 307.259 51.8582C306.603 51.605 306.008 51.2135 305.516 50.7101C304.952 50.1794 304.433 49.627 303.891 49.1721C303.398 48.7654 302.832 48.4565 302.223 48.2623C301.107 47.9591 300.436 48.4356 300.512 48.4356Z" fill="#455A64"/>
<path d="M301.671 51.4682C301.671 51.5549 302.191 51.4682 302.754 51.9556C303.085 52.2582 303.383 52.5959 303.642 52.9629C303.996 53.4552 304.445 53.8714 304.963 54.1868C305.907 54.7731 307.026 55.0107 308.126 54.8583C308.96 54.7283 309.393 54.425 309.361 54.3601C309.328 54.2951 308.852 54.425 308.083 54.4359C307.094 54.4617 306.119 54.1982 305.277 53.6777C304.281 53.1253 303.783 52.0639 302.992 51.609C302.201 51.1541 301.595 51.3924 301.671 51.4682Z" fill="#455A64"/>
<path d="M274.886 31.7129C274.886 31.7129 274.55 31.6262 273.987 31.7995C273.194 32.0648 272.51 32.5821 272.038 33.2725C270.792 35.0163 270.5 38.1031 271.464 41.1032C272.315 43.6863 274.089 45.8649 276.446 47.2226C277.144 47.6283 277.89 47.9448 278.666 48.1648C278.946 48.2716 279.244 48.3231 279.543 48.3165C278.566 47.8792 277.611 47.3912 276.684 46.8543C274.503 45.4644 272.87 43.364 272.059 40.9082C271.139 38.0814 271.355 35.1246 272.406 33.5C272.814 32.8526 273.401 32.3373 274.096 32.0161C274.572 31.7887 274.886 31.767 274.886 31.7129Z" fill="#455A64"/>
<path d="M266.471 35.9261C266.355 36.578 266.384 37.2474 266.557 37.8865C267.179 41.0442 269.03 43.8257 271.702 45.6197C272.225 46.028 272.831 46.3164 273.478 46.4645C271.701 45.217 270.138 43.6878 268.853 41.9372C266.828 38.9479 266.666 35.8936 266.471 35.9261Z" fill="#455A64"/>
<path d="M210.465 177.474L195.605 178.221C194.693 178.268 193.835 178.667 193.211 179.334C192.587 180 192.246 180.882 192.258 181.795C192.334 185.196 192.908 189.842 195.507 189.377L197.197 181.979L209.533 192.81C210.781 193.934 212.32 194.685 213.974 194.976L216.877 194.673L210.465 177.474Z" fill="#FFBE9D"/>
<path d="M281.525 97.8781L273.76 100.445L269.904 164.942V222.161L317.592 227.436L318.144 144.927L315.068 103.868L307.779 95.1596L281.525 97.8781Z" fill="#E0E0E0"/>
<path d="M279.132 100.965V94.7155L307.476 90.7731L306.339 105.167L299.829 116.453L289.183 117.049L281.493 112.305L279.132 100.965Z" fill="#E0E0E0"/>
<path d="M281.677 100.239C281.436 99.3061 281.38 98.3345 281.515 97.38C281.467 96.4172 281.603 95.4541 281.915 94.5423C282.157 95.4755 282.212 96.4471 282.078 97.4016C282.126 98.3644 281.99 99.3275 281.677 100.239Z" fill="#263238"/>
<path d="M288.76 99.7194C288.547 98.6676 288.514 97.5871 288.663 96.5243C288.634 95.4503 288.796 94.3796 289.14 93.3617C289.358 94.4313 289.388 95.5311 289.226 96.6109C289.256 97.6665 289.098 98.7189 288.76 99.7194Z" fill="#263238"/>
<path d="M295.616 99.0046C295.431 97.8858 295.431 96.7441 295.616 95.6254C295.606 94.4916 295.786 93.3641 296.147 92.2895C296.326 93.4088 296.326 94.5494 296.147 95.6687C296.151 96.802 295.972 97.9284 295.616 99.0046Z" fill="#263238"/>
<path d="M302.201 97.9215C301.771 95.8108 301.871 93.6261 302.494 91.5638C302.637 92.6204 302.637 93.6915 302.494 94.7481C302.537 95.8141 302.438 96.8812 302.201 97.9215Z" fill="#263238"/>
<path d="M299.05 125.183C298.975 125.56 298.847 125.924 298.671 126.266C298.4 126.937 297.977 127.89 297.425 129.06C296.342 131.389 294.685 134.562 292.67 137.941C290.656 141.32 288.652 144.288 287.125 146.368C286.367 147.451 285.739 148.241 285.284 148.804C285.067 149.113 284.812 149.393 284.526 149.638C285.22 148.432 285.979 147.264 286.8 146.14C288.241 143.974 290.179 141.028 292.215 137.66C294.252 134.291 295.909 131.161 297.1 128.876C297.685 127.612 298.336 126.379 299.05 125.183Z" fill="#263238"/>
<path d="M307.638 94.1523L315.328 97.8565L330.188 101.506C333.328 102.052 336.136 103.788 338.028 106.352C339.921 108.916 340.751 112.111 340.347 115.272L332.56 175.925L341.853 234.736L305.028 233.653L302.862 211.775V151.122L307.638 94.1523Z" fill="#455A64"/>
<path d="M302.862 165.094C302.88 164.839 302.916 164.586 302.97 164.336C303.079 163.794 303.22 163.09 303.393 162.17L305.028 154.35L310.649 128.605C311.267 125.843 311.862 123.19 312.437 120.569L312.512 120.829L309.956 118.153L309.815 118.002L309.924 117.828L314.202 110.713V110.918L309.48 99.4811C308.949 98.1489 308.516 97.0767 308.202 96.2319C308.033 95.861 307.896 95.477 307.79 95.0838C308.007 95.4253 308.189 95.7882 308.332 96.1669L309.74 99.3186L314.592 110.767L314.646 110.875L314.581 110.983C313.27 113.15 311.852 115.586 310.346 118.143V117.818L312.902 120.471L313.011 120.579V120.72C312.437 123.309 311.841 125.995 311.234 128.757C308.981 138.775 306.902 147.841 305.451 154.469C304.703 157.718 304.086 160.35 303.642 162.256L303.122 164.357C303.061 164.611 302.974 164.858 302.862 165.094Z" fill="#263238"/>
<path d="M211.093 175.026L243.672 156.863L259.452 114.287C260.545 111.346 262.231 108.661 264.406 106.399C266.58 104.137 269.196 102.346 272.092 101.138L276.283 99.3945V211.482L277.117 238.039L259.463 232.754L268.474 179.38L265.355 153.115L262.268 165.82C261.725 168.074 260.732 170.195 259.35 172.056C257.967 173.917 256.222 175.48 254.221 176.65L220.364 194.24L211.093 175.026Z" fill="#455A64"/>
<path d="M211.483 175.849L208.743 176.672L216.454 195.063L220.05 193.666L211.483 175.849Z" fill="#E0E0E0"/>
<path d="M249.607 164.422C248.936 162.968 248.12 161.586 247.17 160.296C246.075 159.129 244.867 158.073 243.564 157.144C245.14 157.689 246.537 158.655 247.603 159.938C248.669 161.222 249.362 162.773 249.607 164.422Z" fill="#263238"/>
<path d="M215.003 175.264C215.003 175.34 214.84 175.481 214.819 175.795C214.797 176.109 215.003 176.477 215.436 176.347C215.518 176.328 215.593 176.288 215.654 176.229C215.714 176.171 215.758 176.098 215.78 176.017C215.802 175.935 215.802 175.85 215.78 175.769C215.757 175.688 215.713 175.615 215.653 175.557C215.469 175.297 215.23 175.286 215.219 175.199C215.209 175.112 215.523 174.961 215.934 175.264C216.053 175.358 216.148 175.479 216.212 175.616C216.276 175.753 216.307 175.903 216.302 176.055C216.285 176.249 216.208 176.433 216.082 176.582C215.956 176.732 215.787 176.839 215.598 176.889C215.434 176.946 215.257 176.956 215.088 176.916C214.918 176.877 214.764 176.791 214.641 176.667C214.519 176.544 214.434 176.388 214.396 176.219C214.359 176.049 214.37 175.872 214.429 175.708C214.613 175.221 214.949 175.156 215.003 175.264Z" fill="#263238"/>
<path d="M217.624 174.159C217.624 174.235 217.461 174.376 217.451 174.69C217.44 175.004 217.635 175.372 218.068 175.242C218.15 175.222 218.225 175.179 218.285 175.12C218.345 175.061 218.388 174.987 218.41 174.905C218.432 174.823 218.432 174.737 218.41 174.656C218.388 174.574 218.345 174.5 218.285 174.441C218.1 174.192 217.862 174.17 217.84 174.094C217.819 174.019 218.144 173.845 218.566 174.159C218.684 174.251 218.779 174.37 218.843 174.505C218.907 174.641 218.939 174.789 218.934 174.939C218.913 175.135 218.835 175.32 218.708 175.471C218.582 175.622 218.414 175.733 218.225 175.788C218.036 175.844 217.835 175.842 217.647 175.784C217.459 175.725 217.293 175.612 217.169 175.459C217.086 175.333 217.032 175.189 217.014 175.038C216.995 174.888 217.011 174.736 217.061 174.593C217.245 174.073 217.624 174.073 217.624 174.159Z" fill="#263238"/>
<path d="M276.283 166.816C276.21 166.595 276.162 166.366 276.143 166.134C276.067 165.614 275.958 164.953 275.839 164.13C275.59 162.321 275.254 159.798 274.843 156.776C274.041 150.494 272.958 141.927 271.756 132.472C271.594 131.129 271.431 129.807 271.269 128.497V128.432V128.367C272.092 126.276 272.893 124.251 273.652 122.312V122.518C272.828 120.644 272.038 118.847 271.301 117.103V117.027V116.94C272.753 111.731 273.966 107.344 274.832 104.182C275.265 102.687 275.612 101.496 275.861 100.608C275.968 100.178 276.109 99.758 276.283 99.3511C276.226 99.7871 276.136 100.218 276.013 100.64C275.796 101.539 275.493 102.752 275.114 104.257C274.29 107.431 273.142 111.839 271.789 117.07V116.908L274.182 122.258V122.356V122.464L271.81 128.583V128.443C271.973 129.742 272.135 131.074 272.308 132.418C273.392 141.884 274.475 150.451 275.222 156.733C275.569 159.798 275.85 162.3 276.045 164.119L276.24 166.123C276.282 166.351 276.297 166.584 276.283 166.816Z" fill="#263238"/>
<path d="M268.442 179.694C268.389 179.521 268.352 179.343 268.334 179.163C268.279 178.752 268.204 178.243 268.117 177.636C267.944 176.217 267.716 174.311 267.424 171.993C266.85 167.228 266.037 160.653 265.063 153.397C264.088 146.14 263.135 139.577 262.442 134.833C262.106 132.526 261.824 130.62 261.618 129.212C261.543 128.594 261.478 128.129 261.424 127.674C261.395 127.494 261.395 127.311 261.424 127.132C261.488 127.3 261.535 127.474 261.564 127.652C261.651 128.064 261.748 128.562 261.868 129.168C262.117 130.49 262.463 132.418 262.864 134.768C263.666 139.501 264.684 146.053 265.658 153.321C266.633 160.588 267.38 167.173 267.825 171.95C268.063 174.333 268.236 176.282 268.344 177.604C268.344 178.221 268.42 178.687 268.442 179.152C268.47 179.332 268.47 179.514 268.442 179.694Z" fill="#263238"/>
<path d="M263.947 219.562C264.155 219.897 264.407 220.202 264.694 220.472C265.107 220.804 265.589 221.037 266.106 221.153C266.622 221.27 267.158 221.266 267.673 221.143C268.426 220.907 269.112 220.496 269.676 219.945C270.241 219.393 270.668 218.717 270.922 217.97C271.517 216.084 271.824 214.12 271.832 212.143C272.066 210.184 271.863 208.197 271.236 206.327C270.545 204.878 269.534 203.604 268.279 202.601C267.432 201.875 266.675 201.05 266.027 200.142C265.774 199.824 265.593 199.454 265.496 199.059C265.496 199.059 265.723 199.428 266.2 200.034C266.908 200.873 267.695 201.642 268.55 202.33C269.895 203.333 270.98 204.644 271.713 206.153C272.407 208.088 272.64 210.157 272.395 212.197C272.386 214.233 272.053 216.255 271.41 218.186C271.116 218.993 270.634 219.718 270.005 220.301C269.377 220.885 268.618 221.311 267.792 221.544C267.219 221.677 266.622 221.666 266.055 221.511C265.488 221.356 264.968 221.062 264.543 220.656C264.322 220.437 264.143 220.18 264.012 219.898C263.947 219.649 263.925 219.562 263.947 219.562Z" fill="#263238"/>
<path d="M251.838 177.474C251.838 177.474 252.921 165.051 262.756 163.903C262.756 163.903 262.94 174.073 251.838 177.474Z" fill="#263238"/>
<path d="M304.563 223.992L333.21 242.729L336.459 240.14L337.986 198.15L310.704 177.474L306.956 178.762L304.563 223.992Z" fill="#90D904"/>
<path d="M310.389 178.069L311.505 223.515H305.483L307.498 178.968L310.389 178.069Z" fill="#E0E0E0"/>
<path d="M319.401 233.956C319.668 234.598 320.119 235.146 320.697 235.531C321.276 235.917 321.955 236.122 322.65 236.122C322.702 236.137 322.751 236.163 322.792 236.198C322.833 236.234 322.866 236.278 322.888 236.328C323.157 236.82 323.549 237.235 324.025 237.531C324.501 237.827 325.046 237.995 325.607 238.018C326.695 238.016 327.761 237.708 328.683 237.13C330.177 236.22 332.842 230.241 332.842 230.241L339.156 216.161L328.542 213.291L315.047 217.493C315.047 217.742 311.884 230.49 311.884 230.49C312.653 230.673 313.462 230.569 314.16 230.198C314.857 229.827 315.396 229.215 315.675 228.476C316.36 226.933 317.157 225.441 318.058 224.013L319.065 229.765L315.22 231.075C315.095 231.679 315.194 232.308 315.496 232.845C315.799 233.383 316.285 233.793 316.866 233.999L319.401 233.956Z" fill="#FFBE9D"/>
<path d="M324.166 135.147L341.853 167.704L327.459 210.432L343.456 219.454L363.807 171.907C364.551 170.163 364.92 168.282 364.89 166.386C364.86 164.49 364.432 162.622 363.634 160.903L338.723 107.301L324.166 135.147Z" fill="#455A64"/>
<path d="M327.459 210.432L325.964 213.746L341.062 221.891L342.644 218.988L327.459 210.432Z" fill="#E0E0E0"/>
<path d="M327.459 210.432C327.459 210.432 327.459 210.356 327.459 210.215C327.459 210.074 327.567 209.847 327.643 209.587L328.412 207.172C329.116 205.005 330.112 201.984 331.347 198.193C333.903 190.525 337.466 179.846 341.539 167.618V167.845C339.481 164.347 337.358 160.653 335.224 156.841C331.325 149.877 327.751 143.162 324.686 136.956C323.17 133.847 321.762 130.88 320.57 128.031C319.4 125.381 318.894 122.484 319.097 119.594C319.193 117.217 319.725 114.878 320.668 112.695C321.413 111.057 322.477 109.584 323.798 108.362C324.628 107.59 325.579 106.961 326.614 106.499C326.962 106.333 327.325 106.199 327.697 106.099C326.304 106.672 325.027 107.494 323.928 108.525C322.651 109.754 321.634 111.227 320.939 112.857C320.041 115.013 319.542 117.314 319.466 119.648C319.3 122.473 319.816 125.296 320.971 127.879C322.184 130.706 323.603 133.663 325.13 136.761C328.206 142.945 331.802 149.639 335.701 156.592C337.867 160.404 339.936 164.098 341.983 167.596L342.048 167.704V167.823C337.889 180.03 334.271 190.687 331.661 198.334L328.672 207.237C328.304 208.244 328.022 209.035 327.816 209.619L327.578 210.237C327.544 210.305 327.504 210.37 327.459 210.432Z" fill="#263238"/>
<path d="M353.81 167.401C353.215 167.236 352.633 167.03 352.066 166.784C349.262 165.853 346.218 165.949 343.478 167.054C342.929 167.337 342.361 167.58 341.777 167.78C342.199 167.305 342.726 166.934 343.315 166.697C344.693 166.023 346.2 165.653 347.734 165.614C349.267 165.56 350.794 165.841 352.207 166.437C352.808 166.632 353.356 166.962 353.81 167.401Z" fill="#263238"/>
<path d="M320.625 127.403L333.329 169.925L335.127 155.942L320.625 127.403Z" fill="#263238"/>
<path d="M341.669 210.952C341.669 211.027 341.506 211.168 341.495 211.482C341.485 211.796 341.68 212.165 342.113 212.035C342.195 212.014 342.27 211.972 342.33 211.912C342.39 211.853 342.433 211.779 342.455 211.697C342.477 211.616 342.477 211.53 342.455 211.448C342.433 211.367 342.39 211.292 342.329 211.233C342.145 210.984 341.907 210.962 341.896 210.887C341.885 210.811 342.189 210.648 342.611 210.952C342.731 211.044 342.827 211.165 342.891 211.302C342.955 211.44 342.985 211.591 342.979 211.742C342.959 211.937 342.88 212.122 342.752 212.271C342.625 212.42 342.454 212.526 342.264 212.576C342.073 212.646 341.864 212.653 341.669 212.594C341.474 212.536 341.302 212.415 341.181 212.251C341.098 212.127 341.045 211.985 341.026 211.836C341.007 211.688 341.023 211.537 341.073 211.396C341.236 210.897 341.669 210.897 341.669 210.952Z" fill="#263238"/>
<path d="M342.893 207.886C342.893 207.962 342.73 208.103 342.719 208.428C342.705 208.51 342.711 208.594 342.739 208.673C342.766 208.751 342.813 208.822 342.875 208.877C342.937 208.933 343.012 208.971 343.093 208.989C343.174 209.007 343.259 209.004 343.339 208.981C343.418 208.957 343.491 208.913 343.549 208.853C343.607 208.794 343.648 208.72 343.67 208.64C343.692 208.559 343.692 208.475 343.672 208.394C343.651 208.313 343.611 208.239 343.553 208.179C343.369 207.919 343.12 207.908 343.109 207.821C343.098 207.735 343.413 207.583 343.835 207.886C343.954 207.981 344.049 208.101 344.112 208.238C344.176 208.375 344.207 208.526 344.203 208.677C344.199 208.816 344.165 208.952 344.103 209.077C344.041 209.201 343.953 209.311 343.845 209.398C343.737 209.485 343.611 209.548 343.476 209.582C343.342 209.616 343.201 209.621 343.064 209.596C342.928 209.57 342.798 209.516 342.685 209.436C342.571 209.356 342.476 209.252 342.406 209.132C342.336 209.012 342.293 208.878 342.28 208.74C342.267 208.601 342.284 208.462 342.329 208.33C342.514 207.843 342.893 207.811 342.893 207.886Z" fill="#263238"/>
<path d="M360.276 153.722C358.381 154.718 357.72 157.512 357.937 159.646C358.153 161.78 358.944 163.848 358.89 165.982C358.748 167.508 358.476 169.019 358.077 170.499C357.67 171.983 357.715 173.556 358.207 175.015C358.47 175.736 358.965 176.349 359.613 176.759C360.262 177.169 361.029 177.351 361.792 177.279L363.298 174.246C364.471 171.872 365.063 169.253 365.025 166.606C364.987 163.958 364.321 161.358 363.081 159.018L360.276 153.722Z" fill="#263238"/>
<path d="M207.681 0.14116C207.865 0.121944 208.05 0.121944 208.234 0.14116H209.858C210.737 0.15761 211.613 0.240886 212.479 0.390268C212.999 0.476914 213.562 0.53107 214.147 0.650208L216.021 1.11593C219.225 1.95781 222.269 3.31885 225.032 5.14498C231.698 9.57813 236.413 16.3952 238.21 24.1963C240.007 31.9974 238.748 40.1903 234.693 47.0926C231.222 52.9701 225.94 57.5644 219.638 60.187C216.32 61.5596 212.786 62.3369 209.198 62.4831C205.506 62.7116 201.804 62.2526 198.28 61.1293L197.955 61.021H198.204L179.954 67.3462L179.218 67.6061L179.445 66.8479L184.189 51.6849L184.265 52.0531C181.02 48.4221 178.668 44.0831 177.397 39.382C176.125 34.6809 175.97 29.7478 176.943 24.9761C177.752 20.9665 179.354 17.1589 181.655 13.7771C183.617 10.8598 186.06 8.29633 188.879 6.19557C191.13 4.45899 193.631 3.07487 196.298 2.0907C197.354 1.65341 198.44 1.29148 199.547 1.00762C200.471 0.74692 201.412 0.551483 202.363 0.422759C203.219 0.30362 203.977 0.173652 204.627 0.119498L206.295 0.0653449H207.367C207.482 0.0467405 207.599 0.0467405 207.714 0.0653449C207.6 0.0922494 207.484 0.110353 207.367 0.119498L206.36 0.195313L204.714 0.314452C204.064 0.390268 203.316 0.53107 202.472 0.67187C201.534 0.819926 200.607 1.03345 199.699 1.31089C198.591 1.59292 197.505 1.9549 196.45 2.39396C195.232 2.88763 194.042 3.44807 192.886 4.07274C191.597 4.80601 190.359 5.62749 189.182 6.53132C186.439 8.6209 184.06 11.1497 182.142 14.0154C179.904 17.3614 178.357 21.1212 177.593 25.0736C176.671 29.7345 176.847 34.5461 178.106 39.1274C179.366 43.7086 181.675 47.9338 184.85 51.4682L185.002 51.6307L184.937 51.8365C183.427 56.7103 181.857 61.7647 180.225 66.9996L179.716 66.5122L197.944 60.3495H198.074H198.204L198.518 60.447C201.952 61.5376 205.558 61.9856 209.154 61.7683C212.651 61.6264 216.097 60.875 219.335 59.548C225.488 56.9974 230.651 52.5257 234.054 46.8002C238.019 40.0429 239.266 32.0309 237.542 24.3884C235.819 16.7458 231.253 10.0446 224.772 5.6432C222.061 3.82004 219.078 2.43821 215.934 1.54916L214.093 1.05095C213.508 0.920977 212.956 0.855991 212.447 0.758514C211.59 0.584407 210.721 0.475786 209.847 0.433592L208.234 0.303623C208.045 0.264232 207.861 0.209904 207.681 0.14116Z" fill="#90D904"/>
<path d="M189.334 33.435L194.132 28.6261L203.392 36.8575L221.577 19.3658L226.029 24.1746L202.71 46.1178L189.334 33.435Z" fill="#90D904"/>
</svg>
