<svg width="16463" height="15561" viewBox="0 0 16463 15561" fill="none" xmlns="http://www.w3.org/2000/svg">
<path d="M8163.97 6458.41L8250.75 6565.85L0.113281 13137.7L351.875 13573.2L399.913 13632.6L8650.55 7060.69L8737.33 7168.13L8891.77 6456.86L8163.97 6458.41Z" fill="#598800"/>
<path opacity="0.7" d="M8163.97 6458.41L8250.75 6565.85L0.113281 13137.7L351.875 13573.2L399.913 13632.6L8650.55 7060.69L8737.33 7168.13L8891.77 6456.86L8163.97 6458.41Z" fill="white"/>
<path d="M8250.24 3381.92L8175.86 3301.85C8166.01 3291.47 8153.69 3283.75 8140.05 3279.41C8126.41 3275.08 8111.9 3274.27 8097.86 3277.06L7984.74 3301.85C7967.06 3305.37 7950.92 3314.33 7938.6 3327.49C7926.28 3340.65 7918.39 3357.33 7916.04 3375.2L7859.22 3840.08L8031.74 3906.72C8242.49 3814.77 8231.64 3536.88 8231.64 3536.88L8261.6 3481.61C8270.49 3465.92 8274.18 3447.83 8272.14 3429.91C8270.1 3412 8262.43 3395.2 8250.24 3381.92Z" fill="#FFB573"/>
<path d="M6164.98 4781.21C6164.98 4781.21 6330.79 4791.03 6427.9 4788.96C6525.01 4786.9 6623.15 4785.86 6718.71 4780.18C6814.27 4774.5 6908.79 4767.27 6995.57 4755.39C7035.23 4750.08 7074.55 4742.49 7113.34 4732.66L7150.53 4720.78C7161.9 4715.61 7150.53 4724.4 7155.7 4720.78C7182.57 4693.93 7207.6 4665.28 7230.59 4635.03C7259 4598.88 7287.41 4560.14 7315.82 4520.88C7372.64 4441.85 7428.43 4359.72 7484.73 4277.07L7822.03 3776.55L8085.98 3916.53C8047.24 4013.12 8004.88 4106.1 7963.04 4200.11C7921.2 4294.12 7874.72 4386.06 7829.26 4478.52C7783.81 4570.98 7734.22 4662.93 7681.53 4754.87C7655.19 4800.84 7629.88 4846.82 7597.85 4893.82C7564.27 4947.94 7525.89 4998.94 7483.18 5046.2C7448.74 5082.07 7408.81 5112.23 7364.89 5135.56C7331.62 5153.38 7297.1 5168.74 7261.59 5181.53C7203.64 5202.89 7144.26 5220.15 7083.9 5233.18C6976.16 5257.54 6866.93 5274.79 6756.93 5284.84C6546.39 5306.27 6334.71 5314.55 6123.14 5309.63L6164.98 4781.21Z" fill="#598800"/>
<path opacity="0.7" d="M8088.04 3917.57C8049.3 4013.64 8007.46 4106.62 7965.62 4200.63C7923.78 4294.64 7877.29 4386.58 7831.32 4479.56C7785.35 4572.53 7736.8 4663.44 7684.11 4755.39C7657.77 4801.36 7632.46 4847.33 7599.91 4894.34C7566.7 4948.58 7528.48 4999.6 7485.76 5046.71C7450.47 5082.6 7409.67 5112.59 7364.89 5135.56C7331.67 5153.63 7297.14 5169.17 7261.58 5182.05C7203.72 5203.12 7144.53 5220.37 7084.41 5233.7C6976.62 5257.79 6867.41 5275.04 6757.44 5285.35C6711.47 5290 6666.02 5293.62 6621.08 5297.24C6455.27 5309.12 6292.04 5313.25 6123.65 5309.63L6131.92 5201.16L6164.46 4784.31C6164.46 4784.31 6329.75 4794.65 6426.86 4792.06C6523.97 4789.48 6622.11 4788.96 6718.19 4783.28C6814.26 4777.6 6908.27 4770.88 6995.05 4758.49C7034.78 4753.58 7074.12 4745.99 7112.82 4735.76C7125.47 4732.63 7137.89 4728.66 7150.01 4723.88C7161.37 4718.71 7150.01 4728.01 7155.18 4723.88C7182.05 4697.03 7207.08 4668.38 7230.07 4638.13C7258.48 4601.98 7286.89 4563.24 7314.79 4523.98C7371.6 4444.95 7427.91 4362.82 7484.21 4280.17L7821.51 3779.65L8088.04 3917.57Z" fill="white"/>
<path opacity="0.1" d="M6621.6 5294.13C6455.79 5306.02 6292.56 5310.15 6124.17 5306.53L6132.44 5198.06L6172.73 5103.02C6341.41 5106.38 6502.26 5174.87 6621.6 5294.13Z" fill="black"/>
<path d="M3402.54 14045.8C3402.54 14045.8 2937.66 13724 2963.48 13508.1C2964.44 13503.1 2964.36 13498 2963.24 13493.1C2962.12 13488.1 2959.99 13483.5 2956.98 13479.4C2953.97 13475.3 2950.15 13471.9 2945.76 13469.4C2941.36 13466.9 2936.5 13465.3 2931.46 13464.7L2535.27 13404.8C2525.59 13403 2515.58 13403.9 2506.43 13407.6C2497.28 13411.2 2489.36 13417.4 2483.62 13425.5L2251.18 13755.5L2354.49 13793.2L2410.79 13754L2437.65 13823.7C3008.42 14030.3 3257.39 14113.5 3383.43 14118.6C3420.62 14074.2 3402.54 14045.8 3402.54 14045.8Z" fill="black"/>
<path d="M6035.84 7971.35C6035.84 7971.35 6012.08 8033.33 5970.24 8140.77C5925.31 8256.99 5859.19 8426.41 5779.64 8627.86C5727.99 8762.16 5667.55 8910.93 5604.02 9067.44C5312.18 9790.59 4935.11 10689.9 4685.62 11142.9C4207.82 12009.6 2962.97 13655.8 2962.97 13655.8L2465.54 13474C2465.54 13474 3361.22 11778.7 3813.19 10919.7C3984.52 10572.9 4135.6 10216.4 4265.67 9852.06C4340.57 9652.16 4414.95 9443.99 4486.75 9237.9C4519.29 9144.92 4551.32 9051.94 4582.31 8960.51C4664.44 8718.77 4741.4 8485.82 4809.07 8278.17C4817.33 8252.34 4825.6 8226.51 4833.86 8201.72C4861.24 8116.49 4885.52 8035.91 4910.31 7961.53C5007.42 7655.74 5067.86 7454.29 5069.92 7445L5513.63 7686.74L6035.84 7971.35Z" fill="#263238"/>
<path opacity="0.3" d="M5970.25 8140.77C5925.31 8256.99 5859.19 8426.41 5779.64 8627.86C5727.99 8762.16 5667.55 8910.93 5604.02 9067.44C5198.02 9149.05 4784.79 9204.32 4487.79 9237.89C4520.33 9144.92 4552.35 9051.94 4583.34 8960.51C4665.47 8718.77 4742.44 8485.82 4810.1 8278.17C4818.37 8252.34 4826.63 8226.51 4834.9 8201.72C4862.27 8116.49 4886.55 8035.91 4911.35 7961.53C5209.9 8002.34 5608.67 8063.29 5970.25 8140.77Z" fill="black"/>
<path d="M4446.46 5058.08C4517.96 5317.77 4563.81 5583.86 4583.34 5852.51C4601.42 6066.88 4608.14 6277.62 4609.17 6467.19C4610.2 6656.76 4604 6826.18 4597.81 6955.32C4589.54 7121.64 4579.73 7223.4 4579.73 7223.4L6148.97 7304.5C6620.05 5599.93 6164.46 4781.73 6164.46 4781.73C6024.66 4769.49 5884.22 4766.21 5744 4771.92C5715.07 4771.92 5685.12 4775.02 5655.16 4777.6C5418.95 4804.76 5184.56 4845.81 4953.18 4900.53C4911.34 4909.83 4868.99 4920.68 4827.67 4931.53C4623.12 4987.31 4446.46 5058.08 4446.46 5058.08Z" fill="#598800"/>
<path opacity="0.7" d="M6149.48 7303.98L4580.24 7223.4C4580.24 7223.4 4590.06 7120.09 4598.32 6954.8C4598.32 6906.25 4602.45 6851.49 4604.52 6791.06C4607.62 6694.47 4609.68 6584.44 4609.68 6466.67C4609.68 6409.34 4609.68 6349.94 4606.59 6288.98C4606.59 6279.17 4606.59 6269.36 4606.59 6259.54C4604 6162.95 4599.35 6062.74 4592.64 5960.98C4589.54 5924.83 4586.96 5888.67 4583.86 5852.51C4583.86 5824.1 4579.21 5795.18 4576.63 5766.77C4568.88 5694.45 4560.61 5622.14 4550.28 5550.85C4547.7 5531.22 4544.6 5511.6 4541.5 5492.49C4536.85 5459.94 4531.69 5428.43 4526.01 5396.41C4505.95 5281.96 4479.74 5168.67 4447.49 5057.04C4447.49 5057.04 4624.66 4987.83 4829.73 4931.53C4870.54 4920.68 4912.89 4909.83 4954.73 4900.53C5186.17 4846.15 5420.55 4805.1 5656.7 4777.6C5687.18 4777.6 5716.62 4772.95 5746.07 4772.43C5886.27 4766.43 6026.72 4769.53 6166.53 4781.73C6166.53 4781.73 6620.56 5596.83 6149.48 7303.98Z" fill="white"/>
<path d="M7120.05 11387.7C7120.05 11387.7 6671.7 11039.6 6713.02 10825.7C6714.23 10820.8 6714.42 10815.7 6713.58 10810.7C6712.74 10805.7 6710.88 10800.9 6708.12 10796.6C6705.36 10792.4 6701.76 10788.7 6697.54 10785.9C6693.32 10783.1 6688.57 10781.2 6683.58 10780.3L6291.01 10697.6C6281.57 10695.5 6271.73 10696.1 6262.6 10699.3C6253.46 10702.5 6245.41 10708.2 6239.36 10715.7L5986.77 11030.3L6090.08 11074.2L6148.45 11038L6171.18 11108.8C6729.55 11347.9 6973.36 11445.6 7100.94 11458C7136.58 11415.6 7120.05 11387.7 7120.05 11387.7Z" fill="black"/>
<path d="M5330.77 8637.16H5367.44L7249.18 8910.92L6176.85 10688.3L6713.02 10894.9C6713.02 10894.9 8652.61 8804 8219.24 8327.24C7862.83 7935.19 6116.94 7696.55 6116.94 7696.55L6174.27 7287.45L4560.61 6969.26C3870 8478.58 5099.88 8622.18 5330.77 8637.16Z" fill="#263238"/>
<path d="M4541.5 7127.84L4507.41 7121.13L4538.4 7012.65L4568.88 7018.33L4541.5 7127.84Z" fill="#263238"/>
<path d="M5811.67 7373.71L5122.09 7240.45L5148.95 7130.94L5835.94 7264.21L5811.67 7373.71Z" fill="#263238"/>
<path d="M5889.15 7274.54L6180.47 7330.84L6160.85 7441.38L5865.9 7384.04L5889.15 7274.54Z" fill="#263238"/>
<path d="M4622.08 7028.66L5096.26 7120.61L5068.37 7229.6L4595.74 7138.17L4622.08 7028.66Z" fill="#263238"/>
<g opacity="0.2">
<path d="M4541.51 7127.84L4507.41 7121.12L4538.41 7012.65L4568.88 7018.33L4541.51 7127.84Z" fill="white"/>
<path d="M5811.67 7373.71L5122.09 7240.44L5148.95 7130.94L5835.95 7264.2L5811.67 7373.71Z" fill="white"/>
<path d="M5889.15 7274.54L6180.48 7330.84L6160.85 7441.38L5865.91 7384.04L5889.15 7274.54Z" fill="white"/>
<path d="M4622.09 7028.66L5096.27 7120.61L5068.37 7229.6L4595.74 7138.17L4622.09 7028.66Z" fill="white"/>
</g>
<path d="M5584.91 7341.68H5578.71L5406.18 7310.69C5401.35 7309.93 5396.74 7308.16 5392.64 7305.49C5388.55 7302.82 5385.06 7299.31 5382.42 7295.2C5379.67 7291.16 5377.82 7286.58 5377.02 7281.76C5376.22 7276.95 5376.47 7272.01 5377.77 7267.3L5394.82 7198.09C5396.92 7189.18 5402.41 7181.44 5410.13 7176.52C5417.85 7171.6 5427.18 7169.88 5436.14 7171.74L5607.12 7204.8C5611.88 7205.56 5616.42 7207.34 5620.43 7210.02C5624.44 7212.69 5627.83 7216.2 5630.36 7220.3C5632.98 7224.29 5634.75 7228.79 5635.55 7233.5C5636.35 7238.21 5636.17 7243.04 5635.01 7247.67L5619.51 7314.31C5617.66 7322.09 5613.23 7329.03 5606.96 7334C5600.68 7338.96 5592.91 7341.67 5584.91 7341.68ZM5429.94 7200.67C5428.76 7200.73 5427.63 7201.17 5426.7 7201.91C5425.77 7202.65 5425.1 7203.66 5424.78 7204.8L5407.73 7274.02C5407.45 7274.67 5407.3 7275.37 5407.3 7276.08C5407.3 7276.8 5407.45 7277.5 5407.73 7278.15C5408.31 7278.39 5408.92 7278.52 5409.54 7278.52C5410.16 7278.52 5410.78 7278.39 5411.35 7278.15L5583.87 7309.14C5585.21 7309.22 5586.54 7308.86 5587.66 7308.11C5588.78 7307.37 5589.63 7306.28 5590.07 7305.01L5605.57 7238.38C5605.89 7237.74 5606.05 7237.03 5606.05 7236.31C5606.05 7235.59 5605.89 7234.89 5605.57 7234.25C5605.1 7233.97 5604.56 7233.83 5604.02 7233.83C5603.47 7233.83 5602.94 7233.97 5602.47 7234.25L5431.49 7200.67H5429.94Z" fill="white"/>
<path d="M5477.47 7264.72H5474.89L5423.23 7255.42C5421.25 7255.11 5419.35 7254.41 5417.65 7253.35C5415.95 7252.29 5414.48 7250.9 5413.32 7249.27C5412.16 7247.63 5411.35 7245.77 5410.92 7243.82C5410.49 7241.86 5410.47 7239.83 5410.84 7237.86C5411.07 7235.85 5411.73 7233.91 5412.77 7232.17C5413.81 7230.43 5415.2 7228.92 5416.86 7227.75C5418.51 7226.59 5420.4 7225.78 5422.38 7225.38C5424.37 7224.99 5426.42 7225.02 5428.4 7225.47L5480.05 7234.76C5482.03 7235.07 5483.93 7235.78 5485.63 7236.84C5487.33 7237.9 5488.81 7239.29 5489.96 7240.92C5491.12 7242.56 5491.94 7244.41 5492.36 7246.37C5492.79 7248.33 5492.82 7250.36 5492.45 7252.33C5491.74 7255.79 5489.87 7258.91 5487.14 7261.17C5484.42 7263.42 5481.01 7264.68 5477.47 7264.72Z" fill="white"/>
<path d="M5116.41 4187.71L5526.02 4527.6C5486.25 4693.92 5555.98 4847.33 5636.56 4875.74C5636.56 4875.74 5696.48 5018.31 5581.29 5042.07C5347.3 5090.62 5080.77 4864.38 5080.77 4864.38C5204.74 4731.63 5159.8 4400.01 5116.41 4187.71Z" fill="#EBB376"/>
<path opacity="0.2" d="M5283.25 4326.15L5526.02 4527.08C5515.73 4565.66 5508.82 4605.07 5505.36 4644.85C5414.45 4632.97 5288.93 4535.86 5278.6 4440.82C5273.44 4402.62 5275.01 4363.81 5283.25 4326.15Z" fill="black"/>
<path d="M5478.5 3516.21C5577.67 3578.2 5711.97 3764.67 5545.13 3809.61C5378.29 3854.55 5307.52 3409.81 5478.5 3516.21Z" fill="#263238"/>
<path d="M4966.1 4153.62C5139.65 4381.93 5229.53 4525.01 5430.98 4566.85C5734.19 4628.84 5954.23 4319.95 5852.47 4043.08C5760.53 3794.11 5490.9 3461.98 5196.99 3526.55C5131.91 3540.73 5071.45 3571.09 5021.21 3614.82C4970.97 3658.56 4932.57 3714.25 4909.55 3776.76C4886.53 3839.26 4879.65 3906.56 4889.53 3972.44C4899.42 4038.31 4925.75 4100.62 4966.1 4153.62Z" fill="#FFB573"/>
<path d="M5017.24 3904.14L4810.62 3661.36C4810.62 3661.36 4535.31 3863.85 4660.31 3986.26C4578.18 4179.97 4905.15 4451.15 5191.31 4395.36C5224.88 4220.26 4969.71 3921.7 4969.71 3921.7C4985.84 3916.63 5001.7 3910.77 5017.24 3904.14Z" fill="#263238"/>
<path d="M5006.39 4413.44C5034.28 4435.69 5066.32 4452.17 5100.63 4461.93C5134.95 4471.68 5170.87 4474.51 5206.29 4470.26C5300.82 4458.38 5309.6 4363.85 5255.36 4293.09C5201.12 4222.32 5093.17 4159.31 5012.59 4206.83C4995.3 4217.7 4980.94 4232.66 4970.8 4250.39C4960.65 4268.11 4955.03 4288.07 4954.42 4308.48C4953.8 4328.9 4958.22 4349.15 4967.29 4367.46C4976.35 4385.76 4989.78 4401.55 5006.39 4413.44Z" fill="#FFB573"/>
<path d="M5370.54 3973.35C5383.46 3992.46 5404.64 4001.24 5417.03 3992.98C5429.43 3984.72 5429.43 3961.47 5417.03 3941.33C5404.64 3921.18 5383.46 3913.43 5370.54 3921.7C5357.63 3929.96 5357.63 3955.79 5370.54 3973.35Z" fill="#263238"/>
<path d="M5589.04 3826.65C5602.47 3846.28 5623.13 3855.06 5635.53 3846.28C5647.93 3837.5 5647.93 3814.77 5635.53 3794.63C5623.13 3774.48 5601.95 3766.22 5589.04 3775C5576.13 3783.78 5576.13 3807.03 5589.04 3826.65Z" fill="#263238"/>
<path d="M5526.02 3883.47C5588.2 3924.82 5655.82 3957.33 5726.95 3980.07C5713.52 4031.72 5645.34 4058.06 5645.34 4058.06L5526.02 3883.47Z" fill="#ED893E"/>
<path d="M5465.59 4189.78C5456.52 4194.55 5447.88 4200.08 5439.76 4206.31C5438.56 4207.56 5437.89 4209.23 5437.89 4210.96C5437.89 4212.69 5438.56 4214.36 5439.76 4215.61C5440.34 4216.27 5441.06 4216.8 5441.86 4217.16C5442.66 4217.52 5443.53 4217.71 5444.41 4217.71C5445.29 4217.71 5446.16 4217.52 5446.96 4217.16C5447.76 4216.8 5448.48 4216.27 5449.06 4215.61C5472.07 4197.89 5498.99 4185.93 5527.56 4180.72C5556.13 4175.51 5585.53 4177.2 5613.32 4185.65C5614.16 4185.98 5615.07 4186.13 5615.97 4186.09C5616.88 4186.06 5617.77 4185.85 5618.59 4185.46C5619.41 4185.07 5620.14 4184.52 5620.75 4183.85C5621.35 4183.17 5621.81 4182.38 5622.1 4181.52C5622.78 4179.87 5622.79 4178.02 5622.11 4176.38C5621.43 4174.73 5620.13 4173.42 5618.48 4172.74C5593.19 4164.95 5566.57 4162.45 5540.26 4165.38C5513.96 4168.32 5488.55 4176.62 5465.59 4189.78Z" fill="#263238"/>
<path d="M5221.26 3911.37C5223.69 3911.5 5226.11 3911 5228.29 3909.92C5230.46 3908.83 5232.31 3907.19 5233.66 3905.17C5242.76 3890.65 5255.09 3878.43 5269.7 3869.47C5284.31 3860.5 5300.79 3855.05 5317.86 3853.52C5319.69 3853.59 5321.51 3853.28 5323.21 3852.6C5324.91 3851.92 5326.45 3850.89 5327.72 3849.57C5328.99 3848.25 5329.96 3846.68 5330.58 3844.95C5331.19 3843.23 5331.43 3841.39 5331.29 3839.57C5331.29 3836.01 5329.87 3832.59 5327.35 3830.07C5324.83 3827.55 5321.42 3826.14 5317.86 3826.14C5296.03 3827.76 5274.9 3834.56 5256.22 3845.97C5237.53 3857.37 5221.83 3873.06 5210.42 3891.74C5208.46 3894.83 5207.8 3898.57 5208.57 3902.14C5209.35 3905.72 5211.49 3908.84 5214.55 3910.85C5216.68 3911.7 5219.03 3911.88 5221.26 3911.37Z" fill="#263238"/>
<path d="M5591.62 3650.52C5592.39 3647.81 5592.39 3644.95 5591.62 3642.25C5590.54 3638.79 5588.16 3635.88 5584.98 3634.15C5581.8 3632.41 5578.07 3631.98 5574.57 3632.95C5553.58 3638.25 5534.17 3648.52 5517.98 3662.91C5501.8 3677.3 5489.32 3695.37 5481.6 3715.6C5480.58 3719.09 5480.92 3722.84 5482.55 3726.1C5484.18 3729.35 5486.97 3731.88 5490.38 3733.16C5492.07 3733.72 5493.86 3733.94 5495.64 3733.8C5497.42 3733.66 5499.16 3733.17 5500.74 3732.35C5502.33 3731.53 5503.74 3730.41 5504.89 3729.04C5506.03 3727.67 5506.9 3726.09 5507.42 3724.38C5513.63 3708.32 5523.64 3694.01 5536.6 3682.68C5549.55 3671.34 5565.07 3663.32 5581.8 3659.3C5584.06 3658.8 5586.14 3657.73 5587.86 3656.19C5589.58 3654.65 5590.88 3652.7 5591.62 3650.52Z" fill="#263238"/>
<path d="M4968.16 3921.7C4968.16 3921.7 5513.63 3692.36 5547.2 3430.99C5580.78 3169.62 5349.88 3276.03 5349.88 3276.03C5349.88 3276.03 5456.81 3268.79 5446.48 3346.28C5446.48 3346.28 5262.07 3220.76 5084.9 3328.71C5108.91 3328.74 5132.61 3334.08 5154.31 3344.35C5176.02 3354.62 5195.17 3369.57 5210.42 3388.11C5082.09 3420.49 4961.7 3478.67 4856.59 3559.09C4671.15 3698.55 4334.89 4194.95 4968.16 3921.7Z" fill="#263238"/>
<path opacity="0.3" d="M6117.98 7692.41L5229.02 7589.11C5530.14 7549.32 5834.24 7536.87 6137.6 7551.92L6117.98 7692.41Z" fill="black"/>
<path opacity="0.1" d="M4592.13 5960.98C4589.03 5924.83 4586.44 5888.67 4583.34 5852.51C4583.34 5824.1 4578.7 5795.18 4576.11 5766.77C4568.36 5694.45 4560.1 5622.14 4549.77 5550.85C4547.19 5531.23 4544.09 5511.6 4540.99 5492.49C4565.49 5473.1 4591.58 5455.82 4618.99 5440.83C4647.32 5614.14 4638.16 5791.51 4592.13 5960.98Z" fill="black"/>
<path d="M3111.21 7227.53L2956.25 7589.11L3290.45 7671.75C3290.45 7671.75 3434.05 7433.63 3294.07 7251.81L3111.21 7227.53Z" fill="#EBB376"/>
<path d="M2980.53 7871.65L3244.48 7873.72L3290.96 7674.85L2956.77 7592.21L2980.53 7871.65Z" fill="#EBB376"/>
<path d="M4614.85 5307.05C4638.09 5534.32 4560.1 5626.78 4560.1 5626.78C4560.1 5626.78 4340.05 5765.22 4244.49 5835.98C4163.4 5897.45 4083.85 5959.43 4008.44 6021.42C3971.25 6052.93 3935.09 6084.44 3902.03 6115.94C3872.6 6143.57 3844.99 6173.07 3819.38 6204.27C3809.91 6217.41 3801.12 6231.03 3793.04 6245.08C3783.74 6260.06 3773.93 6282.79 3763.6 6301.38C3743.45 6342.7 3723.31 6387.13 3704.2 6433.1C3665.97 6525.56 3629.82 6621.63 3595.72 6719.26C3523.93 6913.48 3457.29 7113.89 3389.11 7310.69L3083.84 7237.86C3114.83 7024.02 3156.67 6814.82 3205.22 6603.55C3230.53 6500.25 3256.88 6392.81 3291.48 6285.37C3307.5 6233.71 3325.58 6177.41 3346.24 6121.63C3358.63 6092.18 3368.96 6065.84 3384.46 6034.33C3399.52 6001.19 3416.78 5969.09 3436.11 5938.26C3472.95 5883.45 3514.06 5831.63 3559.05 5783.29C3599.86 5738.87 3640.66 5698.07 3681.99 5658.29C3764.11 5579.78 3848.31 5507.98 3934.06 5438.76C4105.03 5299.82 4276.52 5172.75 4460.41 5049.81C4461.96 5051.36 4594.19 5101.47 4614.85 5307.05Z" fill="#598800"/>
<path opacity="0.7" d="M4614.85 5307.05C4638.09 5534.32 4560.1 5626.78 4560.1 5626.78C4560.1 5626.78 4340.05 5765.22 4244.49 5835.98C4163.4 5897.45 4083.85 5959.43 4008.44 6021.42C3971.25 6052.93 3935.09 6084.44 3902.03 6115.94C3872.6 6143.57 3844.99 6173.07 3819.38 6204.27C3809.91 6217.41 3801.12 6231.03 3793.04 6245.08C3783.74 6260.06 3773.93 6282.79 3763.6 6301.38C3743.45 6342.7 3723.31 6387.13 3704.2 6433.1C3665.97 6525.56 3629.82 6621.63 3595.72 6719.26C3523.93 6913.48 3457.29 7113.89 3389.11 7310.69L3083.84 7237.86C3114.83 7024.02 3156.67 6814.82 3205.22 6603.55C3230.53 6500.25 3256.88 6392.81 3291.48 6285.37C3307.5 6233.71 3325.58 6177.41 3346.24 6121.63C3358.63 6092.18 3368.96 6065.84 3384.46 6034.33C3399.52 6001.19 3416.78 5969.09 3436.11 5938.26C3472.95 5883.45 3514.06 5831.63 3559.05 5783.29C3599.86 5738.87 3640.66 5698.07 3681.99 5658.29C3764.11 5579.78 3848.31 5507.98 3934.06 5438.76C4105.03 5299.82 4276.52 5172.75 4460.41 5049.81C4461.96 5051.36 4594.19 5101.47 4614.85 5307.05Z" fill="white"/>
<path d="M5308.56 5002.29L5423.23 5182.56C5423.23 5182.56 5022.92 5668.11 4256.38 5828.23L4204.72 5983.2L4367.95 6026.07C4367.95 6026.07 5194.41 5811.71 5526.02 5190.83L5696.48 5000.74L5495.55 4933.08L5308.56 5002.29Z" fill="#598800"/>
<path d="M4937.17 4893.82L5124.16 4730.59L5495.55 4934.11L5538.94 4711.48L5735.22 4824.09L5791.52 5112.83L5517.24 4994.03L5272.4 5213.04L4937.17 4893.82Z" fill="#598800"/>
<path opacity="0.6" d="M4937.17 4893.82L5124.16 4730.59L5495.55 4934.11L5538.94 4711.48L5735.22 4824.09L5791.52 5112.83L5517.24 4994.03L5272.4 5213.04L4937.17 4893.82Z" fill="white"/>
<path d="M10060.7 1662.88C10060.7 1662.88 9713.07 2093.68 9360.79 2058.03C9008.51 2022.39 8828.24 2165.47 8828.24 2165.47L8793.63 2337.48L8982.69 2311.65C8982.69 2311.65 8982.69 2175.29 9350.46 2190.79C9718.23 2206.28 9994.06 1890.16 10101.5 1746.56L10060.7 1662.88Z" fill="#598800"/>
<path d="M12555.6 946.965L12548.3 912.874C12545.2 896.229 12540.4 879.955 12533.9 864.319C12515.5 817.653 12486.7 775.789 12449.7 741.9C12403.8 700.55 12350 668.921 12291.6 648.923C12217.8 622.776 12141.2 605.438 12063.3 597.27C11994.6 589.522 11929 585.906 11864.4 584.356C11735.8 580.741 11611.9 584.356 11489.4 594.687C11245.6 610.881 11002.9 640.021 10762.2 681.982L10851 1190.77C11073.6 1155.65 11306.1 1123.1 11530.8 1099.86C11643.4 1087.98 11755.5 1081.26 11863.4 1077.65C11915.1 1077.65 11970.3 1077.65 12018.4 1077.65C12049.7 1079.33 12080.9 1082.78 12111.9 1087.98C12112.9 1106.9 12112.9 1125.87 12111.9 1144.8C12105.2 1244.28 12086.6 1342.6 12056.6 1437.68C11991.2 1652.49 11907.7 1861.4 11807.1 2062.17L12052.5 2225.39C12209.3 2029.04 12341 1813.88 12444.5 1584.89C12501.1 1459.79 12540.4 1327.54 12561.3 1191.8C12572.4 1110.41 12570.4 1027.76 12555.6 946.965Z" fill="#598800"/>
<path opacity="0.7" d="M12558.2 1191.29C12541.7 1304.6 12511.3 1415.45 12467.8 1521.35C12459.5 1542.53 12450.7 1563.71 12441.9 1584.37C12338.2 1813.22 12206.4 2028.21 12049.4 2224.36L11807.1 2062.17C11908.7 1862.89 11993.7 1655.57 12061.2 1442.32C12081.7 1374.64 12097.4 1305.6 12108.3 1235.71C12112.7 1207.66 12115.4 1179.37 12116.5 1151C12117.6 1132.07 12117.6 1113.1 12116.5 1094.18C12085.6 1088.97 12054.4 1085.52 12023 1083.85C11971.4 1080.75 11919.7 1080.75 11868.1 1083.85H11856.2C11752.9 1087.46 11643.9 1094.69 11534.9 1105.54C11316.9 1128.27 11092.7 1157.19 10876.3 1193.87L10855.6 1196.97L10766.8 687.663C11007.4 645.954 11250 616.816 11493.6 600.368C11616.5 592.62 11740.5 586.422 11869.1 590.037C11933.7 590.037 11998.7 595.203 12068 602.951C12145.8 611.37 12222.4 628.701 12296.3 654.605C12354.6 674.795 12408.3 706.402 12454.3 747.581C12491.3 781.471 12520.1 823.334 12538.5 870C12544.8 885.729 12549.6 901.977 12553 918.555L12560.2 952.646C12571.8 1031.83 12571.1 1112.32 12558.2 1191.29Z" fill="white"/>
<path opacity="0.1" d="M11851.5 1080.75C11748.2 1084.36 11639.2 1091.6 11530.2 1102.44C11312.3 1125.17 11088.1 1154.1 10871.7 1190.77C10950.7 996.553 11031.8 800.269 11031.8 800.269C11319.8 843.388 11597.5 938.422 11851.5 1080.75Z" fill="black"/>
<path opacity="0.1" d="M12467.8 1521.35C12459.5 1542.53 12450.7 1563.71 12441.9 1584.37C12338.2 1813.22 12206.4 2028.21 12049.4 2224.36L11807.1 2062.17C11908.7 1862.89 11993.7 1655.57 12061.2 1442.32C12081.7 1374.64 12097.4 1305.6 12108.2 1235.71C12235.4 1321.3 12355.6 1416.82 12467.8 1521.35Z" fill="black"/>
<path d="M9166.58 1049.24C9181.04 1066.8 9182.59 1089.01 9171.22 1100.89C9159.86 1112.77 9138.68 1100.89 9124.22 1085.4C9109.76 1069.9 9108.21 1045.11 9120.09 1036.33C9131.97 1027.54 9152.63 1029.09 9166.58 1049.24Z" fill="#263238"/>
<path d="M9184.65 1087.46C9206.48 1159.01 9218.3 1233.23 9219.78 1308.02C9238.88 1306.97 9257.54 1301.8 9274.48 1292.89C9291.41 1283.98 9306.23 1271.52 9317.92 1256.37L9184.65 1087.46Z" fill="#DE5753"/>
<path d="M9153.66 898.411C9154.81 897.171 9155.68 895.7 9156.21 894.096C9156.75 892.493 9156.93 890.794 9156.76 889.113C9156.69 887.349 9156.28 885.615 9155.54 884.011C9154.81 882.407 9153.76 880.964 9152.46 879.765C9151.17 878.566 9149.65 877.633 9147.99 877.021C9146.34 876.41 9144.58 876.131 9142.81 876.2C9121.63 876.687 9100.86 882.241 9082.26 892.396C9063.66 902.55 9047.76 917.011 9035.89 934.568C9034.14 937.675 9033.65 941.333 9034.51 944.791C9035.38 948.249 9037.53 951.245 9040.54 953.164C9043.57 954.884 9047.14 955.361 9050.52 954.494C9053.89 953.627 9056.8 951.483 9058.62 948.515C9068.25 934.652 9081.06 923.293 9095.98 915.386C9110.89 907.479 9127.48 903.252 9144.36 903.06C9146.16 903.004 9147.92 902.559 9149.52 901.757C9151.13 900.954 9152.54 899.813 9153.66 898.411Z" fill="#263238"/>
<path d="M9681.04 770.825C9852.02 893.761 10178.5 1088.5 10363.9 1014.63C10363.9 1014.63 10530.7 1153.58 10370.6 1501.72C10194.5 1884.99 10096.3 1597.8 10096.3 1597.8C10142.3 1365.36 9984.77 1299.76 9822.06 1269.28L9681.04 770.825Z" fill="#E4897B"/>
<path d="M9732.7 540.968C9892.31 770.827 9997.68 897.378 9975.47 1097.28C9942.93 1398.42 9592.72 1510.51 9367.51 1334.37C9164.51 1174.24 8937.23 825.063 9082.9 568.344C9114.78 511.51 9160.67 463.772 9216.2 429.664C9271.73 395.557 9335.06 376.213 9400.17 373.47C9465.28 370.727 9530.01 384.675 9588.21 413.991C9646.41 443.307 9696.15 487.017 9732.7 540.968Z" fill="#E4897B"/>
<path d="M9989.41 920.105C9965.14 1050.79 9524.53 1230.03 9327.73 947.997C9327.73 947.997 9077.73 947.998 8927.42 793.037C8777.1 638.076 8809.65 479.499 8943.95 390.655C9062.75 312.141 9369.57 -264.83 9727.01 146.849C10114.9 133.419 10018.9 757.912 9989.41 920.105Z" fill="#263238"/>
<path d="M9248.19 330.737C9248.19 330.737 9017.81 319.373 8886.61 424.746C8755.41 530.12 8791.05 854.505 8842.19 915.456C8854.25 932.258 8869.66 946.39 8887.43 956.967C8905.21 967.543 8924.98 974.338 8945.5 976.924C8945.5 976.924 8867.5 936.117 8867.5 873.616C8867.5 873.616 8901.59 953.68 9058.1 976.924C9045.87 967.332 9036.09 954.986 9029.53 940.894C9022.98 926.801 9019.85 911.359 9020.39 895.827C9020.39 895.827 9105.11 1005.85 9301.39 895.827C9497.67 785.805 9248.19 330.737 9248.19 330.737Z" fill="#263238"/>
<path d="M9443.95 899.444C9483.34 956.878 9502.76 1025.66 9499.22 1095.21C9493.54 1186.64 9417.09 1193.87 9356.66 1136.02C9296.22 1078.17 9240.44 974.342 9276.08 897.895C9311.72 821.447 9395.4 831.261 9443.95 899.444Z" fill="#E4897B"/>
<path d="M9902.64 1662.88C9902.64 1662.88 9859.77 1142.73 10199.1 850.889L10603.6 888.079C10603.6 888.079 10370.6 1456.79 9902.64 1662.88Z" fill="#598800"/>
<path opacity="0.6" d="M9902.64 1662.88C9902.64 1662.88 9859.77 1142.73 10199.1 850.889L10603.6 888.079C10603.6 888.079 10370.6 1456.79 9902.64 1662.88Z" fill="white"/>
<path d="M11068.5 2832.84C11068.5 2832.84 10456.9 2232.11 9781.25 1812.16C9781.25 1812.16 10231.2 754.813 10801.4 660.287C10801.4 660.287 12275.1 1105.54 12702.8 2313.2L11068.5 2832.84Z" fill="#598800"/>
<path d="M11145.9 6495.08L10882.5 6607.17L10596.9 6007.47L10860.8 5895.38L11145.9 6495.08Z" fill="#E4897B"/>
<path d="M12702.8 2311.66L12547.8 3964.57C12429.7 4038.87 12298.6 4090.05 12161.5 4115.4C11839.1 4190.3 11409.4 4224.39 11038 4244.54C10621.1 4267.26 10278.7 4271.4 10247.7 4296.19C10175.4 4353.01 11093.3 6248.7 11093.3 6248.7L10655.2 6303.45C10655.2 6303.45 9503.87 4723.88 9354.59 4175.32C9299.84 3972.84 9244.57 3719.22 9616.48 3482.13C9943.96 3275.51 11163 3116.94 11163 3116.94L11069 2835.42L12702.8 2311.66Z" fill="#263238"/>
<path opacity="0.2" d="M12160.9 4113.85C11838.6 4188.75 11408.9 4222.84 11037.5 4242.98C10985.8 3633.47 11295.7 3048.75 11295.7 3048.75L11731.7 2937.18L12160.9 4113.85Z" fill="black"/>
<path d="M14988.5 6252.31L15035.5 6534.86L14385.1 6671.22L14338.1 6388.16L14988.5 6252.31Z" fill="#E4897B"/>
<path d="M15048.9 6545.19C15047.8 6544.43 15046.6 6544.02 15045.3 6544.02C15044 6544.02 15042.7 6544.43 15041.7 6545.19C15040.4 6545.7 15039.4 6546.56 15038.7 6547.66C15037.9 6548.76 15037.5 6550.06 15037.5 6551.39C15037.5 6556.55 15041.7 6671.74 15077.3 6706.35C15083.9 6712.94 15092.8 6716.65 15102.1 6716.68C15107.4 6717.16 15112.8 6715.98 15117.4 6713.3C15122 6710.61 15125.7 6706.56 15127.9 6701.7C15135.7 6682.59 15121.2 6650.04 15102.1 6618.54C15086.6 6592.52 15068.8 6567.96 15048.9 6545.19ZM15052 6569.46C15086.6 6610.79 15124.3 6672.77 15115.5 6693.43C15115.5 6696.53 15111.4 6700.15 15102.1 6700.66C15096.2 6700.55 15090.7 6698.14 15086.6 6693.95C15083.5 6690.93 15080.9 6687.45 15078.8 6683.62C15062.7 6647.62 15053.6 6608.88 15052 6569.46Z" fill="#598800"/>
<path d="M15046.8 6543.64C15045.8 6543.05 15044.6 6542.74 15043.5 6542.74C15042.3 6542.74 15041.1 6543.05 15040.1 6543.64C15040.1 6543.64 14975.5 6592.71 14969.3 6639.2C14967.4 6652.74 14971 6666.48 14979.2 6677.42C14990.5 6692.4 15001.4 6691.88 15008.6 6688.79C15039.1 6676.39 15055.6 6585.48 15051 6547.77C15051 6547.77 15051 6547.77 15051 6545.19C15050.4 6544.64 15049.8 6544.22 15049.1 6543.95C15048.4 6543.68 15047.6 6543.57 15046.8 6543.64ZM14982.8 6642.3C14992.4 6610.93 15011.8 6583.44 15038 6563.78C15038 6604.59 15021.5 6667.09 15003.4 6677.42C15003.4 6677.42 14997.2 6680 14990 6670.19C14989.7 6669 14989.7 6667.76 14990 6666.57C14984.7 6659.62 14982.2 6651 14982.8 6642.3Z" fill="#598800"/>
<path d="M14999.8 6541.57L14835.6 6275.04C14832.7 6270.05 14831.6 6264.28 14832.3 6258.59C14833.1 6252.91 14835.7 6247.62 14839.7 6243.53L15026.7 6061.71C15031.2 6057.32 15036.7 6054.01 15042.7 6052.04C15048.7 6050.07 15055.1 6049.49 15061.3 6050.33C15067.6 6051.18 15073.6 6053.43 15078.9 6056.92C15084.1 6060.41 15088.5 6065.05 15091.8 6070.49C15149.6 6167.6 15229.7 6309.65 15304.1 6432.07C15390.8 6573.6 15474 6690.34 15575.8 6856.66C15637.7 6956.87 15553.5 7046.75 15518.4 7011.62C15358.8 6846.33 15260.2 6693.43 15053.5 6591.16C15031.5 6579.83 15012.9 6562.68 14999.8 6541.57Z" fill="#263238"/>
<path d="M12702.8 2311.66C12702.8 2311.66 13228.1 3661.37 12341.2 4185.13C12341.2 4185.13 12329.8 5745.08 12554 5927.93C12826.2 6150.04 14821.6 6263.16 14821.6 6263.16L14804.6 6759.04C14804.6 6759.04 12668.2 6933.63 12021.5 6701.7C11263.7 6430 11095.3 2856.09 11095.3 2856.09L12702.8 2311.66Z" fill="#263238"/>
<path opacity="0.2" d="M12095.9 3140.18L12414.6 3044.1C12437.3 3183.45 12451.8 3324.02 12457.9 3465.08L12310.2 3592.15L12170.2 3547.73C12153.2 3410.57 12128.4 3274.5 12095.9 3140.18Z" fill="black"/>
<path d="M11173.8 2833.87L11215.2 2965.07L11096.9 3001.75L11055.6 2871.58L11173.8 2833.87Z" fill="#263238"/>
<path d="M11717.7 2659.28L11762.2 2795.13L11274 2946.48L11230.7 2815.28L11717.7 2659.28Z" fill="#263238"/>
<path d="M12325.7 2464.55L12370.1 2606.6L11824.2 2776.02L11780.8 2639.14L12325.7 2464.55Z" fill="#263238"/>
<path d="M12769.9 2482.63L12433.7 2586.97H12433.1L12388.2 2444.41L12721.9 2337.48L12769.9 2482.63Z" fill="#263238"/>
<g opacity="0.2">
<path d="M11173.8 2833.87L11215.2 2965.07L11096.9 3001.75L11055.5 2871.58L11173.8 2833.87Z" fill="white"/>
<path d="M11717.7 2659.28L11762.2 2795.13L11274 2946.48L11230.7 2815.28L11717.7 2659.28Z" fill="white"/>
<path d="M12325.7 2464.55L12370.1 2606.59L11824.2 2776.02L11780.8 2639.14L12325.7 2464.55Z" fill="white"/>
<path d="M12769.9 2482.63L12433.7 2586.97H12433.2L12388.2 2444.4L12721.9 2337.48L12769.9 2482.63Z" fill="white"/>
</g>
<path d="M10801.4 6523.49C10802.7 6523.13 10803.9 6522.4 10804.8 6521.4C10805.7 6520.39 10806.3 6519.15 10806.6 6517.81C10806.8 6516.38 10806.6 6514.9 10806 6513.59C10805.3 6512.29 10804.3 6511.23 10803 6510.58C10798.8 6510.58 10697.1 6453.76 10648 6467.71C10639 6470.19 10631.4 6476.14 10626.8 6484.24C10623.8 6488.64 10622.1 6493.86 10622.1 6499.22C10622.1 6504.57 10623.8 6509.79 10626.8 6514.2C10639.2 6530.21 10674.9 6534.34 10711.5 6533.31C10741.7 6532.89 10771.8 6529.6 10801.4 6523.49ZM10779.2 6513.68C10727.5 6522.46 10653.7 6524.01 10639.7 6505.93C10639.7 6503.35 10636.1 6499.22 10639.7 6490.95C10641 6488.42 10642.8 6486.22 10645 6484.52C10647.3 6482.81 10649.9 6481.65 10652.6 6481.14C10656.9 6480.35 10661.3 6480.35 10665.6 6481.14C10705.2 6484.48 10743.8 6495.53 10779.2 6513.68Z" fill="#598800"/>
<path d="M10804 6522.46C10805 6521.7 10805.8 6520.67 10806.3 6519.48C10806.7 6518.29 10806.8 6516.99 10806.6 6515.74C10802.7 6475.39 10786.3 6437.27 10759.6 6406.76C10754.2 6402.51 10748.1 6399.37 10741.5 6397.51C10735 6395.65 10728.1 6395.1 10721.3 6395.91C10702.8 6395.91 10697.6 6407.79 10696.6 6415.54C10692.4 6448.08 10762.2 6508.51 10797.3 6522.98H10799.9L10804 6522.46ZM10752.3 6419.15C10774.3 6443.62 10788.2 6474.29 10792.1 6506.96C10756.5 6486.3 10708.4 6438.78 10711 6419.15C10711 6419.15 10711 6412.95 10724.4 6411.4H10728.6C10736.6 6410.94 10744.5 6412.92 10751.3 6417.09L10752.3 6419.15Z" fill="#598800"/>
<path d="M10829.3 6482.69L11142.3 6475.46C11148 6475.2 11153.7 6476.98 11158.2 6480.48C11162.7 6483.98 11165.9 6488.97 11167.1 6494.57L11230.1 6747.67C11231.5 6753.78 11231.5 6760.13 11230.1 6766.24C11228.8 6772.35 11226.1 6778.09 11222.2 6783.03C11218.4 6787.97 11213.5 6792 11207.9 6794.81C11202.3 6797.63 11196.1 6799.17 11189.8 6799.32C11076.7 6799.32 10913.5 6799.32 10772 6799.32C10605.6 6802.94 10462 6815.34 10268.3 6819.98C10150.6 6823.08 10113.4 6704.8 10165 6692.92C10388.2 6638.16 10571 6628.87 10762.2 6504.9C10782.2 6491.69 10805.4 6484.03 10829.3 6482.69Z" fill="#263238"/>
<path opacity="0.7" d="M12702.8 2312.17L11068.5 2832.84C11068.5 2832.84 10780.2 2550.29 10381 2236.76C10305 2177.36 10226 2116.92 10142.8 2057C10026.6 1972.29 9904.71 1889.13 9781.25 1812.16C9781.25 1812.16 10231.7 754.813 10801.9 660.804C10801.4 660.804 12275.1 1105.54 12702.8 2312.17Z" fill="white"/>
<path opacity="0.1" d="M10381 2236.76C10305 2177.35 10226 2116.92 10142.8 2057L10174.9 1960.41C10261.8 2037.38 10332 2131.46 10381 2236.76Z" fill="black"/>
<path d="M8019.86 3315.28L7907.26 3342.14C7893.5 3345.33 7881.01 3352.53 7871.35 3362.83C7861.7 3373.13 7855.32 3386.07 7853.02 3400L7827.71 3554.96C7825.02 3571.02 7827.91 3587.52 7835.9 3601.71C7843.88 3615.9 7856.49 3626.92 7871.62 3632.95L7954.26 3665.5C7954.26 3665.5 8191.87 3836.99 8392.8 3726.45L8306.02 3496.59L8136.08 3341.63C8120.27 3328.19 8101.45 3318.77 8081.21 3314.18C8060.97 3309.6 8039.92 3309.97 8019.86 3315.28Z" fill="#E4897B"/>
<path d="M10071 1855.55C10114.6 1885.86 10151.1 1925.32 10177.9 1971.18C10204.6 2017.03 10221.1 2068.18 10226 2121.05C10226 2121.05 10112.4 2430.97 10046.8 2582.32C10001.8 2685.63 9955.33 2788.93 9901.09 2892.24C9845.14 3005.58 9778 3113.03 9700.68 3213.01L9682.6 3234.19L9661.93 3256.92C9645.58 3273.67 9628.34 3289.54 9610.28 3304.44C9599.25 3313.7 9587.69 3322.33 9575.67 3330.26C9564.31 3338.01 9547.78 3348.86 9543.13 3350.93L9499.23 3373.65C9442.41 3402.06 9389.2 3425.31 9336 3446.49C9229.59 3489.87 9124.74 3528.1 9019.36 3564.26C8807.58 3635.02 8597.35 3699.59 8381.44 3753.82L8278.13 3477.48C8471.83 3378.3 8669.15 3284.29 8861.82 3187.7C8958.41 3139.66 9054.49 3091.63 9146.43 3043.07C9191.89 3018.79 9237.34 2991.42 9276.6 2969.72L9304.49 2952.16C9308.11 2949.06 9308.11 2948.54 9312.76 2941.83L9318.95 2934.08L9326.19 2923.23C9376.15 2845.29 9419.68 2763.41 9456.35 2678.4C9497.16 2585.42 9538.48 2488.83 9576.19 2390.17C9651.09 2193.88 9722.89 1989.34 9790.04 1790.99C9888.44 1777.55 9988.36 1800.51 10071 1855.55Z" fill="#598800"/>
<path opacity="0.7" d="M10071 1855.55C10114.6 1885.86 10151.1 1925.32 10177.9 1971.18C10204.6 2017.03 10221.1 2068.18 10226 2121.05C10226 2121.05 10112.4 2430.97 10046.8 2582.32C10001.8 2685.63 9955.33 2788.93 9901.09 2892.24C9845.14 3005.58 9778 3113.03 9700.68 3213.01L9682.6 3234.19L9661.93 3256.92C9645.58 3273.67 9628.34 3289.54 9610.28 3304.44C9599.25 3313.7 9587.69 3322.33 9575.67 3330.26C9564.31 3338.01 9547.78 3348.86 9543.13 3350.93L9499.23 3373.65C9442.41 3402.06 9389.2 3425.31 9336 3446.49C9229.59 3489.87 9124.74 3528.1 9019.36 3564.26C8807.58 3635.02 8597.35 3699.59 8381.44 3753.82L8278.13 3477.48C8471.83 3378.3 8669.15 3284.29 8861.82 3187.7C8958.41 3139.66 9054.49 3091.63 9146.43 3043.07C9191.89 3018.79 9237.34 2991.42 9276.6 2969.72L9304.49 2952.16C9308.11 2949.06 9308.11 2948.54 9312.76 2941.83L9318.95 2934.08L9326.19 2923.23C9376.15 2845.29 9419.68 2763.41 9456.35 2678.4C9497.16 2585.42 9538.48 2488.83 9576.19 2390.17C9651.09 2193.88 9722.89 1989.34 9790.04 1790.99C9888.44 1777.55 9988.36 1800.51 10071 1855.55Z" fill="white"/>
<path d="M624.605 15560.3H9347.88L13964.7 11830.9L14167.2 12081.4H15304.1L16462.7 6749.22L15324.7 6751.29L15325.2 6749.22L9868.54 6760.07L10519.9 7566.38L624.605 15560.3Z" fill="#598800"/>
<path opacity="0.2" d="M624.605 15560.3H8210.98L13515.3 11275.1L14167.2 12081.4L15325.2 6749.22L9868.54 6760.07L10519.9 7566.38L624.605 15560.3Z" fill="white"/>
</svg>
